<svg width="101" height="68" viewBox="0 0 101 68" fill="none" xmlns="http://www.w3.org/2000/svg">
<path d="M39.7019 1.27041C49.6861 0.188587 59.7865 -0.670808 69.7909 0.729501C75.4478 2.01354 83.2025 2.44829 86.266 8.07481C85.7352 7.73105 85.1994 7.3974 84.6837 7.03342C81.5394 4.21764 77.1413 3.05998 73.0819 2.20564C59.3872 -0.0894513 44.8634 -0.251221 31.5731 4.18731C30.8653 4.99109 27.4126 4.87482 28.4489 6.35602C22.6404 9.26785 20.9974 15.8397 19.0259 21.4662C18.7529 17.9174 20.77 14.5809 22.0034 11.3203C25.4006 4.58162 32.8622 2.41796 39.7019 1.27041Z" fill="#85BDBE"/>
<path d="M31.5731 4.18738C44.8634 -0.251142 59.3872 -0.0893725 73.0819 2.20572C67.6526 3.90429 61.4548 1.87207 55.985 3.11567C47.1231 3.08534 37.695 2.64047 29.3336 6.05783C29.1112 6.13366 28.6714 6.28027 28.449 6.35609C27.4126 4.8749 30.8654 4.99117 31.5731 4.18738Z" fill="#BFEFF4"/>
<path d="M73.0819 2.20563C77.1413 3.05997 81.5394 4.21762 84.6838 7.03341C83.9356 7.27101 83.1924 7.52377 82.4392 7.7462C82.1763 7.77653 81.6455 7.8372 81.3776 7.86753C80.0632 5.51177 78.1068 4.48555 75.3467 5.17812C77.4952 6.27006 80.4474 6.11335 80.8822 9.30828C81.6607 10.6985 80.5233 9.70259 79.9166 9.27795C79.8408 9.11112 79.6891 8.77748 79.6133 8.61065C78.8095 5.62299 74.8058 7.69059 72.4803 7.15979C74.9069 5.18318 70.3521 6.37117 70.2257 7.97874C69.3916 12.6953 70.807 17.4928 70.4279 22.2548C69.6443 23.827 69.2348 22.821 68.9164 21.5774C68.2895 16.143 70.9435 5.67354 62.9511 4.52094C62.1979 4.39961 60.6864 4.15696 59.9331 4.03058C58.5986 3.76771 57.264 3.57055 55.985 3.11558C61.4548 1.87198 67.6526 3.9042 73.0819 2.20563Z" fill="#88D7E1"/>
<path d="M29.3336 6.05782C37.695 2.64045 47.1231 3.08532 55.985 3.11565C57.264 3.57062 58.5986 3.76778 59.9332 4.03065C49.6861 3.28247 39.3987 4.05593 29.3336 6.05782Z" fill="#60BABD"/>
<path d="M29.3336 6.05777C39.3987 4.05588 49.6861 3.28243 59.9332 4.03061C60.6864 4.15699 62.1979 4.39964 62.9512 4.52097C60.191 4.35415 58.0375 4.48053 60.9341 5.58763C55.803 5.33487 50.6719 3.96489 45.5358 4.97594L45.1061 5.03155C38.15 5.86062 29.2477 5.18827 24.425 11.2495C23.1561 13.0138 22.5596 15.1421 21.8013 17.1541C21.2503 19.2975 19.6073 21.7696 20.7397 23.9484C21.8569 25.0808 24.2278 23.6804 25.8101 23.9433C26.3864 24.1405 26.9728 24.3326 27.5592 24.5095C24.2986 24.8684 19.4253 26.9664 18.94 22.1386C18.9602 21.9718 19.0057 21.6331 19.0259 21.4662C20.9975 15.8397 22.6405 9.26787 28.449 6.35603C28.6714 6.2802 29.1112 6.1336 29.3336 6.05777Z" fill="#478B95"/>
<path d="M45.5358 4.97598C50.6719 3.96493 55.803 5.33491 60.9341 5.58767C60.1657 6.65433 58.3357 8.52984 59.9635 9.60661C62.3344 9.72794 64.7205 9.73805 67.0914 9.551C67.2229 10.102 67.329 10.6632 67.4049 11.2294C65.4485 8.84832 61.3891 10.8805 58.7452 10.1627C56.0002 9.91498 53.3512 10.653 50.7174 11.2496C49.6255 9.14152 50.8236 6.74027 52.2542 5.12259C50.0147 5.0872 47.7753 5.07203 45.5358 4.97598Z" fill="#69A5B9"/>
<path d="M60.9341 5.58769C58.0374 4.48059 60.191 4.35421 62.9511 4.52103C70.9435 5.67363 68.2895 16.1431 68.9164 21.5775C67.9609 28.2505 59.7764 25.2375 55.2621 24.8584L55.2773 24.4135C55.4137 24.277 55.6867 23.999 55.8232 23.8574C59.2456 23.822 62.9056 25.5055 66.2118 24.1658C67.4251 22.4217 67.3998 20.2278 67.784 18.2056C67.9356 16.3251 67.8649 14.4546 67.5666 12.5892C67.5262 12.2505 67.4453 11.5731 67.4048 11.2294C67.329 10.6632 67.2228 10.102 67.0914 9.55102C66.9044 6.50269 63.6184 5.26415 60.9341 5.58769Z" fill="#1A6172"/>
<path d="M24.4249 11.2495C29.2477 5.18827 38.15 5.86062 45.106 5.03156C44.0596 8.11021 42.6492 11.0928 42.0274 14.3029C41.9768 11.4517 39.8435 8.40342 36.6132 9.14149C35.2381 13.0593 35.2028 17.235 34.1968 21.2286C35.4353 21.7948 36.7851 22.356 38.1753 22.0678C39.5958 21.997 42.4065 20.895 41.1831 22.9221C39.5402 23.4883 37.8264 22.9373 36.1885 22.6593C35.5111 22.4925 34.8337 22.3256 34.1563 22.1689C33.5901 21.8656 33.029 21.5572 32.4679 21.2489C32.9481 17.2552 33.7468 13.307 33.9946 9.28809C32.0078 8.59552 29.8897 8.76234 27.9788 9.61163C26.7402 10.0312 25.5927 10.6682 24.4249 11.2495Z" fill="#ABCCD8"/>
<path d="M45.1061 5.03159L45.5358 4.97598C47.7753 5.07203 50.0147 5.0872 52.2542 5.12259C50.8236 6.74027 49.6255 9.14152 50.7174 11.2496C48.4729 13.0947 48.67 15.9864 48.6347 18.6303C48.1847 19.0145 47.0877 19.0246 47.1787 19.793C46.8198 20.89 50.2372 20.622 48.7307 21.441C45.283 21.2691 41.8202 19.7728 38.4281 21.1225C38.1804 21.1276 37.6748 21.1326 37.4271 21.1377C37.8467 18.7718 39.9851 18.5292 42.0881 18.6707C42.1134 17.2047 42.1235 15.7589 42.0274 14.303C42.6492 11.0929 44.0596 8.11025 45.1061 5.03159Z" fill="#8AB9CB"/>
<path d="M75.3467 5.17814C78.1069 4.48557 80.0632 5.51179 81.3776 7.86755C81.7568 8.65617 82.3836 12.114 82.5858 9.66722C82.7274 8.53484 84.0519 10.2385 84.5574 10.5923C83.0408 11.4113 84.8354 13.3222 84.3198 14.8236C84.1176 14.6719 83.7182 14.3636 83.516 14.2119C84.3703 17.7557 84.5877 22.0071 86.539 24.9847C87.2569 25.2476 88 25.4397 88.7229 25.6874C87.8837 25.9452 86.2863 25.5762 86.6856 26.9562C85.7808 26.3901 84.7849 25.9705 83.7081 26.2586C84.1883 25.2526 84.6332 24.186 83.7182 23.271C83.3391 22.2397 82.9953 21.1983 82.6869 20.1468C82.2926 16.411 81.1906 12.8015 79.9166 9.27797C80.5233 9.70261 81.6607 10.6985 80.8822 9.3083C80.4474 6.11337 77.4952 6.27008 75.3467 5.17814Z" fill="#2FA2B1"/>
<path d="M60.9341 5.58768C63.6185 5.26414 66.9044 6.50268 67.0914 9.55101C64.7205 9.73805 62.3344 9.72794 59.9635 9.60662C58.3357 8.52984 60.1657 6.65434 60.9341 5.58768Z" fill="#428EA6"/>
<path d="M70.2257 7.97878C70.3521 6.3712 74.9069 5.18321 72.4804 7.15982C74.8058 7.69063 78.8096 5.62302 79.6134 8.61068C77.2879 7.06377 73.6026 7.36203 71.5401 9.25776C69.8617 13.0442 71.7322 17.7354 71.3985 21.8049C71.9951 23.0991 70.5948 25.6571 72.3641 26.4912C73.5976 26.7692 74.8715 26.9613 76.1202 27.2141C74.4772 27.2747 72.7938 27.1787 71.2368 27.7702L70.888 27.8713L70.433 27.8662C70.4229 25.9958 70.4279 24.1253 70.4279 22.2549C70.8071 17.4928 69.3916 12.6953 70.2257 7.97878Z" fill="#3BA4AF"/>
<path d="M82.4392 7.74624C83.1924 7.52381 83.9355 7.27104 84.6837 7.03345C85.1994 7.39743 85.7352 7.73108 86.266 8.07483C88.1415 10.3093 88.915 13.1958 90.0322 15.8448C91.2101 23.3822 97.1146 28.6447 98.707 35.985C97.969 35.6058 97.2157 35.252 96.4524 34.9234C95.4565 33.0226 94.8195 33.6343 94.7943 35.5553C94.774 35.7676 94.7387 36.1973 94.7184 36.4096C92.4031 36.6169 93.6467 31.506 95.8306 32.1126C94.9763 30.0804 92.5548 29.6962 90.6136 29.489C78.7792 32.3957 66.5758 30.8741 54.7919 33.7202C54.3673 32.7294 53.5635 32.0065 52.7294 31.3594C58.8462 31.5818 64.7356 29.4637 70.8373 29.2817C70.8525 28.9278 70.8778 28.2251 70.8879 27.8713L71.2367 27.7702C72.6674 31.4757 77.9906 27.8157 80.9883 28.306C81.5495 26.0413 77.4749 27.8965 76.1201 27.2141C74.8715 26.9613 73.5975 26.7692 72.364 26.4912C75.8825 26.2334 79.4768 26.1525 82.8891 25.1768C83.6878 24.8634 83.5766 23.9686 83.7182 23.271C84.6332 24.186 84.1883 25.2526 83.7081 26.2586C84.7848 25.9705 85.7807 26.3901 86.6856 26.9563C85.3611 27.1029 82.7172 27.3961 81.3927 27.5427C85.4572 29.7316 90.7399 25.5913 94.7943 28.8419C94.309 24.5651 89.3952 25.8492 86.6856 26.9563C86.2862 25.5762 87.8837 25.9452 88.7229 25.6874C88 25.4397 87.2569 25.2476 86.539 24.9847C88.3336 24.555 91.6044 24.2871 90.1687 21.2843C89.2183 17.9882 88.1719 14.5051 86.1952 11.6388C85.533 9.84418 84.2389 8.43376 82.4392 7.74624Z" fill="#66CAD0"/>
<path d="M71.54 9.2578C73.6026 7.36208 77.2879 7.06382 79.6133 8.61073C79.6891 8.77755 79.8408 9.1112 79.9166 9.27802C81.1906 12.8015 82.2926 16.411 82.6869 20.1469L82.2319 20.344C81.5343 17.2249 80.9479 14.0553 79.6942 11.103C79.123 7.42274 74.6945 8.68656 72.3792 10.0565C72.2225 10.3194 71.9091 10.8452 71.7524 11.108C70.9435 12.2354 70.6453 14.0098 71.9495 14.7579C71.9495 15.6325 71.9445 17.3715 71.9445 18.241C72.5056 20.4047 70.8273 23.6047 72.6168 25.2931C76.4892 24.9443 84.3248 26.7086 82.6869 20.1469C82.9953 21.1983 83.339 22.2397 83.7182 23.271C83.5766 23.9686 83.6879 24.8634 82.8891 25.1768C79.4768 26.1525 75.8825 26.2334 72.3641 26.4912C70.5947 25.6571 71.995 23.0991 71.3985 21.805C71.7321 17.7355 69.8617 13.0442 71.54 9.2578Z" fill="#0B5464"/>
<path d="M81.3776 7.8676C81.6455 7.83727 82.1763 7.77661 82.4392 7.74628C84.2388 8.43379 85.533 9.84421 86.1952 11.6388C85.6392 11.3001 85.0831 10.9665 84.5573 10.5924C84.0518 10.2385 82.7273 8.5349 82.5858 9.66728C82.3836 12.114 81.7567 8.65622 81.3776 7.8676Z" fill="#0A6076"/>
<path d="M27.9788 9.61164C29.8897 8.76236 32.0079 8.59554 33.9946 9.28811C33.7469 13.307 32.9481 17.2552 32.4679 21.2489C30.0414 21.0719 27.6047 21.2994 25.345 22.2094C25.3147 17.7911 27.721 13.9086 27.9788 9.61164Z" fill="#E2F2F6"/>
<path d="M72.3793 10.0565C74.6946 8.68656 79.123 7.42274 79.6942 11.103C77.298 10.4963 74.8412 10.193 72.3793 10.0565Z" fill="#54889D"/>
<path d="M36.6132 9.14151C39.8435 8.40344 41.9768 11.4518 42.0274 14.3029C42.1234 15.7589 42.1133 17.2047 42.0881 18.6707C39.9851 18.5291 37.8467 18.7718 37.4271 21.1377C37.0277 21.7847 37.2754 22.0931 38.1753 22.0678C36.7851 22.356 35.4353 21.7948 34.1968 21.2287C35.2028 17.235 35.2382 13.0593 36.6132 9.14151Z" fill="#E1F4F6"/>
<path d="M24.4249 11.2495C25.5927 10.6682 26.7402 10.0312 27.9788 9.61163C27.721 13.9086 25.3146 17.7911 25.345 22.2094C24.8445 22.5784 24.344 22.9424 23.8587 23.3316C27.2811 22.8463 30.6833 22.2144 34.1563 22.1689C34.8337 22.3256 35.5111 22.4925 36.1885 22.6593C32.6751 22.6441 29.278 23.5844 25.8101 23.9433C24.2278 23.6804 21.8568 25.0808 20.7396 23.9484C21.0733 21.6786 21.4929 19.4239 21.8012 17.1541C22.5595 15.1421 23.156 13.0138 24.4249 11.2495Z" fill="#CBE3E7"/>
<path d="M50.7174 11.2495C53.3512 10.653 56.0002 9.91493 58.7452 10.1626C61.4851 11.4568 62.2889 17.2906 58.3256 16.9316C59.5692 18.615 59.4934 20.5512 57.724 21.8251C55.4946 22.4419 55.6514 19.6767 54.0792 18.8981C52.7193 18.8324 49.9945 18.6959 48.6346 18.6302C48.67 15.9863 48.4729 13.0947 50.7174 11.2495Z" fill="#D9EBF4"/>
<path d="M58.7452 10.1627C61.3891 10.8805 65.4484 8.84829 67.4048 11.2293C67.4453 11.5731 67.5262 12.2505 67.5666 12.5892C67.4958 14.4799 67.4149 16.3756 67.3593 18.2713C64.5789 18.5544 60.7521 18.1702 60.2314 21.7645C59.3973 21.8049 58.5581 21.8302 57.724 21.8252C59.4933 20.5512 59.5692 18.6151 58.3256 16.9317C62.2889 17.2906 61.4851 11.4568 58.7452 10.1627Z" fill="#C6E2EF"/>
<path d="M71.7523 11.108C71.909 10.8451 72.2225 10.3194 72.3792 10.0565C74.8411 10.193 77.298 10.4963 79.6942 11.1029C80.9479 14.0552 81.5343 17.2249 82.2319 20.344C81.7213 23.8574 79.3201 20.2631 78.3646 18.9234C76.3223 18.155 74.0879 18.3219 71.9444 18.241C71.9444 17.3715 71.9495 15.6324 71.9495 14.7579C71.904 13.8479 71.8029 12.0179 71.7523 11.108Z" fill="#B4D8E5"/>
<path d="M84.3198 14.8236C84.8355 13.3222 83.0408 11.4113 84.5574 10.5923C85.0832 10.9664 85.6392 11.3001 86.1953 11.6388C86.8828 15.4656 89.4054 18.7212 89.5975 22.6896C88.905 23.9332 86.4582 24.6056 86.1498 22.7705C85.5078 20.1367 84.6181 17.5332 84.3198 14.8236Z" fill="#4F99B1"/>
<path d="M71.9495 14.758C70.6453 14.0098 70.9435 12.2354 71.7524 11.1081C71.8029 12.018 71.9041 13.848 71.9495 14.758Z" fill="#4B9BA9"/>
<path d="M86.1953 11.6388C88.1719 14.5052 89.2183 17.9882 90.1687 21.2843C91.6044 24.2871 88.3337 24.555 86.539 24.9847C84.5877 22.0072 84.3703 17.7557 83.516 14.212C83.7182 14.3636 84.1176 14.672 84.3198 14.8236C84.618 17.5333 85.5078 20.1367 86.1498 22.7705C86.4582 24.6056 88.9049 23.9332 89.5975 22.6896C89.4054 18.7213 86.8828 15.4657 86.1953 11.6388Z" fill="#0C6A77"/>
<path d="M67.5666 12.5892C67.8648 14.4546 67.9356 16.325 67.784 18.2056L67.3593 18.2713C67.4149 16.3756 67.4958 14.4798 67.5666 12.5892Z" fill="#7AA1B0"/>
<path d="M20.7396 23.9484C19.6073 21.7696 21.2502 19.2975 21.8012 17.1541C21.4929 19.4239 21.0733 21.6786 20.7396 23.9484Z" fill="#88B4BD"/>
<path d="M60.2313 21.7645C60.752 18.1702 64.5789 18.5544 67.3593 18.2713L67.7839 18.2056C67.3997 20.2277 67.425 22.4217 66.2117 24.1658C62.9056 25.5054 59.2456 23.822 55.8231 23.8574C53.6089 20.8192 59.4731 23.3671 60.2313 21.7645Z" fill="#31829D"/>
<path d="M71.9445 18.241C74.0879 18.3219 76.3223 18.1551 78.3647 18.9235C79.3201 20.2631 81.7214 23.8574 82.2319 20.344L82.6869 20.1468C84.3248 26.7086 76.4892 24.9443 72.6168 25.2931C70.8273 23.6046 72.5056 20.4047 71.9445 18.241Z" fill="#50879D"/>
<path d="M47.1787 19.7929C47.0877 19.0245 48.1847 19.0144 48.6346 18.6302C49.9945 18.6959 52.7193 18.8324 54.0791 18.8981C55.6513 19.6767 55.4946 22.4419 57.724 21.8251C58.5581 21.8302 59.3973 21.8049 60.2314 21.7645C59.4731 23.367 53.609 20.8192 55.8232 23.8574C55.6867 23.9989 55.4137 24.277 55.2772 24.4134C50.8134 22.8514 45.8694 22.7907 41.1831 22.9221C42.4065 20.895 39.5958 21.997 38.1753 22.0678C37.2754 22.0931 37.0277 21.7847 37.4271 21.1376C37.6748 21.1326 38.1803 21.1275 38.428 21.1225C41.7847 20.7838 45.5054 22.6037 48.7307 21.4409C50.2371 20.622 46.8198 20.8899 47.1787 19.7929Z" fill="#73A8BB"/>
<path d="M38.428 21.1225C41.8201 19.7728 45.283 21.2691 48.7307 21.441C45.5054 22.6037 41.7847 20.7838 38.428 21.1225Z" fill="#4C7A8A"/>
<path d="M25.345 22.2094C27.6047 21.2994 30.0414 21.0719 32.4679 21.2489C33.029 21.5572 33.5902 21.8656 34.1563 22.1689C30.6834 22.2144 27.2812 22.8463 23.8588 23.3316C24.3441 22.9424 24.8445 22.5784 25.345 22.2094Z" fill="#759099"/>
<path d="M55.2621 24.8584C59.7764 25.2375 67.9609 28.2504 68.9164 21.5775C69.2348 22.8211 69.6443 23.8271 70.4279 22.2549C70.4279 24.1253 70.4228 25.9958 70.4329 27.8662C66.5151 27.8511 62.5973 27.9522 58.6896 28.2504C59.276 28.0027 59.8624 27.7651 60.4488 27.5225C61.5256 27.3557 62.5821 27.0574 63.5527 26.5569C50.4899 25.5914 37.1541 22.6947 24.2328 26.1576C25.8505 26.3395 27.5744 26.2031 29.1516 26.7288C23.7678 26.0211 17.7924 27.4062 14.6733 32.1582C14.5166 30.7326 15.3861 28.8217 13.1315 29.676C14.3852 28.3718 16.8825 28.1847 17.3728 26.3395C17.843 24.9493 17.7115 23.1042 18.94 22.1386C19.4253 26.9664 24.2986 24.8685 27.5592 24.5095C36.7901 23.5996 46.0665 23.5945 55.2621 24.8584Z" fill="#68C8D2"/>
<path d="M25.8101 23.9433C29.278 23.5844 32.6751 22.6441 36.1885 22.6593C37.8264 22.9373 39.5402 23.4884 41.1831 22.9222C45.8694 22.7907 50.8134 22.8514 55.2772 24.4135L55.2621 24.8583C46.0665 23.5945 36.7901 23.5996 27.5592 24.5095C26.9728 24.3326 26.3864 24.1405 25.8101 23.9433Z" fill="#397383"/>
<path d="M24.2328 26.1576C37.1541 22.6947 50.4899 25.5914 63.5527 26.5569C62.5821 27.0574 61.5256 27.3557 60.4488 27.5225C55.0245 28.3971 49.9642 25.8694 44.5449 26.4002C40.2378 26.5114 35.6628 25.7127 31.5731 27.4366C31.0777 27.295 30.5823 27.1535 30.0869 27.0069C29.8543 26.9361 29.3842 26.7996 29.1516 26.7288C27.5744 26.2031 25.8505 26.3396 24.2328 26.1576Z" fill="#27B3BD"/>
<path d="M86.6856 26.9563C89.3953 25.8492 94.309 24.5651 94.7943 28.8419C90.74 25.5913 85.4572 29.7316 81.3928 27.5427C82.7172 27.3961 85.3611 27.1029 86.6856 26.9563Z" fill="#9CEBEF"/>
<path d="M5.21497 31.5617C8.33912 28.6802 13.081 26.9411 17.3729 26.3396C16.8825 28.1847 14.3852 28.3718 13.1315 29.676C11.8273 30.1512 10.7505 31.0359 9.66866 31.8801C8.1723 31.8751 6.67088 31.9408 5.21497 31.5617Z" fill="#A7E0E3"/>
<path d="M31.5731 27.4365C35.6628 25.7127 40.2378 26.5114 44.5449 26.4002C51.2988 27.2849 44.5601 27.4416 41.9819 27.4669C44.3124 28.8621 47.2495 28.0684 49.8277 28.5032C48.4678 29.0845 47.1029 29.6356 45.7228 30.1563L45.2527 30.2928C40.4047 31.6172 36.5374 35.9041 31.017 34.984C28.6815 35.1559 24.3592 35.6716 25.891 31.4909C27.8777 30.2725 29.5813 28.6498 31.5731 27.4365Z" fill="#96DCE4"/>
<path d="M44.545 26.4002C49.9642 25.8694 55.0245 28.397 60.4488 27.5224C59.8624 27.7651 59.276 28.0027 58.6896 28.2504C54.7617 28.6043 50.5405 28.7054 47.0776 30.8084C47.9674 30.9196 48.8672 31.0055 49.767 31.0864C49.0644 31.3341 48.3667 31.5869 47.6843 31.875C46.4508 32.3351 45.3083 32.9973 44.09 33.4877C44.4337 32.1783 46.6732 31.6374 45.7228 30.1562C47.1029 29.6355 48.4678 29.0845 49.8277 28.5032C47.2495 28.0684 44.3124 28.8621 41.9819 27.4668C44.5601 27.4416 51.2988 27.2848 44.545 26.4002Z" fill="#4DC4CE"/>
<path d="M14.6733 32.1582C17.7924 27.4062 23.7677 26.0211 29.1516 26.7288C29.3841 26.7996 29.8543 26.9361 30.0868 27.0069C28.6814 28.5336 25.714 28.9026 25.8909 31.4909C24.0205 34.6201 15.6894 37.0719 14.6733 32.1582Z" fill="#9EDEE6"/>
<path d="M30.0868 27.0068C30.5822 27.1534 31.0776 27.2949 31.5731 27.4365C29.5813 28.6497 27.8777 30.2725 25.8909 31.4908C25.714 28.9025 28.6814 28.5335 30.0868 27.0068Z" fill="#5DB8C2"/>
<path d="M71.2368 27.7702C72.7938 27.1787 74.4772 27.2748 76.1201 27.2141C77.475 27.8966 81.5495 26.0413 80.9884 28.306C77.9906 27.8157 72.6674 31.4757 71.2368 27.7702Z" fill="#92E3ED"/>
<path d="M58.6896 28.2504C62.5973 27.9522 66.5151 27.8511 70.433 27.8662L70.888 27.8713C70.8778 28.2252 70.8526 28.9278 70.8374 29.2817C64.7357 29.4637 58.8463 31.5819 52.7294 31.3594C51.7538 31.1724 50.7579 31.1421 49.767 31.0864C48.8672 31.0056 47.9674 30.9196 47.0776 30.8084C50.5405 28.7054 54.7616 28.6043 58.6896 28.2504Z" fill="#96DEE6"/>
<path d="M13.1314 29.6759C15.3861 28.8216 14.5166 30.7325 14.6733 32.1581C15.6894 37.0718 24.0205 34.62 25.8909 31.4908C24.3592 35.6715 28.6814 35.1559 31.017 34.984C36.5373 35.904 40.4046 31.6172 45.2526 30.2927C42.7958 32.7597 40.4906 35.7777 40.4602 39.4427C34.2978 39.6803 28.1254 39.3366 21.968 39.5388C26.8009 40.7268 34.3231 39.5792 40.1771 40.0494C39.798 41.758 37.9275 43.2898 36.0571 42.5416C30.4407 42.9612 24.8799 42.1928 19.4354 40.8936C19.036 39.6298 21.1542 40.383 20.8812 39.1394C17.0796 38.9473 12.6411 35.4794 13.7077 31.3341C12.2417 31.7992 12.4439 33.892 11.7766 35.0851C11.4683 34.5189 11.1649 33.9477 10.8363 33.3916C10.528 32.8304 10.0983 32.3502 9.66858 31.88C10.7504 31.0358 11.8272 30.1511 13.1314 29.6759Z" fill="#56C8D4"/>
<path d="M54.7919 33.7202C66.5758 30.8741 78.7792 32.3958 90.6136 29.489C92.5548 29.6962 94.9763 30.0804 95.8306 32.1127C93.6467 31.506 92.4031 36.6169 94.7184 36.4096C95.9924 37.8403 94.3899 39.2709 93.5456 40.3932C92.3981 40.8027 91.3011 41.4447 90.0575 41.4902C91.2303 40.3932 92.6862 39.2456 92.6761 37.4763C92.9997 35.7171 90.6136 36.3945 89.5874 36.3995C90.6186 35.4138 92.5952 35.0245 92.7267 33.4068C85.4168 36.6725 77.4598 37.5926 69.7404 39.1193C69.1337 38.9423 68.4867 38.7553 68.3148 38.0577C67.6374 35.7626 65.3878 32.785 62.7439 34.3117C61.3992 35.3632 60.1202 40.6611 62.3496 38.8362C63.2797 39.3013 63.3202 40.1354 62.9714 41.015L62.8703 41.4043C61.2728 42.6933 60.6611 45.3625 58.4722 45.681C58.4014 44.311 59.4933 42.4911 58.179 41.6166C56.627 41.3739 53.7253 43.0927 54.155 40.4791C55.2065 39.5844 55.3531 38.3408 54.9487 37.0011C54.8324 35.9698 54.6453 34.9537 54.4229 33.9477L54.7919 33.7202Z" fill="#0EB0BE"/>
<path d="M45.2527 30.2928L45.7228 30.1563C46.6732 31.6375 44.4337 32.1784 44.09 33.4877C45.3083 32.9973 46.4508 32.3351 47.6843 31.8751C45.6065 33.5281 44.7825 35.8485 45.1313 38.4419C44.5095 41.2172 49.8075 41.5812 48.1089 44.4172C47.7095 47.051 44.9949 47.3644 42.7453 46.9802C35.8701 45.9085 28.3377 47.0105 21.7659 45.1148C24.5008 44.1796 28.3024 45.5344 30.6025 44.1139C24.1115 44.0987 17.4032 43.209 11.6402 40.0191C11.625 39.7562 11.5947 39.2355 11.5795 38.9727C11.6402 38.3711 11.6705 37.7645 11.6907 37.1578C11.7261 36.4653 11.7565 35.7727 11.7767 35.0852C12.444 33.8921 12.2418 31.7992 13.7078 31.3342C12.6411 35.4795 17.0797 38.9474 20.8812 39.1395C21.1542 40.3831 19.0361 39.6299 19.4354 40.8937C24.8799 42.1929 30.4407 42.9613 36.0571 42.5417C37.9276 43.2899 39.798 41.7581 40.1772 40.0494C34.3232 39.5793 26.8009 40.7268 21.9681 39.5389C28.1254 39.3366 34.2979 39.6804 40.4603 39.4428C40.4906 35.7777 42.7958 32.7597 45.2527 30.2928Z" fill="#14AEBD"/>
<path d="M49.7671 31.0864C50.7579 31.142 51.7538 31.1723 52.7294 31.3594C53.5636 32.0065 54.3674 32.7294 54.792 33.7202L54.423 33.9477C53.6091 32.5625 48.0938 30.5859 49.2363 32.603C47.563 33.5281 45.6925 34.8222 46.5216 36.996C45.3993 40.747 52.3048 41.2677 52.8204 37.6077C54.1803 35.353 51.7083 33.7556 50.0148 32.8153C53.2552 31.5515 52.9974 36.4298 54.9487 37.0011C54.6403 41.9805 47.1484 42.6579 45.1314 38.4418C44.7826 35.8485 45.6066 33.5281 47.6843 31.875C48.3667 31.5869 49.0644 31.3341 49.7671 31.0864Z" fill="#4D90A5"/>
<path d="M5.21497 31.5616C6.67088 31.9408 8.1723 31.875 9.66866 31.8801C10.0984 32.3502 10.5281 32.8305 10.8364 33.3916C9.59283 32.3047 3.86521 32.0065 6.81243 32.9771C5.56378 33.7152 4.07753 34.3926 3.69333 35.9344C4.52745 36.3338 5.42729 36.5613 6.31701 36.809C4.51228 36.8241 2.66711 38.0526 4.80549 39.4074C7.36346 42.7135 12.5047 37.0719 7.51006 37.0567C7.99536 35.252 9.98208 34.4886 7.63138 33.0934C10.2045 32.9215 10.2348 35.9041 11.6908 37.1578C11.6705 37.7644 11.6402 38.3711 11.5796 38.9726C9.76471 41.3587 6.06425 42.2434 3.79949 39.9534C3.22319 39.1951 3.06648 40.1455 2.81371 40.6055C1.8431 37.3044 2.27786 33.9073 5.21497 31.5616Z" fill="#5F909F"/>
<path d="M49.2363 32.603C48.0938 30.586 53.6091 32.5626 54.423 33.9477C54.6454 34.9537 54.8324 35.9698 54.9487 37.0011C52.9974 36.4299 53.2552 31.5515 50.0148 32.8154C49.8176 32.7597 49.4334 32.6536 49.2363 32.603Z" fill="#A4EAF7"/>
<path d="M6.81236 32.9771C3.86514 32.0065 9.59276 32.3048 10.8364 33.3917C11.1649 33.9477 11.4683 34.519 11.7766 35.0852C11.7564 35.7727 11.7261 36.4653 11.6907 37.1578C10.2348 35.9041 10.2044 32.9215 7.63131 33.0934C7.42405 33.0631 7.01457 33.0075 6.81236 32.9771Z" fill="#A0E3EC"/>
<path d="M49.2362 32.603C49.4334 32.6535 49.8176 32.7597 50.0147 32.8153C51.7083 33.7556 54.1803 35.353 52.8204 37.6077C50.6113 37.4661 48.7914 35.8788 46.5216 36.996C45.6925 34.8222 47.5629 33.5281 49.2362 32.603Z" fill="#8AA2B5"/>
<path d="M6.8124 32.9771C7.01461 33.0074 7.42409 33.0631 7.63135 33.0934C9.98205 34.4886 7.99533 35.252 7.51003 37.0567C7.21177 36.9961 6.61524 36.8697 6.31698 36.809C5.42725 36.5613 4.52742 36.3338 3.6933 35.9344C4.0775 34.3926 5.56375 33.7152 6.8124 32.9771Z" fill="#94ACC0"/>
<path d="M69.7404 39.1193C77.4598 37.5926 85.4167 36.6725 92.7267 33.4068C92.5952 35.0245 90.6186 35.4137 89.5873 36.3995C90.6136 36.3945 92.9996 35.7171 92.6761 37.4763C92.6862 39.2456 91.2303 40.3932 90.0575 41.4902C85.0224 41.6924 79.9672 41.9805 75.1293 43.5123C73.3751 41.4902 70.4077 42.8703 69.7404 39.1193Z" fill="#2BB8C5"/>
<path d="M94.7943 35.5553C94.8196 33.6343 95.4566 33.0226 96.4524 34.9234C95.9014 35.1407 95.3453 35.348 94.7943 35.5553Z" fill="#ABFAFE"/>
<path d="M62.7439 34.3117C65.3878 32.785 67.6374 35.7625 68.3148 38.0576C66.227 37.5622 63.9521 37.0668 62.3496 38.8362C60.1202 40.6611 61.3992 35.3632 62.7439 34.3117Z" fill="#78D9E6"/>
<path d="M96.4524 34.9234C97.2157 35.252 97.969 35.6058 98.707 35.985C98.975 37.4763 99.2024 38.9777 99.253 40.4943L99.157 41.015C98.9042 40.6409 98.6514 40.2668 98.4037 39.8876C98.3279 37.8099 96.1895 35.6412 95.6132 38.7401C95.3149 39.4529 95.0167 40.1707 94.8296 40.9189C94.678 41.9603 94.6932 43.0118 94.7235 44.0633C92.7873 44.1543 93.8489 41.6722 93.5456 40.3932C94.3898 39.2709 95.9924 37.8403 94.7184 36.4096C94.7386 36.1973 94.774 35.7676 94.7943 35.5553C95.3453 35.348 95.9014 35.1407 96.4524 34.9234Z" fill="#339CA4"/>
<path d="M46.5215 36.996C48.7913 35.8788 50.6112 37.4662 52.8204 37.6077C52.3047 41.2677 45.3992 40.747 46.5215 36.996Z" fill="#D8E8F2"/>
<path d="M4.8055 39.4074C2.66712 38.0526 4.51229 36.8242 6.31702 36.809C6.61528 36.8697 7.21181 36.9961 7.51007 37.0567C12.5047 37.0719 7.36346 42.7136 4.8055 39.4074Z" fill="#DBE6F0"/>
<path d="M54.9487 37.0011C55.3531 38.3407 55.2065 39.5843 54.155 40.4791C52.9822 40.9038 50.1917 43.4314 52.5322 43.8004C55.1913 44.2099 53.7556 48.4311 56.3894 48.7546C55.5654 48.9568 54.7363 49.154 53.8972 49.2905C49.4283 49.1085 44.9544 48.972 40.4855 49.2197C37.5282 49.1236 34.5759 49.1085 31.6186 49.0225C29.369 48.6232 27.0891 48.6282 24.8142 48.699C22.1956 48.6232 19.5769 48.6383 16.9583 48.5322C15.376 48.2845 13.7836 48.1126 12.1811 48.1783C11.2459 48.1277 10.3106 48.0772 9.37542 48.0216C7.94983 47.8649 6.53435 47.7132 5.10371 47.6475C4.72962 47.6222 3.9865 47.5666 3.61241 47.5363C4.33026 47.1015 5.06327 46.6769 5.73562 46.1764C7.76278 44.2453 3.88034 42.0614 3.41525 44.6902C3.25348 44.4981 2.92489 44.1139 2.76312 43.9218C2.77323 43.0927 2.79851 41.4346 2.81368 40.6055C3.06644 40.1455 3.22315 39.1951 3.79945 39.9534C6.06421 42.2434 9.76467 41.3587 11.5795 38.9727C11.5947 39.2355 11.625 39.7562 11.6402 40.0191C11.3166 40.3174 10.9931 40.6156 10.6696 40.9189C9.22376 41.9502 7.4443 41.9199 5.74068 42.0968C7.90433 43.1129 7.43925 46.1663 9.85566 46.5202C20.7397 47.9761 31.8208 48.0822 42.7452 46.9802C44.9948 47.3644 47.7095 47.051 48.1089 44.4172C49.8075 41.5812 44.5095 41.2172 45.1313 38.4418C47.1484 42.6579 54.6403 41.9805 54.9487 37.0011ZM50.8488 44.1391C48.7307 45.135 49.6305 49.245 52.6182 47.5464C54.246 46.4292 52.7243 43.4213 50.8488 44.1391Z" fill="#208491"/>
<path d="M95.6132 38.7401C96.1895 35.6412 98.3278 37.8099 98.4037 39.8876C98.6716 43.9369 96.9376 39.9887 95.6132 38.7401Z" fill="#062C34"/>
<path d="M62.3496 38.8362C63.9521 37.0668 66.227 37.5622 68.3148 38.0577C68.4867 38.7553 69.1338 38.9423 69.7404 39.1193C70.4077 42.8703 73.3752 41.4902 75.1293 43.5123C73.5774 43.9925 71.8384 44.5284 71.3581 46.2927C71.2368 46.1461 70.9891 45.8478 70.8677 45.7012C71.2317 41.5913 66.6112 37.3044 63.2393 41.1869L62.9714 41.015C63.3202 40.1354 63.2798 39.3013 62.3496 38.8362Z" fill="#269EA7"/>
<path d="M94.8297 40.9189C95.0167 40.1708 95.315 39.4529 95.6132 38.7401C96.9377 39.9888 98.6717 43.9369 98.4037 39.8877C98.6514 40.2668 98.9042 40.6409 99.157 41.015C99.0912 42.0159 99.1367 43.0219 99.1115 44.0229C98.9851 44.1695 98.7273 44.4627 98.6009 44.6093C98.4745 44.7508 98.2217 45.0339 98.1004 45.1755C97.5494 43.4213 96.69 41.5862 94.8297 40.9189Z" fill="#4B656C"/>
<path d="M63.2393 41.1869C66.6112 37.3044 71.2317 41.5913 70.8677 45.7012C68.9619 43.1837 65.7265 42.8298 63.2393 41.1869Z" fill="#051D20"/>
<path d="M10.6695 40.9189C10.9931 40.6156 11.3166 40.3173 11.6401 40.0191C17.4032 43.2089 24.1115 44.0987 30.6025 44.1138C28.3023 45.5344 24.5008 44.1796 21.7659 45.1148C28.3377 47.0105 35.8701 45.9085 42.7452 46.9802C31.8208 48.0822 20.7396 47.9761 9.85564 46.5201C11.0992 45.13 7.87903 45.9135 9.11251 44.862C10.5684 43.942 9.62815 42.117 10.6695 40.9189Z" fill="#4FC2CF"/>
<path d="M52.5322 43.8004C50.1916 43.4314 52.9821 40.9038 54.1549 40.4791C53.7252 43.0927 56.6269 41.3739 58.1789 41.6166C59.4933 42.4911 58.4013 44.311 58.4721 45.681C60.661 45.3625 61.2727 42.6933 62.8702 41.4042C62.7084 42.476 62.2535 43.4567 61.7681 44.4121C61.2778 45.4181 60.8633 46.5707 61.1868 47.6879C61.8844 49.4168 60.1656 49.1287 58.9877 49.1843L58.5328 49.1135C57.82 48.9619 57.1072 48.8304 56.3893 48.7546C53.7555 48.4311 55.1912 44.2099 52.5322 43.8004Z" fill="#0F90A3"/>
<path d="M90.0575 41.4902C91.3011 41.4447 92.3981 40.8027 93.5457 40.3932C93.849 41.6722 92.7874 44.1543 94.7236 44.0633C94.5163 45.2614 94.1472 46.4191 93.758 47.5717L93.6215 48.0166C88.7836 48.5221 83.5312 48.1227 79.305 50.9335C77.5104 52.6826 74.6845 49.0023 73.5268 51.1357C72.9404 49.4624 72.081 47.9053 71.3581 46.2927C71.8383 44.5284 73.5774 43.9926 75.1293 43.5123C79.9672 41.9806 85.0225 41.6924 90.0575 41.4902Z" fill="#078D9F"/>
<path d="M99.2531 40.4943C99.885 41.9199 101.513 43.8611 99.1115 44.0229C99.1368 43.0219 99.0913 42.0159 99.157 41.015L99.2531 40.4943Z" fill="#8CB9B6"/>
<path d="M5.74066 42.0968C7.44429 41.9198 9.22374 41.9502 10.6695 40.9189C9.62816 42.117 10.5684 43.9419 9.11253 44.862C7.87904 45.9135 11.0992 45.1299 9.85565 46.5201C7.43923 46.1663 7.90432 43.1129 5.74066 42.0968Z" fill="#27B0BA"/>
<path d="M62.9713 41.015L63.2393 41.1869C65.7265 42.8298 68.9618 43.1837 70.8677 45.7012C70.989 45.8478 71.2367 46.1461 71.358 46.2927C72.0809 47.9053 72.9403 49.4623 73.5267 51.1356C74.2244 52.6674 72.7735 56.6004 75.5944 56.383C74.9018 56.6358 74.2143 56.8986 73.5419 57.1767C73.0566 56.1707 72.4247 55.1091 72.091 56.8127C72.4399 52.8089 71.1659 48.1075 67.5565 45.9085C65.9843 44.488 63.7347 44.6699 61.7682 44.4121C62.2535 43.4567 62.7085 42.476 62.8702 41.4042L62.9713 41.015Z" fill="#495B61"/>
<path d="M94.8296 40.9189C96.69 41.5862 97.5494 43.4212 98.1004 45.1754C98.9295 49.6241 99.3541 54.7653 96.7709 58.7438C95.6739 61.0136 92.9895 59.0521 92.4789 57.3232C92.6306 57.1817 92.9339 56.9036 93.0856 56.7621C95.0622 57.8591 96.0631 54.7703 96.3563 53.279C96.235 50.6301 98.2521 46.1713 95.3554 44.4475C95.1987 44.3514 94.8802 44.1593 94.7235 44.0633C94.6932 43.0118 94.678 41.9603 94.8296 40.9189Z" fill="#D7E4E6"/>
<path d="M3.41522 44.6901C3.88031 42.0614 7.76275 44.2453 5.73559 46.1764C4.62849 46.2674 3.90053 45.6102 3.41522 44.6901Z" fill="#B9DDEB"/>
<path d="M2.76314 43.9218C2.92491 44.1139 3.2535 44.4981 3.41527 44.6902C3.90058 45.6102 4.62854 46.2674 5.73564 46.1764C5.06329 46.6769 4.33028 47.1015 3.61243 47.5363L3.16251 47.5869C2.56599 46.8033 2.43455 45.5799 2.76314 43.9218Z" fill="#73B0AC"/>
<path d="M50.8488 44.1391C52.7243 43.4213 54.246 46.4292 52.6182 47.5464C49.6305 49.2449 48.7307 45.135 50.8488 44.1391Z" fill="#AFCED9"/>
<path d="M94.7235 44.0633C94.8803 44.1594 95.1987 44.3515 95.3554 44.4475C96.316 47.2835 96.1845 50.3217 96.3564 53.2791C96.0632 54.7704 95.0622 57.8592 93.0856 56.7622C92.6913 55.8017 92.206 54.8867 91.6752 53.9969L91.5792 53.5268C91.7713 52.4551 92.3728 51.5401 92.9592 50.6453C95.6133 52.8848 96.7001 45.681 93.758 47.5717C94.1472 46.4191 94.5163 45.2614 94.7235 44.0633Z" fill="#45798D"/>
<path d="M61.1869 47.6879C60.8634 46.5707 61.2779 45.4181 61.7683 44.4121C63.7348 44.6699 65.9843 44.4879 67.5565 45.9085C67.1268 46.5303 66.682 47.147 66.3079 47.8042C68.9619 48.1277 69.4624 52.6471 69.1439 54.8057C68.3452 50.8727 65.8276 46.601 61.1869 47.6879Z" fill="#A4BCC4"/>
<path d="M95.3554 44.4474C98.2521 46.1713 96.235 50.63 96.3563 53.279C96.1845 50.3217 96.3159 47.2835 95.3554 44.4474Z" fill="#98AEB7"/>
<path d="M98.1004 45.1754C98.2218 45.0339 98.4745 44.7508 98.6009 44.6093C98.8739 45.2816 99.2278 45.9135 99.4856 46.5909C99.2783 49.3107 99.1317 52.0456 99.4906 54.7602C98.1459 56.8784 98.0954 59.952 96.0581 61.8022C95.8509 61.9235 95.4363 62.1611 95.2291 62.2825C94.3141 62.3179 92.4942 62.3886 91.5842 62.4291C90.7804 61.9589 90.0322 61.413 89.274 60.8872C87.995 58.7943 87.0142 56.474 86.9688 53.9817C88.1416 52.723 90.0878 53.0364 91.5792 53.5268L91.6752 53.9969C91.8269 55.1293 92.0038 56.2768 92.479 57.3233C92.9896 59.0522 95.6739 61.0136 96.7709 58.7438C99.3542 54.7653 98.9295 49.6241 98.1004 45.1754Z" fill="#393F3F"/>
<path d="M67.5564 45.9085C71.1659 48.1075 72.4398 52.8089 72.091 56.8127C71.3024 62.9548 63.3403 68.0859 58.3053 63.339C58.0626 61.6051 55.9192 60.321 56.6623 58.5214C57.7947 59.8812 59.0737 61.1653 60.7015 61.9286C63.8863 63.2632 67.4149 60.8923 68.3248 57.8288C68.7495 56.8683 69.0022 55.8421 69.1438 54.8058C69.4623 52.6472 68.9618 48.1277 66.3078 47.8042C66.6819 47.147 67.1267 46.5303 67.5564 45.9085Z" fill="#DAE3E5"/>
<path d="M99.4906 54.7603C99.1317 52.0456 99.2783 49.3107 99.4856 46.591C99.7636 47.7941 99.981 49.0125 100.138 50.2409C100.198 51.7271 100.856 53.6835 99.4906 54.7603Z" fill="#090A09"/>
<path d="M93.7579 47.5717C96.7001 45.681 95.6132 52.8847 92.9592 50.6453C93.1968 49.7707 93.4192 48.8961 93.6214 48.0165L93.7579 47.5717Z" fill="#A3D2E0"/>
<path d="M3.16254 47.5868L3.61246 47.5363C3.98655 47.5666 4.72967 47.6222 5.10376 47.6475C6.51924 47.8092 7.94482 47.9912 9.37546 48.0216C10.3107 48.0772 11.2459 48.1277 12.1811 48.1783C13.7634 48.4058 15.3558 48.5827 16.9584 48.5321C19.577 48.6383 22.1956 48.6231 24.8143 48.699C27.0638 49.0731 29.3488 49.0781 31.6186 49.0225C34.576 49.1084 37.5283 49.1236 40.4856 49.2197C44.9292 49.7505 49.4536 49.8971 53.8972 49.2904C54.7364 49.1539 55.5655 48.9568 56.3895 48.7546C57.1073 48.8304 57.8201 48.9618 58.5329 49.1135C58.3762 49.3713 58.0628 49.887 57.906 50.1448C55.9699 49.2803 53.8719 50.0791 51.8751 50.2964C47.2394 50.0588 42.5987 50.0791 37.958 50.2459C34.667 50.1144 31.3709 50.1549 28.08 50.0538C26.4926 49.8061 24.9052 49.619 23.3027 49.6949C16.9685 49.6847 10.6342 49.5078 4.32525 48.977C4.04215 48.8708 3.48102 48.6686 3.20298 48.5625C3.19287 48.3198 3.17265 47.8345 3.16254 47.5868Z" fill="#D2F2F7"/>
<path d="M5.1037 47.6475C6.53434 47.7132 7.94982 47.8649 9.3754 48.0216C7.94476 47.9912 6.51917 47.8093 5.1037 47.6475Z" fill="#7DB2C2"/>
<path d="M61.1869 47.6879C65.8276 46.601 68.3452 50.8727 69.1439 54.8057C69.0024 55.842 68.7496 56.8682 68.3249 57.8287C67.3291 56.484 69.3967 51.909 66.9246 52.1517C68.0671 56.0847 66.4697 61.5848 61.3335 60.781C63.2899 61.7264 62.7187 61.8578 60.7016 61.9286C59.0738 61.1652 57.7948 59.8812 56.6624 58.5213C56.5866 57.763 56.4602 57.0148 56.3339 56.2667C57.4157 56.0594 57.8252 55.0635 58.1942 54.1536C58.452 55.1191 59.5086 55.3567 60.2315 55.8825C60.9948 57.6215 64.3515 57.0806 64.9683 55.3416C65.7367 54.8562 66.5556 54.3204 66.4697 53.2841C66.0956 49.988 59.7462 49.2348 59.1648 52.4752C58.9019 52.8948 58.6391 53.3144 58.3812 53.734C57.532 51.3176 53.6242 54.0171 51.3494 53.5672C38.969 53.0262 26.5583 52.8291 14.1729 52.0303C14.4358 51.904 14.9615 51.6512 15.2244 51.5248C24.5261 52.0101 33.843 51.9495 43.1244 52.6521C47.9472 52.551 53.0075 53.2638 57.6179 51.4591C58.543 51.085 58.7351 50.0335 58.9879 49.1842C60.1657 49.1286 61.8845 49.4168 61.1869 47.6879Z" fill="#3A798F"/>
<path d="M12.1811 48.1783C13.7836 48.1126 15.376 48.2845 16.9583 48.5322C15.3558 48.5827 13.7634 48.4058 12.1811 48.1783Z" fill="#85BCCE"/>
<path d="M79.305 50.9335C83.5312 48.1227 88.7836 48.5221 93.6215 48.0166C93.4193 48.8962 93.1968 49.7707 92.9592 50.6453C92.3728 51.5401 91.7713 52.4551 91.5792 53.5268C90.0879 53.0365 88.1416 52.723 86.9688 53.9818C83.0762 53.8504 79.3656 55.5843 75.5944 56.383C72.7736 56.6004 74.2244 52.6674 73.5268 51.1357C74.6845 49.0023 77.5104 52.6826 79.305 50.9335Z" fill="#127686"/>
<path d="M1.72676 51.1558C-1.12946 49.7353 0.695488 48.0266 3.2029 48.5625C3.48094 48.6687 4.04208 48.8709 4.32517 48.977C3.6326 49.1995 2.40417 48.699 2.09074 49.5432C7.89419 50.0235 13.6572 50.8222 19.4859 50.9739C18.0553 51.075 16.5387 50.8626 15.2243 51.5249C14.9615 51.6513 14.4357 51.904 14.1728 52.0304C10.6392 52.0405 7.05502 50.625 3.56183 51.4844C2.94003 51.4238 2.32834 51.3126 1.72676 51.1558Z" fill="#628594"/>
<path d="M24.8143 48.699C27.0891 48.6282 29.3691 48.6232 31.6187 49.0225C29.3488 49.0782 27.0639 49.0731 24.8143 48.699Z" fill="#7EB2B9"/>
<path d="M2.09076 49.5432C2.40419 48.699 3.63262 49.1995 4.32519 48.9771C10.6342 49.5079 16.9684 49.6848 23.3027 49.6949C24.8799 49.9123 26.4774 50.1044 28.0799 50.0538C31.3709 50.1549 34.6669 50.1145 37.9579 50.2459C42.5632 50.6857 47.2798 51.0093 51.875 50.2965C53.8719 50.0791 55.9698 49.2804 57.906 50.1448C45.5408 53.6481 32.1898 50.5644 19.4859 50.9739C13.6572 50.8222 7.89421 50.0235 2.09076 49.5432Z" fill="#3C5867"/>
<path d="M40.4855 49.2197C44.9544 48.9719 49.4283 49.1084 53.8972 49.2904C49.4536 49.8971 44.9291 49.7505 40.4855 49.2197Z" fill="#8AC5CD"/>
<path d="M58.5329 49.1136L58.9878 49.1843C58.7351 50.0336 58.543 51.0851 57.6178 51.4592C53.0074 53.2639 47.9471 52.5511 43.1244 52.6522C33.8429 51.9496 24.5261 52.0102 15.2244 51.5249C16.5387 50.8627 18.0553 51.075 19.486 50.9739C32.1898 50.5644 45.5408 53.6481 57.906 50.1448C58.0627 49.887 58.3761 49.3714 58.5329 49.1136Z" fill="#81A6B9"/>
<path d="M23.3026 49.6949C24.9051 49.6191 26.4925 49.8061 28.0798 50.0538C26.4773 50.1044 24.8799 49.9123 23.3026 49.6949Z" fill="#8FABB4"/>
<path d="M37.9579 50.2459C42.5986 50.079 47.2394 50.0588 51.875 50.2964C47.2798 51.0092 42.5632 50.6857 37.9579 50.2459Z" fill="#93AABD"/>
<path d="M59.1647 52.4753C59.7461 49.2348 66.0955 49.9881 66.4696 53.2841C64.0279 53.8301 61.571 52.8443 59.1647 52.4753Z" fill="#87AECD"/>
<path d="M1.72681 51.1558C2.32839 51.3125 2.94007 51.4237 3.56187 51.4844C4.39599 51.5905 5.23517 51.7877 5.73564 52.5207C6.14511 54.4619 8.19755 55.0029 9.84557 55.5539C22.1501 57.4496 34.6366 58.1219 47.0776 57.581C49.9237 56.848 50.2271 59.5728 50.5607 61.6758C48.028 63.9355 44.459 62.6363 42.7807 60.0935C42.169 58.0512 39.8587 58.8297 38.1955 58.5769C35.4707 58.2332 32.7257 58.1624 29.9807 58.1776C28.5905 58.2332 27.0739 57.8439 25.8253 58.5769C25.4057 59.2139 25.1125 59.9267 24.7889 60.6142C22.8073 63.6878 19.6073 66.0385 15.9018 66.3671C14.9817 66.3924 13.1416 66.4429 12.2266 66.4682C8.98112 65.5633 5.56881 64.1327 3.7287 61.1551C2.72775 59.4515 1.73186 57.5962 1.64087 55.5842C1.70153 54.6389 1.70659 53.6885 1.65098 52.7482C1.6712 52.3488 1.70659 51.5501 1.72681 51.1558Z" fill="#06090B"/>
<path d="M3.56183 51.4845C7.05502 50.6251 10.6392 52.0406 14.1728 52.0305C26.5582 52.8292 38.9689 53.0263 51.3493 53.5673C39.3279 53.7947 27.3014 53.8453 15.3153 52.7938C12.1255 53.0162 8.86481 51.53 5.73559 52.5208C5.23512 51.7878 4.39595 51.5906 3.56183 51.4845Z" fill="#63A3B7"/>
<path d="M5.73566 52.5208C8.86487 51.5299 12.1255 53.0162 15.3154 52.7938C27.3014 53.8453 39.3279 53.7947 51.3493 53.5672C53.6242 54.0171 57.5319 51.3176 58.3812 53.734L58.1942 54.1536C57.8251 55.0636 57.4157 56.0595 56.3338 56.2667C55.6261 56.4285 54.9285 56.6054 54.2258 56.7824C51.8347 56.9644 49.4536 57.2727 47.0776 57.5811C34.6366 58.122 22.1501 57.4497 9.84559 55.5539C8.19757 55.0029 6.14513 54.462 5.73566 52.5208Z" fill="#127988"/>
<path d="M66.9246 52.1518C69.3967 51.9091 67.3291 56.4841 68.3249 57.8288C67.415 60.8923 63.8864 63.2632 60.7016 61.9286C62.7187 61.8579 63.2899 61.7264 61.3335 60.7811C66.4697 61.5849 68.0671 56.0848 66.9246 52.1518Z" fill="#3A97A8"/>
<path d="M58.3811 53.734C58.639 53.3144 58.9018 52.8948 59.1647 52.4752C61.571 52.8443 64.0279 53.83 66.4696 53.2841C66.5555 54.3204 65.7366 54.8563 64.9682 55.3416C63.0724 53.5115 62.0058 55.0585 60.2314 55.8825C59.5085 55.3567 58.4519 55.1191 58.1941 54.1536L58.3811 53.734Z" fill="#CEDCEA"/>
<path d="M60.2314 55.8825C62.0058 55.0585 63.0725 53.5116 64.9682 55.3416C64.3515 57.0807 60.9948 57.6216 60.2314 55.8825Z" fill="#6D6C79"/>
<path d="M91.6752 53.9969C92.206 54.8866 92.6913 55.8016 93.0856 56.7621C92.934 56.9037 92.6307 57.1817 92.479 57.3233C92.0038 56.2768 91.8269 55.1293 91.6752 53.9969Z" fill="#90B0BB"/>
<path d="M72.0911 56.8127C72.4248 55.1091 73.0567 56.1707 73.542 57.1767C73.4864 57.5356 73.3802 58.2585 73.3246 58.6174C72.0153 63.0913 68.6384 66.8828 64.0178 68C62.3951 67.9697 60.7926 67.9292 59.18 67.9191C55.3481 67.363 53.0884 64.2035 50.5607 61.6759C50.2271 59.5729 49.9238 56.8481 47.0776 57.5811C49.4536 57.2727 51.8346 56.9643 54.2258 56.7824C54.8375 59.3707 55.98 61.8629 58.3054 63.339C63.3404 68.0859 71.3025 62.9548 72.0911 56.8127Z" fill="#3F4141"/>
<path d="M54.2258 56.7823C54.9285 56.6054 55.6261 56.4284 56.3338 56.2667C56.4602 57.0148 56.5866 57.763 56.6624 58.5213C55.9193 60.321 58.0627 61.605 58.3054 63.339C55.9799 61.8628 54.8375 59.3706 54.2258 56.7823Z" fill="#AEBBC4"/>
</svg>
