<svg width="72" height="110" viewBox="0 0 72 110" fill="none" xmlns="http://www.w3.org/2000/svg">
<path d="M34.7679 0C33.228 0.482824 31.6945 1.05063 30.3246 1.91842C28.8233 1.51156 27.2397 1.18839 25.6856 1.46392C25.0097 1.57723 24.3916 1.95447 24.0221 2.53644C25.2298 2.64201 26.4646 2.72828 27.5989 3.19437C26.9693 3.18535 26.3384 3.13772 25.7075 3.17892C23.7028 3.30123 21.7625 4.09306 20.184 5.32652C18.4304 6.68358 17.166 8.60071 16.3922 10.6646C15.4781 13.0543 15.2798 15.659 15.5077 18.1915C15.4819 20.2555 15.5849 22.3168 15.7806 24.3704C15.6081 24.3974 15.433 24.4245 15.2605 24.4605C15.4484 24.4374 15.6364 24.4193 15.8231 24.4039C16.0265 25.9605 16.3549 27.5004 16.8145 29.0029C17.3643 30.7746 18.1484 32.4703 19.1192 34.0501C18.8424 32.0544 18.693 30.042 18.5347 28.0334C17.7132 24.9047 17.2922 21.664 17.3437 18.4284C17.2175 18.3203 17.0888 18.2147 16.96 18.1091C17.1119 17.9315 17.3411 17.786 17.3488 17.5285C17.4621 16.8757 17.4338 16.2087 17.5278 15.5534C17.7814 13.9556 18.2025 12.3667 18.9737 10.9363C19.6432 9.54962 20.7634 8.32518 22.208 7.73807C23.6243 7.12649 25.1873 6.93336 26.7182 6.95782C27.7148 6.91405 28.7474 7.11619 29.7066 6.75697C31.3546 6.20204 32.8623 5.32008 34.4679 4.66473C34.3237 4.27203 34.3494 3.85101 34.4048 3.44415C34.2026 3.65402 33.9387 3.77504 33.6812 3.9038C33.7211 3.30509 34.3121 2.99995 34.688 2.60983C34.7151 2.67034 34.7691 2.79008 34.7975 2.84931C34.7151 3.0154 34.634 3.18149 34.5528 3.34887C34.8052 3.33599 35.0576 3.31539 35.3086 3.28964C35.5584 3.54458 35.8095 3.79693 36.0515 4.05959C36.0284 4.11238 35.9807 4.21667 35.9575 4.26817C37.2953 4.15229 38.6511 4.0171 39.9849 4.25272C41.2248 4.48319 42.4519 4.84884 43.5578 5.463C45.1132 6.24582 46.5604 7.22563 47.9251 8.30329C48.6372 8.8814 49.4213 9.37838 50.0406 10.0659C51.471 11.4693 52.4083 13.2629 53.307 15.0319C54.0422 16.6504 54.5894 18.3551 54.9628 20.0919C55.1122 21.1065 55.228 22.1262 55.322 23.1472L55.3323 23.2799C55.4044 23.5142 55.483 23.7459 55.5551 23.9803C55.8254 23.7356 56.1048 23.5013 56.3752 23.258C56.4615 23.4369 56.5374 23.6211 56.5838 23.8142C56.7048 23.7833 56.8259 23.7537 56.9456 23.7253C57.0422 22.6515 57.0795 21.5739 57.113 20.4962C57.2095 18.3898 56.8851 16.2551 56.0907 14.298C55.8216 13.6131 55.7521 12.8702 55.4894 12.1826C54.6409 9.70541 52.8873 7.62219 50.7848 6.09775C48.8341 4.67117 46.6067 3.66818 44.3213 2.90853C43.6917 2.70124 43.0995 2.39996 42.4763 2.17464C40.7394 1.52444 38.8957 1.07638 37.0301 1.13689C35.9176 1.16779 34.8194 1.40341 33.7687 1.76392C33.7971 1.99696 33.8228 2.23129 33.8473 2.46562C34.0958 2.16434 34.4074 1.92615 34.6764 1.64675C34.7473 1.69954 34.8876 1.80641 34.9584 1.8592C34.5503 2.46562 34.0044 2.95746 33.4481 3.42612C33.3863 3.37977 33.2614 3.28707 33.1996 3.24072C33.264 3.09523 33.3297 2.95102 33.3928 2.80553C33.0439 2.82356 32.6576 2.83128 32.4735 2.47464C32.776 2.42056 33.0799 2.37163 33.3838 2.32013C33.3748 2.21971 33.3567 2.01627 33.3477 1.91456C33.5782 1.12788 34.0378 0.40686 34.7679 0ZM35.091 2.76948C34.8322 2.62013 34.7189 2.17078 35.1026 2.10898C35.4966 2.13988 35.382 2.6536 35.091 2.76948ZM25.9792 3.3978C23.5934 4.05959 21.2346 5.13983 19.4887 6.93851C18.3132 8.13463 17.5793 9.6655 16.8918 11.1745C16.3755 12.2509 16.024 13.4006 15.8334 14.58C16.0922 11.1925 17.5613 7.78957 20.2265 5.61106C21.8501 4.31323 23.8805 3.41582 25.9792 3.3978ZM49.3852 5.55956C52.0903 7.23593 54.4632 9.69511 55.416 12.7916C53.4242 9.00113 50.0946 6.06556 46.3814 4.01581C47.4256 4.4407 48.4273 4.9673 49.3852 5.55956Z" fill="#622D03"/>
<path d="M35.324 3.77249C35.0009 3.46477 34.4421 4.01712 34.7846 4.33256C35.1052 4.76389 35.8391 4.06991 35.324 3.77249Z" fill="#622D03"/>
<path d="M55.9181 25.3206C55.6992 25.4545 55.4585 25.5228 55.2113 25.4095C55.0027 27.0137 54.5649 28.5781 53.9688 30.0793C53.7358 31.8896 53.4203 33.6896 52.9967 35.4651C54.234 33.3239 55.3838 31.1055 56.0649 28.7171C56.1949 28.2678 56.3121 27.8133 56.4138 27.3562C56.3005 27.212 56.1834 27.0704 56.0675 26.9275C56.1756 26.7871 56.2851 26.6481 56.3932 26.509C56.24 26.3571 56.0778 26.2116 55.9619 26.0275C55.9233 25.7944 55.9258 25.5562 55.9181 25.3206Z" fill="#622D03"/>
<path d="M13.1102 28.0824C12.7961 28.6321 12.6274 29.254 12.5875 29.8836C12.5128 31.3527 12.7278 32.854 12.3377 34.2934C12.1806 35.0634 11.7364 35.7277 11.3257 36.3831C10.7283 37.2818 9.76781 37.811 8.88714 38.3852C8.75195 38.5938 8.66697 38.8294 8.58972 39.0663C8.15067 39.2118 7.80433 39.5208 7.50433 39.8633C7.93179 40.1491 8.46225 40.171 8.95409 40.2586C9.12147 40.0229 9.25666 39.6779 9.59271 39.6676C10.194 39.6792 10.7966 39.7809 11.3991 39.7152C11.3425 39.9856 11.3128 40.2959 11.0553 40.4607C11.0759 40.901 11.4403 41.174 11.6721 41.5113C11.1777 41.613 10.718 41.8242 10.2532 42.0135C9.88884 42.1757 9.4794 41.9993 9.18971 41.7663C8.9528 41.5293 8.80989 41.2191 8.62963 40.9409C7.99102 41.5615 7.20949 42.016 6.53611 42.6006C7.45412 42.8439 8.40689 42.8697 9.34936 42.9083C9.5927 42.8864 9.77554 43.0538 9.95064 43.1916C10.3974 43.0319 10.8377 42.8491 11.2485 42.6122C11.8858 42.2156 12.6789 42.2349 13.3227 41.8499C15.1973 40.8843 16.2467 38.9401 17.054 37.0796C16.9896 37.041 16.8621 36.9638 16.7977 36.9238C16.1372 38.4341 15.3609 39.9766 14.0295 41.0092C13.5815 41.371 13.0575 41.6208 12.5167 41.8139C14.2355 40.4684 15.5643 38.7071 16.7128 36.8672C15.3505 35.9312 14.2793 34.587 13.6227 33.0741C13.145 31.9527 12.9068 30.6433 13.3665 29.4768C13.36 29.2373 13.3407 28.9978 13.315 28.7609C13.2545 28.533 13.1811 28.3077 13.1102 28.0824Z" fill="#622D03"/>
<path d="M60.2713 34.4492C60.0473 33.5711 60.1116 32.6608 59.9726 31.7711C59.437 34.1157 57.8636 36.1153 55.9375 37.5032C55.9323 37.5329 55.9233 37.5921 55.9182 37.623C56.1396 38.6594 56.5619 39.6599 57.1825 40.5225C58.1803 41.9117 59.7292 42.822 61.3618 43.2637C62.0944 43.4825 62.8618 43.534 63.6021 43.7207C64.5794 43.9654 65.6416 43.9988 66.5931 43.6306C66.3626 43.5366 66.1283 43.4143 65.8708 43.4362C64.7493 43.4748 63.6086 43.4697 62.5129 43.1954C63.4605 43.1323 64.4068 43.0615 65.3545 42.9959C65.545 42.9894 65.7073 42.8851 65.8836 42.8298C65.012 42.0405 63.9691 41.4573 63.1489 40.6088C64.4043 40.2161 65.7394 40.1375 66.9729 39.674C65.7124 39.2903 64.376 39.0418 63.2532 38.3131C62.585 37.8818 61.8949 37.4376 61.4236 36.7822C60.9215 36.0728 60.431 35.3183 60.2713 34.4492ZM61.6554 43.028C60.6936 42.8014 59.7807 42.3765 58.9645 41.8216C57.5173 40.8379 56.5671 39.2324 56.2078 37.538C57.5881 39.7294 59.2941 41.8499 61.6554 43.028Z" fill="#622D03"/>
<path d="M34.9584 1.85923C34.8876 1.80644 34.7472 1.69958 34.6764 1.64679C34.4073 1.92618 34.0957 2.16438 33.8472 2.46566C33.8228 2.23133 33.797 1.997 33.7687 1.76396C33.6284 1.81417 33.488 1.8631 33.3477 1.9146C33.3567 2.01631 33.3747 2.21974 33.3837 2.32017C33.0799 2.37167 32.776 2.4206 32.4734 2.47467C32.6576 2.83132 33.0438 2.82359 33.3927 2.80557C33.3296 2.95106 33.264 3.09526 33.1996 3.24075C33.2614 3.28711 33.3863 3.37981 33.4481 3.42616C34.0043 2.9575 34.5502 2.46566 34.9584 1.85923Z" fill="#703D18"/>
<path d="M35.091 2.76951C35.382 2.65363 35.4966 2.13991 35.1026 2.10901C34.7189 2.17081 34.8322 2.62016 35.091 2.76951Z" fill="#6C3A13"/>
<path d="M34.688 2.60986C34.3121 2.99999 33.7211 3.30513 33.6812 3.90383C33.9387 3.77508 34.2026 3.65405 34.4048 3.44418C34.3494 3.85104 34.3236 4.27207 34.4678 4.66476C34.5721 4.71626 34.6751 4.76777 34.7769 4.82056C34.6648 4.98278 34.5528 5.1463 34.4395 5.30853C34.4833 5.37419 34.5721 5.50424 34.6172 5.56861C34.9198 5.26733 35.2545 4.99952 35.5455 4.68794C35.794 4.98278 36.0425 5.27763 36.2511 5.60338C35.9382 5.46432 35.6936 5.1669 35.3331 5.14888C35.3962 5.55445 35.6781 5.83771 36.0283 6.02311C36.0348 6.06174 36.0489 6.14156 36.0554 6.18148C36.291 6.15315 36.5253 6.1274 36.7609 6.11324C37.2167 6.11195 37.6725 6.11452 38.1283 6.09264C37.9712 5.92397 37.8489 5.70509 37.6377 5.59822C37.4137 5.54672 37.1807 5.59307 36.9528 5.60209C36.9566 5.28278 37.0751 4.87592 36.77 4.65318C36.5266 4.424 36.1725 4.47807 35.8674 4.46648C35.8893 4.41756 35.9343 4.31842 35.9575 4.2682C35.9807 4.2167 36.0283 4.11241 36.0515 4.05962C35.8095 3.79697 35.5584 3.54461 35.3086 3.28968C35.0575 3.31543 34.8052 3.33603 34.5528 3.34891C34.6339 3.18153 34.715 3.01544 34.7975 2.84934C34.7691 2.79012 34.7151 2.67038 34.688 2.60986ZM35.3241 3.7725C35.8391 4.06992 35.1052 4.7639 34.7846 4.33258C34.4421 4.01713 35.0009 3.46478 35.3241 3.7725Z" fill="#7C4519"/>
<path d="M39.9849 4.25278C38.6511 4.01716 37.2953 4.15235 35.9575 4.26823C35.9344 4.31844 35.8893 4.41758 35.8674 4.46651C36.1726 4.47809 36.5266 4.42402 36.77 4.6532C37.0751 4.87594 36.9567 5.2828 36.9528 5.60211C37.1807 5.5931 37.4137 5.54674 37.6378 5.59825C37.8489 5.70511 37.9712 5.92399 38.1283 6.09266C41.2712 6.4493 44.1797 7.85787 46.8192 9.53552C47.8196 10.1497 48.7698 10.8411 49.6955 11.5608C49.9852 11.79 50.3277 11.996 50.4513 12.3668C49.4895 12.332 48.5934 11.9484 47.6445 11.8338C48.5715 12.52 49.6105 13.102 50.3058 14.0509C49.3595 14.0097 48.4814 13.6093 47.5415 13.5282C48.0063 13.9827 48.5354 14.3663 48.9861 14.8363C50.5311 16.4019 51.838 18.2225 52.7444 20.2285C51.5521 19.0839 50.029 18.3873 48.5367 17.7242C47.0651 17.186 45.7479 16.3234 44.3638 15.6011C43.5269 15.1337 42.6566 14.7191 41.8686 14.1693C42.9952 14.3779 44.0458 14.9264 45.2033 14.9831C44.7243 14.526 44.0844 14.3226 43.5115 14.0187C41.7604 13.1277 40.0519 12.1286 38.5184 10.8926C38.3266 10.7419 38.1837 10.5424 38.0163 10.3673C39.5034 10.4407 40.9261 10.899 42.3257 11.3638C42.0978 11.1462 41.8634 10.9325 41.6072 10.7471C41.0214 10.3158 40.3506 10.0222 39.7622 9.59475C38.9446 9.08102 38.0292 8.73339 37.2412 8.17073C37.6751 8.18361 38.1103 8.28018 38.5429 8.22867C38.8159 8.08576 38.9845 7.81409 39.1867 7.59392C38.9884 7.53083 38.7991 7.40465 38.5854 7.40337C38.333 7.56817 38.0665 7.71624 37.8257 7.90164C37.894 7.69435 37.9622 7.48577 38.0343 7.28105C37.7845 7.23599 37.5348 7.18835 37.2824 7.14972C37.2193 7.13942 37.0906 7.12011 37.0262 7.1111C36.0837 6.9759 35.1335 6.90509 34.1885 6.79308C34.755 6.44544 35.3936 6.23686 36.0554 6.1815C36.049 6.14158 36.0348 6.06176 36.0284 6.02313C35.6781 5.83773 35.3962 5.55447 35.3331 5.1489C35.6936 5.16692 35.9382 5.46434 36.2511 5.6034C36.0425 5.27765 35.794 4.98281 35.5455 4.68796C35.2545 4.99954 34.9198 5.26735 34.6172 5.56863C34.5722 5.50426 34.4833 5.37422 34.4395 5.30855C34.5528 5.14632 34.6649 4.98281 34.7769 4.82058C34.6752 4.76779 34.5722 4.71629 34.4679 4.66479C32.8623 5.32014 31.3546 6.2021 29.7066 6.75702C28.7474 7.11625 27.7148 6.9141 26.7182 6.95788C25.1873 6.93342 23.6243 7.12655 22.208 7.73812C20.7634 8.32524 19.6432 9.54968 18.9737 10.9364C18.2025 12.3668 17.7814 13.9556 17.5278 15.5534C17.4338 16.2088 17.4621 16.8757 17.3488 17.5285C17.3411 17.786 17.1119 17.9315 16.96 18.1092C17.2433 18.0319 17.5278 17.9663 17.8136 17.9083C17.8381 17.6058 17.8677 17.3032 17.9038 17.0032C18.1922 17.2594 18.2501 17.6341 18.2733 18.001C18.5308 17.7178 18.8334 17.4835 19.1269 17.2414C19.1887 17.2942 19.3123 17.3985 19.3741 17.4513C18.9595 18.0513 18.4123 18.5392 17.8355 18.9809C17.7879 18.9371 17.69 18.8495 17.6424 18.8058C17.7016 18.6435 17.7621 18.4826 17.8214 18.3216C17.663 18.3577 17.5033 18.3925 17.3437 18.4285C17.2922 21.6641 17.7132 24.9048 18.5347 28.0335C18.6789 28.4828 18.8334 28.9399 19.1321 29.312C19.2917 28.1429 19.4076 26.9185 20.0024 25.873C21.4767 23.6971 23.3384 21.8263 24.9942 19.7933C26.6281 17.7963 28.0663 15.547 28.6212 12.9925C30.6799 15.9423 33.779 18.359 37.4073 18.8946C35.888 17.4281 34.3494 15.9719 32.9692 14.3715C32.6331 13.9685 32.2688 13.5629 32.1452 13.0376C32.8494 13.4728 33.4572 14.0406 34.137 14.5118C37.6854 17.0534 41.736 18.8057 45.8728 20.1461C47.6882 20.6572 49.3556 21.6113 50.8092 22.801C51.3873 23.3005 51.9873 23.8348 52.2822 24.5597C52.5899 25.3078 52.7624 26.1086 52.7894 26.9172C52.8538 28.5562 52.8049 30.1965 52.8989 31.8343C53.3572 31.3154 53.6663 30.6948 53.9688 30.0794C54.565 28.5781 55.0027 27.0138 55.2113 25.4095C55.2293 25.2717 55.2448 25.134 55.2576 24.9962C55.1907 25.0323 55.0581 25.1044 54.9911 25.1404C54.8405 24.946 54.883 24.722 54.9667 24.5108C54.6203 24.4838 54.2791 24.3949 54.0216 24.1477C54.3602 24.0846 54.6989 24.0267 55.0388 23.9726C55.0555 23.6958 55.0748 23.4203 55.0954 23.1447C55.1521 23.146 55.2654 23.1473 55.322 23.1473C55.228 22.1263 55.1122 21.1066 54.9628 20.092C54.5894 18.3551 54.0422 16.6504 53.307 15.032C52.4083 13.2629 51.471 11.4694 50.0406 10.066C49.4213 9.37844 48.6372 8.88145 47.9251 8.30335C46.5604 7.22569 45.1132 6.24587 43.5578 5.46305C42.4519 4.8489 41.2248 4.48324 39.9849 4.25278ZM27.9929 14.2736C27.2358 16.4148 25.8942 18.2894 24.4457 20.0147C23.238 21.4336 21.9865 22.8164 20.7943 24.2469C21.0698 23.7228 21.4123 23.2374 21.7432 22.7495C21.3402 22.613 20.9179 22.3774 20.8831 21.901C21.026 21.8598 21.1599 21.7993 21.2848 21.722C21.2475 21.6345 21.2089 21.5482 21.1689 21.4619C20.7801 21.5443 20.2703 21.686 19.9999 21.2894C19.893 21.1491 19.6574 20.8207 19.9072 20.7203C20.2175 20.7473 20.3308 21.2018 20.6848 21.1426C20.475 20.8916 20.2754 20.6289 20.0398 20.3997C20.2393 20.2478 20.4183 20.0315 20.6835 20.0083C20.9475 19.9838 21.1406 20.2092 21.2977 20.3881C21.5153 20.616 21.375 20.9405 21.3505 21.2121C21.823 21.028 22.2595 21.2508 22.6071 21.5675C24.4457 19.1701 26.4285 16.8693 27.9929 14.2736ZM19.096 18.18C19.1424 18.2405 19.2338 18.3616 19.2801 18.4221C19.1939 18.5894 19.1076 18.7581 19.0201 18.9268C19.2531 18.901 19.4939 18.8083 19.7256 18.8688C20.0539 19.0761 20.2857 19.3929 20.5342 19.6838C20.0205 20.1525 19.5776 20.6933 19.0419 21.1388C18.9866 21.0731 18.8771 20.9431 18.8231 20.8787C18.9557 20.7164 19.0806 20.5504 19.2016 20.383C19.06 20.28 18.9106 20.1847 18.7819 20.065C18.6698 19.7894 18.7265 19.4766 18.7123 19.1856C18.5385 19.2911 18.3608 19.3916 18.1819 19.4907C18.1548 19.4225 18.0995 19.286 18.0724 19.2165C18.3518 18.8148 18.7368 18.5058 19.096 18.18Z" fill="#733504"/>
<path d="M41.2776 8.51062C40.8875 8.20033 40.4987 7.82823 39.985 7.74969C39.8601 7.81021 39.7905 7.93767 39.6966 8.03681C39.421 7.9763 39.1983 8.09218 39.0734 8.34067C39.797 8.49775 40.5399 8.52865 41.2776 8.51062Z" fill="#733504"/>
<path d="M13.3691 26.6133C12.2876 26.6545 11.1906 26.8773 10.2584 27.4502C8.69791 28.4133 7.14901 29.5785 6.31083 31.2574C5.63616 32.6209 5.31042 34.1196 4.79798 35.5449C5.15205 35.6067 5.48681 35.7458 5.7868 35.9428C6.30053 33.9201 6.81683 31.8394 7.97818 30.0755C8.73139 28.9154 9.7936 27.9099 11.1107 27.436C11.2434 28.7274 11.1481 30.0291 11.0039 31.3154C10.8185 33.5505 9.46914 35.496 7.92668 37.0397C8.00393 36.5247 8.1314 35.9943 8.00007 35.478C7.91252 35.0788 7.70136 34.7261 7.5018 34.3758C7.07562 35.0711 6.81554 35.8475 6.45632 36.5762C6.7267 36.9277 7.08463 37.3642 6.83228 37.8277C6.64945 38.2784 6.12285 38.299 5.70955 38.2423C5.66449 38.2359 5.57565 38.2204 5.53058 38.2127C5.48037 37.9346 5.50097 37.6513 5.5396 37.3745C5.51385 37.3243 5.46235 37.2252 5.4366 37.1762C5.07094 37.1183 4.70141 37.0964 4.33189 37.0616C4.14262 37.605 3.95979 38.2603 3.39456 38.5307C2.44308 38.9067 1.42979 38.2397 0.48088 38.5835C0.523368 38.8603 0.592899 39.1384 0.798904 39.3419C2.18171 40.8843 4.25721 41.7779 6.334 41.6581C5.66191 41.8062 5.00012 41.9929 4.34734 42.2118C4.79927 42.8066 5.41985 43.274 6.1383 43.4877C7.39364 43.8791 8.74427 43.6332 9.95068 43.1916C9.77558 43.0538 9.59274 42.8864 9.3494 42.9083C8.40693 42.8697 7.45416 42.8439 6.53615 42.6006C7.20953 42.0161 7.99106 41.5616 8.62967 40.941C8.74813 40.7169 8.84469 40.4839 8.95413 40.2586C8.46229 40.171 7.93183 40.1491 7.50437 39.8633C7.43613 39.7603 7.36789 39.6573 7.29836 39.5543C7.55458 39.3277 7.74771 39.0444 7.97689 38.7959C7.852 38.7045 7.72196 38.617 7.59192 38.532C7.34214 38.7341 7.12455 39.0122 6.80781 39.1075C6.69966 39.0509 6.59151 38.9904 6.48336 38.9273C6.69452 38.6917 6.92112 38.4663 7.08849 38.1985C7.13485 37.9655 7.07562 37.7286 7.05374 37.4968C7.17476 37.5084 7.29579 37.5213 7.41424 37.5354C7.61252 37.941 7.90866 38.2861 8.29105 38.5281C8.31552 38.4766 8.36444 38.3723 8.3902 38.3208C8.35672 38.1354 8.14299 37.9178 8.34899 37.7659C8.6992 37.7569 8.80478 38.1135 8.88718 38.3852C9.76785 37.811 10.7284 37.2818 11.3258 36.3831C11.7365 35.7278 12.1807 35.0634 12.3378 34.2934C12.7279 32.854 12.5129 31.3527 12.5875 29.8836C12.6275 29.254 12.7961 28.6322 13.1103 28.0824C13.1811 28.3077 13.2545 28.533 13.315 28.7609C13.2468 28.0463 13.2622 27.3227 13.3691 26.6133Z" fill="#733504"/>
<path d="M62.5464 27.6833C61.6078 27.0627 60.4838 26.791 59.3688 26.7369C59.4846 27.4386 59.464 28.1481 59.3958 28.8524C59.4409 28.9142 59.5323 29.0352 59.5786 29.097C60.0614 28.9 59.8992 28.3811 59.8748 27.9743C60.2056 28.0618 60.3975 28.3515 60.6138 28.5936C60.3885 28.9116 60.1232 29.2013 59.8142 29.4408C59.8722 29.6159 59.9211 29.7923 59.9687 29.9712C60.2211 29.836 60.5365 29.7356 60.655 29.4472C60.6653 29.2554 60.6498 29.0622 60.655 28.8704C60.8172 28.7532 61.0232 28.927 61.197 28.9476C61.1906 28.7107 61.0722 28.4365 61.2382 28.2292C61.4777 28.3399 61.7597 28.609 61.6438 28.8948C61.5666 29.1433 61.4726 29.3867 61.3812 29.63C60.9331 29.7073 60.6112 30.0407 60.3112 30.3575C60.2108 30.2957 60.1104 30.2352 60.0087 30.1759C60.0911 30.7064 60.0305 31.2407 59.9726 31.7712C60.1117 32.6609 60.0473 33.5712 60.2713 34.4493C60.431 35.3183 60.9215 36.0728 61.4237 36.7823C61.8949 37.4376 62.585 37.8818 63.2532 38.3131C64.376 39.0419 65.7124 39.2904 66.9729 39.6741C65.7395 40.1376 64.4043 40.2161 63.1489 40.6088C63.9691 41.4573 65.012 42.0405 65.8837 42.8298C65.7073 42.8852 65.545 42.9895 65.3545 42.9959C64.4069 43.0616 63.4605 43.1324 62.5129 43.1955C63.6086 43.4697 64.7493 43.4749 65.8708 43.4362C66.1283 43.4143 66.3626 43.5367 66.5931 43.6306C67.1944 43.4092 67.7004 42.992 68.0892 42.4886C67.4519 42.2697 66.8068 42.0753 66.1553 41.9079C68.2437 42.0573 70.3437 41.1792 71.7458 39.6367C71.9132 39.4397 72.1681 39.0457 71.8436 38.8706C70.9553 38.6556 70.0231 39.2105 69.1488 38.841C68.6853 38.6543 68.4871 38.1548 68.33 37.7196C68.0274 36.7939 67.7956 35.8488 67.4918 34.9244C67.0334 33.4759 66.7193 31.9399 65.8502 30.6652C65.0056 29.424 63.794 28.4918 62.5464 27.6833ZM62.4575 28.8562C62.9211 29.3622 63.391 29.8618 63.8352 30.3845C63.9047 30.494 64.0451 30.5957 64.0335 30.7373C64.6566 31.524 65.1086 32.4356 65.5077 33.3536C65.9738 34.4325 66.1772 35.5964 66.4772 36.7269C66.6214 37.2857 66.8248 37.8303 66.9034 38.4046C66.1463 37.4453 65.5412 36.3715 64.7635 35.4291C64.7584 35.8952 64.8034 36.3715 64.6747 36.8273C64.3386 36.8904 64.1725 36.5042 64.0026 36.2814C63.3717 35.1355 62.8914 33.9046 62.5387 32.6454L62.5142 32.4948C61.7932 32.3596 61.3773 31.5394 61.6181 30.8661C61.667 30.8596 61.7648 30.848 61.8138 30.8416C61.8949 30.4849 62.0687 30.1631 62.2734 29.8631C62.3172 29.527 62.2631 29.1536 62.4575 28.8562Z" fill="#733504"/>
<path d="M46.8192 9.53551C44.1797 7.85786 41.2712 6.4493 38.1283 6.09265C38.0948 6.5935 37.8296 7.08534 37.2824 7.14972C37.5348 7.18834 37.7846 7.23598 38.0343 7.28104C37.9622 7.48576 37.894 7.69434 37.8258 7.90163C38.0665 7.71623 38.333 7.56816 38.5854 7.40336C38.7991 7.40465 38.9884 7.53083 39.1867 7.59391C38.9845 7.81408 38.8159 8.08575 38.5429 8.22867C38.1103 8.28017 37.6751 8.1836 37.2412 8.17073C38.0292 8.73338 38.9446 9.08101 39.7622 9.59474C39.9888 9.25097 40.106 8.63295 40.6249 8.66257C41.2699 8.66385 41.9072 8.45012 42.551 8.5763C42.475 8.92651 42.4338 9.28444 42.3154 9.62564C42.5343 9.83679 42.6965 10.0956 42.8471 10.3595C42.421 10.4458 42.0167 10.6055 41.6072 10.7471C41.8635 10.9325 42.0978 11.1462 42.3257 11.3638C40.9261 10.899 39.5034 10.4406 38.0163 10.3673C38.1837 10.5424 38.3266 10.7419 38.5184 10.8926C40.0519 12.1286 41.7605 13.1277 43.5115 14.0187C44.0844 14.3226 44.7244 14.526 45.2033 14.9831C44.0458 14.9264 42.9952 14.3779 41.8686 14.1693C42.6566 14.7191 43.5269 15.1337 44.3638 15.6011C45.7479 16.3234 47.0651 17.186 48.5367 17.7242C50.029 18.3873 51.5521 19.0838 52.7444 20.2285C51.838 18.2225 50.5311 16.4019 48.9861 14.8363C48.5354 14.3663 48.0063 13.9826 47.5415 13.5281C48.4814 13.6093 49.3595 14.0097 50.3058 14.0509C49.6105 13.102 48.5715 12.52 47.6445 11.8338C48.5934 11.9483 49.4895 12.332 50.4513 12.3668C50.3277 11.996 49.9852 11.79 49.6955 11.5608C48.7698 10.8411 47.8196 10.1497 46.8192 9.53551ZM41.2776 8.51064C40.5399 8.52866 39.797 8.49776 39.0734 8.34068C39.1983 8.09219 39.421 7.97631 39.6965 8.03683C39.7905 7.93769 39.8601 7.81022 39.9849 7.74971C40.4987 7.82825 40.8875 8.20034 41.2776 8.51064Z" fill="#8A5126"/>
<path d="M11.1107 27.4361C9.79358 27.9099 8.73137 28.9154 7.97817 30.0755C6.81681 31.8394 6.30051 33.9201 5.78679 35.9428L5.76747 36.0471C5.80738 36.2621 5.85761 36.4732 5.90396 36.687C6.06232 36.7063 6.2194 36.7256 6.37519 36.7462C6.39579 36.7037 6.43699 36.6187 6.45631 36.5763C6.81553 35.8475 7.07561 35.0711 7.50178 34.3759C7.70135 34.7261 7.9125 35.0789 8.00005 35.478C8.13138 35.9943 8.00392 36.5248 7.92666 37.0398C9.46913 35.496 10.8185 33.5506 11.0039 31.3154C11.1481 30.0292 11.2433 28.7275 11.1107 27.4361Z" fill="#8A5126"/>
<path d="M65.5076 33.3536C65.1085 32.4356 64.6566 31.524 64.0334 30.7373C63.9987 31.0463 63.96 31.3566 63.9098 31.6643C63.9922 31.6103 64.0759 31.5562 64.157 31.5021C64.2562 31.6695 64.3566 31.8343 64.4583 32.0004C63.7991 32.1562 63.1798 32.433 62.5386 32.6454C62.8914 33.9046 63.3716 35.1355 64.0025 36.2814C64.1725 36.5042 64.3386 36.8904 64.6746 36.8273C64.8034 36.3715 64.7583 35.8952 64.7634 35.4291C65.5411 36.3715 66.1463 37.4453 66.9033 38.4046C66.8248 37.8303 66.6214 37.2857 66.4771 36.7269C66.1772 35.5964 65.9737 34.4325 65.5076 33.3536Z" fill="#8A5126"/>
<path d="M38.1283 6.09265C37.6725 6.11454 37.2167 6.11196 36.7609 6.11325C36.6425 6.24458 36.4442 6.36046 36.5047 6.57033C36.6335 6.78921 36.8305 6.95401 37.0262 7.11109C37.0905 7.1201 37.2193 7.13942 37.2824 7.14972C37.8296 7.08534 38.0948 6.5935 38.1283 6.09265Z" fill="#935E36"/>
<path d="M36.761 6.11319C36.5253 6.12735 36.291 6.1531 36.0554 6.18143C35.3936 6.23679 34.755 6.44537 34.1885 6.79301C35.1335 6.90502 36.0837 6.97584 37.0262 7.11103C36.8305 6.95395 36.6335 6.78914 36.5047 6.57026C36.4442 6.3604 36.6425 6.24452 36.761 6.11319Z" fill="#8A5124"/>
<path d="M42.551 8.57625C41.9072 8.45007 41.2699 8.6638 40.6248 8.66252C40.106 8.6329 39.9888 9.25092 39.7622 9.59469C40.3506 10.0221 41.0214 10.3157 41.6072 10.747C42.0166 10.6054 42.4209 10.4457 42.8471 10.3595C42.6965 10.0955 42.5342 9.83674 42.3154 9.62559C42.4338 9.28439 42.475 8.92646 42.551 8.57625Z" fill="#935E34"/>
<path d="M34.137 14.5118C33.4571 14.0406 32.8494 13.4728 32.1451 13.0376C32.2688 13.5629 32.6331 13.9685 32.9692 14.3715C34.3494 15.9719 35.888 17.4281 37.4073 18.8946C33.779 18.359 30.6799 15.9423 28.6212 12.9925C28.0662 15.547 26.6281 17.7963 24.9942 19.7933C23.3384 21.8263 21.4767 23.6971 20.0024 25.873C19.4076 26.9185 19.2917 28.1429 19.1321 29.312C18.8334 28.9399 18.6788 28.4828 18.5346 28.0335C18.693 30.042 18.8424 32.0544 19.1192 34.0501C19.2479 34.811 19.3973 35.572 19.6664 36.2981C20.3153 38.0595 20.7337 39.9882 21.9852 41.4483C22.5054 42.0895 22.9985 42.7551 23.5856 43.3371C25.0212 44.783 26.9834 45.4988 28.898 46.0576C29.1207 45.8632 29.3242 45.6495 29.5405 45.4499C28.7319 44.9156 27.7289 44.8499 26.8637 44.4392C26.0757 44.0761 25.4049 43.5096 24.7702 42.9264C23.5328 41.7302 22.6985 40.1968 21.9736 38.653C21.2629 37.1234 20.6372 35.5552 20.0655 33.9677C19.8917 33.5325 19.8621 33.0587 19.8853 32.5939C19.9278 31.5896 19.7179 30.5416 20.108 29.5798C21.026 27.1708 22.7616 25.2189 24.1946 23.1151C25.4654 21.5701 26.6216 19.9375 27.7663 18.2984C28.3456 17.4976 28.7873 16.6053 29.3976 15.8264C31.101 17.4538 33.3374 18.3332 35.4876 19.201C36.4764 19.5667 37.4523 19.9851 38.485 20.2156C38.3047 19.4057 37.9171 18.6667 37.6609 17.8813C39.4467 18.7079 41.2081 19.6079 43.0866 20.2181C45.063 20.7576 46.9492 21.6357 48.6423 22.7881C49.4521 23.3301 50.1925 23.9803 50.8221 24.7245C51.4452 25.4584 51.7414 26.4035 51.9113 27.3356C52.2165 29.2953 52.1598 31.2909 52.0234 33.2621C52.2783 33.0677 52.5409 32.8836 52.7984 32.693C52.819 33.181 52.7585 33.6703 52.595 34.1338C51.9899 35.9454 51.2315 37.7015 50.4049 39.4204C49.5204 41.0839 48.5213 42.7371 47.0625 43.9641C47.2183 44.1328 47.3651 44.3092 47.4887 44.5023C49.8487 42.7706 51.5972 40.2547 52.4199 37.4466C52.6092 36.7848 52.8062 36.1256 52.9967 35.4651C53.4203 33.6896 53.7358 31.8896 53.9688 30.0794C53.6662 30.6948 53.3572 31.3154 52.8989 31.8343C52.8049 30.1965 52.8538 28.5562 52.7894 26.9172C52.7624 26.1086 52.5899 25.3078 52.2821 24.5597C51.9873 23.8348 51.3873 23.3005 50.8092 22.8009C49.3556 21.6113 47.6882 20.6572 45.8728 20.146C41.736 18.8057 37.6854 17.0534 34.137 14.5118Z" fill="#ED9F7B"/>
<path d="M27.9929 14.2736C26.4285 16.8693 24.4457 19.1701 22.6071 21.5675C22.3084 21.9537 22.0187 22.3464 21.7432 22.7494C21.4123 23.2374 21.0698 23.7228 20.7943 24.2468C21.9865 22.8164 23.238 21.4336 24.4457 20.0147C25.8942 18.2894 27.2358 16.4148 27.9929 14.2736Z" fill="#EB9F7A"/>
<path d="M35.4876 19.201C33.3374 18.3332 31.1009 17.4538 29.3975 15.8264C28.7872 16.6053 28.3456 17.4976 27.7662 18.2984C26.6216 19.9374 25.4654 21.57 24.1946 23.1151C22.7616 25.2189 21.026 27.1708 20.108 29.5798C19.7179 30.5416 19.9277 31.5896 19.8852 32.5939C19.8621 33.0587 19.8917 33.5325 20.0655 33.9677C20.6372 35.5552 21.2629 37.1234 21.9736 38.653C22.6985 40.1968 23.5328 41.7302 24.7701 42.9263C25.4049 43.5096 26.0757 44.0761 26.8637 44.4392C27.7289 44.8499 28.7319 44.9156 29.5404 45.4499C29.3241 45.6495 29.1207 45.8632 28.898 46.0576C28.6714 46.5263 28.4641 47.0194 28.3842 47.537C28.4473 47.4713 28.5104 47.4069 28.5709 47.3426C28.7151 47.9554 29.3344 48.3996 29.9589 48.2078C30.6799 47.9812 31.4396 48.0391 32.1541 48.258C31.3095 48.379 30.4366 48.2528 29.6087 48.4988C29.1426 48.6404 28.6778 48.8001 28.2388 49.0151C28.0147 49.1309 27.7997 49.2636 27.5834 49.3962C27.2152 49.7734 26.8431 50.1507 26.4877 50.5421C26.3474 50.7069 26.2148 50.8794 26.0886 51.0584C25.5903 51.782 25.15 52.5481 24.8152 53.3618C24.6813 53.6785 24.5397 53.9914 24.4122 54.312C24.0466 55.3896 23.6809 56.4699 23.4118 57.5772C23.3577 57.8063 23.2766 58.0329 23.1466 58.2338C23.0011 58.4153 22.8517 58.5956 22.7062 58.7784C22.1874 59.426 21.6556 60.0634 21.0582 60.6389C20.641 61.2531 19.9857 61.6367 19.5531 62.238C18.7226 63.0504 17.8715 63.8539 16.9175 64.5234C16.5596 64.9354 16.1617 65.3101 15.742 65.6603C14.4725 66.7495 13.427 68.0551 12.3545 69.3297C11.9695 69.8538 11.5832 70.3791 11.2433 70.9353C10.5635 72.0503 9.97254 73.2181 9.44207 74.4104C8.71333 76.1292 8.11076 77.9729 8.23179 79.863C8.28201 80.9974 8.78285 82.1446 9.71116 82.8282C10.4232 83.3626 11.3038 83.6098 12.1781 83.6973C13.6626 83.8853 15.2128 83.4578 16.3703 82.5038C17.9836 81.2124 19.1256 79.4523 20.2741 77.7618C20.905 76.7189 21.5835 75.7056 22.1989 74.6537C22.3547 74.3795 22.5208 74.1116 22.6805 73.8413C23.2521 72.8318 23.8586 71.8417 24.3993 70.8156C24.541 70.5349 24.6955 70.2606 24.8461 69.9864C25.4332 68.8598 26.0345 67.7396 26.5727 66.5899C26.677 66.3349 26.7954 66.0839 26.9113 65.8367C27.2744 65.0358 27.6658 64.2466 27.9336 63.4097C27.21 63.4638 26.2907 63.5487 25.8053 62.8882C26.6435 62.7337 27.4855 62.3912 28.007 61.6857C28.2091 61.3522 28.3624 60.984 28.4486 60.6054C28.4551 60.3273 28.3186 60.0672 28.3224 59.7904C28.4486 58.8647 29.1645 58.0523 30.0838 57.8591C31.616 57.5475 33.1172 58.3407 34.6494 58.0175C34.6481 58.0806 34.6442 58.2042 34.6429 58.2673C34.858 58.078 35.1296 57.8913 35.1721 57.5849C35.212 57.2463 35.1837 56.9051 35.1798 56.5664C34.8515 56.3823 34.5361 56.1673 34.1807 56.0373C32.6563 55.5055 31.0803 55.1399 29.5495 54.6326C30.1868 54.5733 30.8344 54.6042 31.446 54.8025C32.7979 55.2197 34.1923 55.4952 35.5236 55.9793C35.9704 56.139 36.4519 56.0875 36.9154 56.0875C37.218 55.5467 37.3455 54.8991 37.1845 54.2927C37.0081 54.0236 36.7107 53.8678 36.4609 53.6759C36.5614 53.5961 36.6592 53.515 36.7571 53.4352C35.9137 53.7467 35.2056 53.0644 34.4717 52.7734C33.2099 52.2532 31.8876 51.8914 30.5653 51.5618C31.3417 51.4807 32.1129 51.6468 32.8623 51.8386C33.8962 52.1116 34.7949 52.7785 35.8584 52.9523C36.4172 53.0862 36.8588 52.6124 37.4021 52.6214C37.5219 52.2249 37.7485 51.7369 37.4652 51.3622C37.1047 50.8665 36.6283 50.4674 36.1429 50.0992C35.5648 49.6781 34.903 49.3962 34.3236 48.9777C34.4665 48.8503 34.6095 48.7228 34.7472 48.5928C34.818 48.1344 34.9764 47.6464 34.7962 47.1958C34.6043 46.87 34.3198 46.6125 34.0455 46.3563C33.4198 46.0731 32.7799 45.8207 32.1194 45.6289C31.8915 45.5735 31.6649 45.5143 31.437 45.4538C30.8254 45.2194 30.1816 45.3765 29.5636 45.4988L29.543 45.3945C29.4658 43.8315 29.3332 42.2633 29.3679 40.6963C29.6035 40.1362 30.3374 40.0783 30.8434 39.8787C33.4558 39.2646 36.1609 39.1822 38.8326 39.2234C39.8639 39.2285 40.8913 39.3315 41.9123 39.4629C41.8583 38.8642 41.8673 38.2011 42.2922 37.726C43.1059 36.7964 44.4423 36.4655 45.6359 36.6316C46.4908 36.7591 47.3676 37.1093 47.9213 37.7994C48.2882 38.3363 48.4775 39.0933 48.1182 39.683C47.8208 40.3268 47.1912 40.7259 46.5423 40.9538C45.8277 41.2332 45.0475 41.192 44.2943 41.2306C44.3136 42.0984 44.3187 42.9675 44.4295 43.8289C44.1874 43.9293 43.9441 44.0297 43.6969 44.1212C43.1355 44.3117 42.5175 44.4263 42.0553 44.8254C41.7269 45.092 41.5003 45.4641 41.3767 45.8658C41.3999 46.1091 41.4308 46.3537 41.4849 46.5932C41.5119 46.6241 41.5634 46.6872 41.5892 46.7194C42.072 46.7181 42.5561 46.731 43.0389 46.7052C43.8295 46.6293 44.6007 46.404 45.3951 46.3615C45.9037 46.2997 46.3015 46.7838 46.8153 46.6833C47.365 46.6782 47.6805 46.1889 47.9702 45.7962C47.9045 45.3366 47.759 44.8834 47.4886 44.5023C47.365 44.3091 47.2183 44.1327 47.0625 43.9641C48.5212 42.7371 49.5204 41.0839 50.4049 39.4204C51.2315 37.7015 51.9899 35.9453 52.595 34.1338C52.7585 33.6703 52.819 33.181 52.7984 32.693C52.5409 32.8836 52.2783 33.0677 52.0233 33.2621C52.1598 31.2909 52.2165 29.2952 51.9113 27.3356C51.7414 26.4034 51.4452 25.4584 50.8221 24.7245C50.1925 23.9803 49.4521 23.3301 48.6423 22.788C46.9492 21.6357 45.0629 20.7576 43.0866 20.2181C41.2081 19.6078 39.4467 18.7079 37.6609 17.8813C37.9171 18.6666 38.3047 19.4057 38.4849 20.2156C37.4523 19.9851 36.4764 19.5666 35.4876 19.201ZM27.6645 23.5464C28.2272 23.7292 28.5117 24.494 28.11 24.9614C27.734 25.3953 27.1225 25.188 26.6384 25.1198C25.8452 25.1468 25.1023 25.4313 24.3594 25.6837C23.9448 25.7867 23.5328 25.4249 23.6397 24.9949C23.9023 24.1502 24.7676 23.697 25.5736 23.5026C26.2585 23.37 26.9924 23.3378 27.6645 23.5464ZM46.8822 23.6494C47.5427 23.8026 48.2457 24.0099 48.7363 24.5017C49.0659 24.8223 49.1405 25.4841 48.6667 25.7095C48.2264 25.8961 47.8131 25.5884 47.4256 25.4185C46.756 25.0927 45.9951 25.1391 45.2715 25.1519C45.0153 25.1378 44.7166 25.1777 44.508 24.9923C44.2647 24.8069 44.1797 24.3987 44.4282 24.1812C45.0488 23.5232 46.0518 23.5168 46.8822 23.6494ZM47.4861 28.3643C47.929 28.1802 48.3964 28.0759 48.8689 28.0154C48.5225 28.1661 48.1878 28.354 47.9367 28.645C48.1285 28.9025 48.359 29.1755 48.5612 29.4472C49.0942 29.4652 49.5976 29.6403 50.0779 29.8566C49.6633 29.8167 49.2384 29.8347 48.8521 30.0072C49.2345 31.1055 49.044 32.3956 48.2676 33.2776C47.8633 33.7128 47.3741 34.1544 46.7612 34.229C45.7955 34.5908 44.5492 34.6127 43.7458 33.8956C43.1587 33.5685 42.6656 33.0419 42.4544 32.3969C42.1261 31.8381 42.1261 31.1506 42.2329 30.53C42.4686 29.2708 43.5115 28.2369 44.7488 27.9459C45.6732 27.7064 46.6698 27.8828 47.4861 28.3643ZM28.7306 28.542C29.7426 29.2759 30.2602 30.6188 29.9872 31.842C29.928 32.0016 29.9434 32.3827 29.6563 32.2643C29.4619 33.0394 28.9263 33.6819 28.2194 34.0462C27.6928 34.5175 26.9049 34.4827 26.2418 34.4621C24.6362 34.3346 23.2238 32.9377 23.1839 31.3089C23.1208 30.839 23.3436 30.3948 23.3487 29.9351C22.9586 29.7059 22.4976 29.7497 22.0741 29.8411C22.5865 29.5914 23.1298 29.3931 23.7066 29.3854C23.9101 29.1214 24.1161 28.86 24.3543 28.627C24.1096 28.3386 23.7968 28.1249 23.4491 27.9768C23.9114 28.0206 24.3607 28.1377 24.7792 28.336C25.9894 27.6304 27.613 27.6755 28.7306 28.542ZM37.5128 34.3153C37.6944 34.3758 37.5669 34.5844 37.5746 34.7093L37.4613 34.6488C37.1717 34.8445 36.8305 34.6398 36.5176 34.6333C35.7592 34.5432 34.7743 34.887 34.6236 35.7303C34.4627 36.3573 34.7962 36.947 35.2095 37.3912C35.0949 37.5367 34.9957 37.6938 34.9159 37.8625C34.8335 37.8753 34.6687 37.9024 34.5863 37.9153C33.7108 37.1015 33.3129 35.5758 34.146 34.5986C34.997 33.6831 36.4854 33.7398 37.5128 34.3153ZM26.4195 36.6432C27.3388 36.7127 28.2774 37.0668 28.8864 37.7813C29.3847 38.3582 29.4954 39.2839 29.0319 39.9148C28.7126 40.4684 28.1267 40.7929 27.5461 41.0131C26.4581 41.3774 25.2182 41.3079 24.192 40.7839C23.6307 40.4659 23.0873 39.992 22.9354 39.338C22.7835 38.6852 23.0346 37.9577 23.5496 37.5303C24.3144 36.8247 25.4036 36.5762 26.4195 36.6432Z" fill="#F9B294"/>
<path d="M59.3958 28.8523C58.425 28.1043 57.1503 28.5201 56.0649 28.7171C55.3838 31.1055 54.2341 33.3239 52.9968 35.4651C52.8062 36.1256 52.6092 36.7848 52.4199 37.4466C52.8049 37.8084 53.1925 38.2616 53.7551 38.3041C54.5521 38.3813 55.1907 37.8316 55.9182 37.623C55.9233 37.5921 55.9323 37.5329 55.9375 37.5032C57.8636 36.1153 59.437 34.1157 59.9726 31.7712C60.0305 31.2407 60.0911 30.7064 60.0087 30.1759C59.9984 30.1244 59.979 30.0227 59.9687 29.9712C59.9211 29.7922 59.8722 29.6158 59.8142 29.4407C59.7408 29.3223 59.661 29.209 59.5786 29.0969C59.5323 29.0351 59.4408 28.9141 59.3958 28.8523ZM57.3486 30.7012C57.8585 30.8802 57.9048 31.5239 57.9447 31.9823C57.9074 33.3561 57.1169 34.5767 56.231 35.5719C55.7624 36.0561 55.2293 36.5955 54.5315 36.6869C54.1285 36.7294 53.9701 36.2672 53.9881 35.9428C54.0409 34.8316 54.5534 33.8119 55.0105 32.8192C55.295 32.1677 55.7727 31.6218 56.289 31.1441C56.5838 30.9008 56.9379 30.6059 57.3486 30.7012Z" fill="#F9B294"/>
<path d="M16.8145 29.003C15.9712 28.7661 15.0828 28.4905 14.2034 28.7094C13.8184 28.8163 13.5558 29.142 13.3665 29.4768C12.9068 30.6433 13.145 31.9527 13.6227 33.0741C14.2793 34.587 15.3506 35.9312 16.7128 36.8672L16.7978 36.9239C16.8621 36.9638 16.9896 37.041 17.054 37.0797C17.4518 37.2754 17.9012 37.4891 18.3544 37.3771C18.9273 37.2213 19.2904 36.7179 19.6664 36.2981C19.3973 35.572 19.2479 34.811 19.1192 34.0501C18.1484 32.4703 17.3643 30.7746 16.8145 29.003ZM15.8798 30.6987C16.4411 31.0192 16.8312 31.5742 17.157 32.1188C17.5484 32.975 17.896 33.8686 18.0454 34.802C18.0698 35.1741 18.16 35.6595 17.8059 35.9106C17.3256 36.0535 16.9162 35.6763 16.5905 35.3775C15.8012 34.5934 15.2051 33.5956 14.9424 32.5102C14.8317 31.9488 14.8188 31.3038 15.1665 30.8184C15.3222 30.5866 15.6557 30.5519 15.8798 30.6987Z" fill="#F9B294"/>
<path d="M46.4213 46.7632C45.7814 46.6795 45.1351 46.6293 44.49 46.6447C43.6312 46.6563 42.8355 47.0233 41.9922 47.1353C41.7553 47.2872 41.5261 47.4533 41.2647 47.5653C40.3545 47.9953 39.515 48.5876 38.8107 49.3073C38.6292 49.4721 38.6459 49.7335 38.6124 49.9563C38.6343 50.1944 38.6858 50.4301 38.7721 50.6554C39.2665 50.7777 39.7236 51.1086 40.2502 51.0416C41.221 50.9554 42.0888 50.4751 43.0029 50.1816C43.9389 49.8726 44.9355 49.8301 45.9114 49.8803C44.8222 50.0528 43.7535 50.3335 42.6875 50.6193C41.6858 50.882 40.7819 51.406 39.8124 51.7614C39.3759 51.9197 38.942 52.2159 38.8184 52.6897C38.7322 53.1558 38.9034 53.6167 39.0631 54.048C39.5716 54.1691 40.1098 54.2579 40.6171 54.0802C41.9368 53.6746 43.3029 53.4519 44.6355 53.0991C45.2213 52.9369 45.8355 52.9176 46.4355 52.9897C45.7814 53.3077 45.0488 53.3682 44.36 53.5716C43.1639 53.8845 41.9252 54.0789 40.8231 54.6725C40.8115 55.2042 40.657 55.8557 41.1012 56.2626C41.7192 56.1956 42.3373 56.3553 42.954 56.2639C43.9261 56.1403 44.9213 56.0282 45.8947 56.1956C46.6711 56.4235 47.3612 57.0609 47.5273 57.8707C47.602 58.3973 47.4294 58.9265 47.5067 59.4544C47.6161 59.9501 47.9496 60.3647 48.3191 60.6981C48.7749 61.1153 49.4084 61.217 49.9672 61.432C49.4341 62.0809 48.4955 61.9586 47.7616 61.8221C48.0809 62.7517 48.435 63.6698 48.82 64.5762C48.9397 64.8504 49.0633 65.1247 49.1728 65.4041C49.8165 66.9079 50.5388 68.377 51.2586 69.8448C51.3783 70.0714 51.4955 70.3005 51.6036 70.5336C52.0736 71.4465 52.5718 72.3439 53.0405 73.258C54.1272 75.2215 55.21 77.1953 56.5053 79.0313C57.3589 80.2145 58.3065 81.3901 59.5992 82.1137C60.87 82.8308 62.4202 82.9158 63.821 82.599C64.9811 82.3454 65.9403 81.524 66.5712 80.5454C67.2639 79.1008 67.2252 77.4296 67.072 75.8717C66.772 73.146 65.7266 70.5684 64.5086 68.1336C64.336 68.5637 64.0476 68.9255 63.6794 69.2036C63.1901 68.5418 62.7472 67.8452 62.2296 67.2053L62.1434 67.0946C61.4365 66.2744 60.7309 65.4543 59.9816 64.674C58.4855 63.2333 56.9134 61.8646 55.5641 60.2784C54.5933 59.184 53.6959 58.0278 52.7985 56.8729C52.4779 56.3823 52.4972 55.763 52.3568 55.2094C52.2603 54.8399 52.1405 54.4768 52.0543 54.1047C51.7568 52.8287 51.2354 51.6249 50.6586 50.4545C50.2157 49.6588 49.7148 48.8812 49.0659 48.2374C48.7852 47.9503 48.4363 47.7443 48.1466 47.4675C48.0578 47.2795 48.0629 47.0645 48.041 46.8623C47.9985 47.0451 47.9522 47.2293 47.9033 47.4134C47.4063 47.2035 46.9711 46.8263 46.4213 46.7632Z" fill="#F9B294"/>
<path d="M18.2732 18.001C18.2501 17.634 18.1921 17.2594 17.9037 17.0031C17.8677 17.3031 17.8381 17.6057 17.8136 17.9083C17.5278 17.9662 17.2432 18.0319 16.96 18.1091C17.0887 18.2147 17.2175 18.3203 17.3436 18.4284C17.5033 18.3924 17.663 18.3576 17.8213 18.3216C17.7621 18.4825 17.7016 18.6435 17.6424 18.8057C17.69 18.8495 17.7878 18.937 17.8355 18.9808C18.4123 18.5392 18.9595 18.0512 19.3741 17.4512C19.3123 17.3984 19.1887 17.2941 19.1269 17.2413C18.8333 17.4834 18.5307 17.7177 18.2732 18.001Z" fill="#7F4619"/>
<path d="M55.322 23.1473C55.2653 23.1473 55.152 23.146 55.0954 23.1447C55.0748 23.4202 55.0555 23.6957 55.0387 23.9726C54.6988 24.0266 54.3602 24.0846 54.0216 24.1477C54.2791 24.3949 54.6203 24.4837 54.9666 24.5108C54.8829 24.7219 54.8404 24.9459 54.9911 25.1404C55.058 25.1043 55.1906 25.0322 55.2576 24.9962C55.2898 24.4245 55.3284 23.8528 55.3323 23.2799L55.322 23.1473Z" fill="#7F4619"/>
<path d="M61.6438 28.8948C61.7597 28.6089 61.4777 28.3399 61.2382 28.2291C61.0721 28.4364 61.1906 28.7107 61.197 28.9476C61.0232 28.927 60.8172 28.7532 60.655 28.8703C60.6498 29.0622 60.6653 29.2553 60.655 29.4471C60.5365 29.7355 60.2211 29.836 59.9687 29.9712C59.979 30.0227 59.9983 30.1244 60.0086 30.1759C60.1103 30.2351 60.2108 30.2956 60.3112 30.3574C60.6112 30.0407 60.9331 29.7072 61.3811 29.63C61.4725 29.3866 61.5665 29.1433 61.6438 28.8948Z" fill="#7F4619"/>
<path d="M19.096 18.1799C18.7368 18.5057 18.3518 18.8147 18.0724 19.2164C18.0995 19.2859 18.1548 19.4224 18.1819 19.4906C18.3608 19.3915 18.5385 19.2911 18.7123 19.1855C18.7265 19.4765 18.6698 19.7893 18.7819 20.0649C18.9106 20.1846 19.06 20.2799 19.2016 20.3829C19.0806 20.5503 18.9557 20.7164 18.8231 20.8786C18.8771 20.943 18.9866 21.073 19.0419 21.1387C19.5775 20.6932 20.0205 20.1524 20.5342 19.6838C20.2857 19.3928 20.0539 19.0761 19.7256 18.8688C19.4939 18.8082 19.2531 18.9009 19.02 18.9267C19.1076 18.758 19.1939 18.5894 19.2801 18.422C19.2338 18.3615 19.1424 18.2404 19.096 18.1799Z" fill="#7E4518"/>
<path d="M21.2977 20.3881C21.1406 20.2091 20.9475 19.9838 20.6835 20.0083C20.4183 20.0314 20.2393 20.2478 20.0398 20.3997C20.2754 20.6289 20.475 20.8915 20.6848 21.1426C20.3308 21.2018 20.2175 20.7473 19.9072 20.7203C19.6574 20.8207 19.893 21.149 19.9999 21.2894C20.2702 21.6859 20.7801 21.5443 21.1689 21.4619C21.2089 21.5482 21.2475 21.6344 21.2848 21.722C21.1599 21.7992 21.026 21.8597 20.8831 21.9009C20.9179 22.3773 21.3402 22.6129 21.7432 22.7494C22.0187 22.3464 22.3084 21.9537 22.6071 21.5675C22.2595 21.2507 21.823 21.028 21.3505 21.2121C21.3749 20.9404 21.5153 20.616 21.2977 20.3881Z" fill="#7F4518"/>
<path d="M56.5838 23.8142C56.5375 23.6211 56.4615 23.437 56.3752 23.258C56.1049 23.5013 55.8255 23.7357 55.5551 23.9803C55.483 23.746 55.4044 23.5142 55.3323 23.2799C55.3285 23.8528 55.2899 24.4245 55.2577 24.9962C55.2448 25.1339 55.2293 25.2717 55.2113 25.4095C55.4585 25.5228 55.6993 25.4545 55.9182 25.3206C55.9259 25.5562 55.9233 25.7944 55.9619 26.0275C56.0778 26.2116 56.2401 26.3571 56.3933 26.509C56.2851 26.6481 56.1757 26.7871 56.0675 26.9275C56.1834 27.0704 56.3006 27.212 56.4139 27.3562C56.6212 26.3725 56.786 25.3811 56.8864 24.3807C56.9096 24.1618 56.9289 23.943 56.9456 23.7254C56.8259 23.7537 56.7048 23.7833 56.5838 23.8142Z" fill="#6C3B14"/>
<path d="M27.6646 23.5464C26.9925 23.3378 26.2586 23.37 25.5736 23.5026C24.7676 23.697 23.9024 24.1502 23.6397 24.9949C23.5329 25.4249 23.9449 25.7867 24.3595 25.6837C24.3633 25.4326 24.2346 25.1313 24.4277 24.9215C24.6543 24.6266 24.7509 24.1245 25.1835 24.0936C25.7732 24.0975 26.3629 24.2108 26.9526 24.1322C26.8933 24.4747 26.744 24.7901 26.6384 25.1198C27.1225 25.188 27.7341 25.3953 28.1101 24.9614C28.5118 24.494 28.2272 23.7292 27.6646 23.5464Z" fill="#874A31"/>
<path d="M46.8822 23.6494C46.0518 23.5168 45.0488 23.5232 44.4282 24.1811C44.1797 24.3987 44.2647 24.8069 44.508 24.9923C44.7166 25.1777 45.0153 25.1378 45.2715 25.1519C45.9951 25.1391 46.7561 25.0927 47.4256 25.4185C47.8131 25.5884 48.2264 25.8961 48.6668 25.7094C49.1406 25.4841 49.0659 24.8223 48.7363 24.5017C48.2457 24.0099 47.5427 23.8026 46.8822 23.6494Z" fill="#874931"/>
<path d="M26.9525 24.1322C26.3628 24.2108 25.7731 24.0975 25.1834 24.0936C24.7508 24.1245 24.6543 24.6266 24.4277 24.9215C24.2345 25.1314 24.3633 25.4326 24.3594 25.6837C25.1023 25.4313 25.8452 25.1468 26.6384 25.1198C26.7439 24.7902 26.8933 24.4747 26.9525 24.1322Z" fill="#915840"/>
<path d="M58.7996 25.1121C58.2357 24.7155 57.5469 24.5443 56.8863 24.3807C56.7859 25.3811 56.6211 26.3725 56.4138 27.3562C56.3121 27.8133 56.1949 28.2678 56.0649 28.7171C57.1503 28.5202 58.4249 28.1043 59.3957 28.8523C59.464 28.1481 59.4846 27.4386 59.3687 26.7369C59.276 26.173 59.1846 25.5601 58.7996 25.1121Z" fill="#FE8143"/>
<path d="M15.8231 24.4039C15.6364 24.4194 15.4484 24.4374 15.2605 24.4606C14.8137 24.5803 14.3656 24.7387 13.9729 24.9859C13.5764 25.4301 13.4772 26.0481 13.3691 26.6133C13.2622 27.3227 13.2468 28.0463 13.315 28.7609C13.3408 28.9978 13.3601 29.2373 13.3665 29.4768C13.5558 29.142 13.8184 28.8163 14.2034 28.7094C15.0828 28.4905 15.9712 28.7661 16.8145 29.003C16.3549 27.5004 16.0265 25.9605 15.8231 24.4039Z" fill="#FF7F3E"/>
<path d="M47.4861 28.3643C46.6698 27.8828 45.6732 27.7064 44.7488 27.9459C43.5115 28.2369 42.4686 29.2708 42.2329 30.53C42.1261 31.1506 42.1261 31.8381 42.4544 32.3969C42.4364 32.2398 42.4222 32.0827 42.4132 31.9257C42.193 30.7617 42.7879 29.5347 43.7986 28.9373C45.0372 28.1403 46.8011 28.3347 47.835 29.3854C48.4363 29.9879 48.771 30.8544 48.6938 31.7068C48.6152 32.8282 47.8183 33.8544 46.7612 34.2291C47.3741 34.1544 47.8633 33.7128 48.2676 33.2776C49.044 32.3956 49.2345 31.1055 48.8522 30.0072C49.2384 29.8347 49.6633 29.8167 50.0779 29.8566C49.5976 29.6403 49.0942 29.4652 48.5612 29.4472C48.359 29.1755 48.1286 28.9025 47.9367 28.645C48.1878 28.354 48.5225 28.1661 48.8689 28.0154C48.3964 28.0759 47.929 28.1802 47.4861 28.3643Z" fill="#6A472D"/>
<path d="M28.7306 28.542C27.613 27.6755 25.9894 27.6304 24.7792 28.336C24.3607 28.1377 23.9114 28.0205 23.4491 27.9768C23.7968 28.1248 24.1096 28.3386 24.3543 28.627C24.1161 28.86 23.9101 29.1214 23.7066 29.3853C23.1298 29.3931 22.5865 29.5913 22.074 29.8411C22.4976 29.7497 22.9586 29.7059 23.3487 29.9351C23.3436 30.3948 23.1208 30.839 23.1839 31.3089C23.2238 32.9376 24.6362 34.3346 26.2418 34.4621C25.298 34.3153 24.4045 33.7784 23.9217 32.9415C23.3075 31.9282 23.4041 30.5402 24.1676 29.63C25.0714 28.4738 26.8006 28.1184 28.1061 28.7673C29.0885 29.2205 29.8121 30.2235 29.8507 31.3141C29.8598 31.6334 29.8907 31.9939 29.6602 32.2527L29.6563 32.2643C29.9434 32.3827 29.928 32.0016 29.9872 31.8419C30.2602 30.6188 29.7426 29.2759 28.7306 28.542Z" fill="#6A472C"/>
<path d="M60.6138 28.5935C60.3975 28.3515 60.2056 28.0618 59.8747 27.9742C59.8992 28.3811 60.0614 28.8999 59.5786 29.0969C59.661 29.209 59.7408 29.3223 59.8142 29.4407C60.1232 29.2012 60.3885 28.9115 60.6138 28.5935Z" fill="#7F471A"/>
<path d="M47.8351 29.3854C46.8012 28.3347 45.0373 28.1403 43.7987 28.9373C42.7879 29.5347 42.1931 30.7617 42.4133 31.9257C42.3489 30.8841 43.0712 29.9261 44.0265 29.5682C45.2394 29.0699 46.8076 29.4652 47.5222 30.5982C48.0488 31.3978 47.9715 32.5257 47.3458 33.2493C46.496 34.2806 44.9059 34.5213 43.7459 33.8956C44.5493 34.6128 45.7956 34.5909 46.7613 34.2291C47.8183 33.8544 48.6153 32.8282 48.6938 31.7068C48.7711 30.8544 48.4363 29.9879 47.8351 29.3854Z" fill="#FEFEFE"/>
<path d="M28.1062 28.7673C26.8006 28.1184 25.0715 28.4738 24.1676 29.63C23.4041 30.5402 23.3075 31.9282 23.9217 32.9415C24.4045 33.7784 25.2981 34.3153 26.2418 34.4621C26.9049 34.4827 27.6929 34.5174 28.2195 34.0462C27.3903 34.4299 26.3835 34.4234 25.571 33.9998C24.8552 33.6226 24.2861 32.9157 24.1934 32.0969C24.0659 31.2123 24.4985 30.3008 25.2234 29.7961C26.3513 28.9682 28.0804 29.1085 29.0306 30.1437C29.5611 30.6986 29.7851 31.5007 29.6602 32.2527C29.8907 31.9939 29.8598 31.6334 29.8508 31.3141C29.8122 30.2235 29.0886 29.2205 28.1062 28.7673Z" fill="#FDFEFD"/>
<path d="M62.4575 28.8562C62.2631 29.1536 62.3171 29.527 62.2734 29.863C62.1768 30.7476 62.3506 31.6295 62.5141 32.4948L62.5386 32.6454C63.1798 32.433 63.7991 32.1561 64.4583 32.0004C64.3566 31.8343 64.2562 31.6695 64.157 31.5021C64.0759 31.5562 63.9922 31.6102 63.9098 31.6643C63.96 31.3566 63.9987 31.0463 64.0334 30.7373C64.045 30.5957 63.9047 30.4939 63.8351 30.3845C63.3909 29.8618 62.921 29.3622 62.4575 28.8562Z" fill="#925D34"/>
<path d="M29.0306 30.1437C28.0804 29.1085 26.3512 28.9682 25.2234 29.7961C24.4985 30.3008 24.0659 31.2124 24.1933 32.0969C24.286 32.9158 24.8551 33.6226 25.571 33.9999C26.3834 34.4235 27.3903 34.4299 28.2194 34.0462C28.9263 33.6818 29.4619 33.0394 29.6563 32.2643L29.6602 32.2527C29.7851 31.5008 29.5611 30.6986 29.0306 30.1437Z" fill="#231F20"/>
<path d="M47.5221 30.5982C46.8075 29.4652 45.2393 29.0699 44.0265 29.5682C43.0711 29.9261 42.3488 30.884 42.4132 31.9256C42.4222 32.0827 42.4364 32.2398 42.4544 32.3969C42.6656 33.0419 43.1587 33.5685 43.7458 33.8956C44.9059 34.5213 46.496 34.2805 47.3457 33.2492C47.9715 32.5256 48.0487 31.3977 47.5221 30.5982Z" fill="#231F20"/>
<path d="M62.2734 29.863C62.0687 30.163 61.8949 30.4849 61.8137 30.8416C61.7648 30.848 61.667 30.8596 61.618 30.866C61.3773 31.5394 61.7931 32.3596 62.5142 32.4948C62.3506 31.6295 62.1768 30.7476 62.2734 29.863Z" fill="#7F4618"/>
<path d="M57.3486 30.7012C56.9379 30.6059 56.5838 30.9008 56.289 31.1441C55.7727 31.6218 55.295 32.1677 55.0105 32.8192C54.5534 33.8119 54.041 34.8316 53.9882 35.9428C53.9702 36.2672 54.1285 36.7294 54.5315 36.6869C55.2294 36.5955 55.7624 36.0561 56.2311 35.5719C57.1169 34.5767 57.9074 33.3561 57.9448 31.9823C57.9048 31.5239 57.8585 30.8802 57.3486 30.7012Z" fill="#D98255"/>
<path d="M15.8798 30.6986C15.6558 30.5519 15.3223 30.5866 15.1665 30.8184C14.8189 31.3038 14.8317 31.9488 14.9425 32.5102C15.2051 33.5956 15.8013 34.5934 16.5905 35.3775C16.9163 35.6762 17.3257 36.0535 17.8059 35.9106C18.16 35.6595 18.0699 35.1741 18.0454 34.802C17.8961 33.8685 17.5484 32.975 17.157 32.1188C16.8313 31.5742 16.4412 31.0192 15.8798 30.6986Z" fill="#D98255"/>
<path d="M37.5129 34.3153C36.4854 33.7398 34.9971 33.6831 34.146 34.5986C33.313 35.5758 33.7108 37.1015 34.5863 37.9152C34.6687 37.9024 34.8335 37.8753 34.9159 37.8624C34.4705 37.2174 33.9451 36.5196 34.0533 35.6852C34.0687 34.9204 34.773 34.3732 35.4876 34.2921C36.1739 34.1428 36.8357 34.4029 37.4614 34.6488L37.5747 34.7093C37.567 34.5844 37.6944 34.3758 37.5129 34.3153Z" fill="#B1694B"/>
<path d="M37.4614 34.6488C36.8356 34.4029 36.1738 34.1428 35.4876 34.2922C34.773 34.3733 34.0687 34.9205 34.0533 35.6853C33.9451 36.5196 34.4704 37.2174 34.9159 37.8625C34.9957 37.6938 35.0949 37.5368 35.2095 37.3913C34.7962 36.9471 34.4627 36.3574 34.6236 35.7303C34.7743 34.887 35.7592 34.5432 36.5176 34.6334C36.8305 34.6398 37.1717 34.8445 37.4614 34.6488Z" fill="#EC9F7C"/>
<path d="M5.7868 35.9428C5.48681 35.7458 5.15205 35.6067 4.79798 35.5449C4.63704 36.0496 4.48897 36.5556 4.33189 37.0616C4.70142 37.0964 5.07094 37.1183 5.4366 37.1762C5.46235 37.2252 5.51385 37.3243 5.5396 37.3745C5.62071 36.9329 5.68766 36.4887 5.76749 36.0471L5.7868 35.9428Z" fill="#7D4316"/>
<path d="M5.90395 36.687C5.8576 36.4732 5.80738 36.2621 5.76746 36.0471C5.68764 36.4887 5.62069 36.9329 5.53958 37.3745C5.50095 37.6513 5.48035 37.9346 5.53056 38.2127C5.57563 38.2204 5.66447 38.2359 5.70953 38.2423C5.90266 37.7312 6.12926 37.2342 6.37518 36.7462C6.21939 36.7256 6.06232 36.7063 5.90395 36.687Z" fill="#935F35"/>
<path d="M47.9213 37.7994C47.3676 37.1093 46.4908 36.7591 45.6359 36.6316C44.4424 36.4655 43.1059 36.7964 42.2922 37.726C41.8673 38.2011 41.8583 38.8642 41.9124 39.4629C42.5999 39.5659 43.3042 39.6792 43.9273 39.9998C44.3986 40.211 44.2531 40.8148 44.2943 41.2307C45.0475 41.1921 45.8277 41.2333 46.5423 40.9539C47.1912 40.726 47.8208 40.3268 48.1183 39.6831C48.4775 39.0934 48.2882 38.3363 47.9213 37.7994Z" fill="#F49986"/>
<path d="M26.4195 36.6432C25.4036 36.5763 24.3144 36.8248 23.5496 37.5303C23.0346 37.9578 22.7835 38.6852 22.9354 39.338C23.0874 39.9921 23.6307 40.4659 24.1921 40.7839C25.2182 41.3079 26.4581 41.3775 27.5461 41.0131C28.1268 40.7929 28.7126 40.4685 29.0319 39.9148C29.4954 39.2839 29.3847 38.3582 28.8864 37.7814C28.2774 37.0668 27.3388 36.7127 26.4195 36.6432Z" fill="#F49986"/>
<path d="M6.45637 36.5762C6.43706 36.6187 6.39586 36.7037 6.37525 36.7462C6.12934 37.2342 5.90273 37.7311 5.7096 38.2423C6.1229 38.299 6.6495 38.2784 6.83233 37.8277C7.08468 37.3642 6.72675 36.9277 6.45637 36.5762Z" fill="#7E4619"/>
<path d="M7.41427 37.5354C7.29582 37.5213 7.17479 37.5084 7.05376 37.4968C7.07565 37.7286 7.13487 37.9655 7.08852 38.1985C6.92114 38.4663 6.69454 38.6916 6.48339 38.9272C6.59154 38.9903 6.69969 39.0508 6.80784 39.1075C7.12457 39.0122 7.34217 38.7341 7.59195 38.532C7.72199 38.6169 7.85203 38.7045 7.97692 38.7959C7.74774 39.0444 7.55461 39.3277 7.29839 39.5543C7.36792 39.6573 7.43616 39.7603 7.5044 39.8633C7.80439 39.5208 8.15074 39.2118 8.58979 39.0663C8.66704 38.8294 8.75202 38.5938 8.88721 38.3852C8.8048 38.1135 8.69923 37.7569 8.34902 37.7659C8.14301 37.9178 8.35675 38.1354 8.39022 38.3208C8.36447 38.3723 8.31554 38.4766 8.29108 38.5281C7.90868 38.2861 7.61255 37.941 7.41427 37.5354Z" fill="#7D4618"/>
<path d="M41.9123 39.4629C40.8913 39.3316 39.8639 39.2286 38.8325 39.2234C36.1609 39.1822 33.4558 39.2646 30.8434 39.8788C30.3374 40.0783 29.6035 40.1363 29.3679 40.6963C29.3331 42.2633 29.4657 43.8315 29.543 45.3945C29.8417 45.3495 30.1108 45.2104 30.4005 45.1383C30.3619 44.268 30.4121 43.3937 30.3001 42.5285C30.2486 42.15 30.2653 41.7689 30.2717 41.389C30.8331 41.4959 31.388 41.6337 31.9468 41.7483C33.2936 41.8204 34.6378 41.9478 35.9884 41.9182C37.0223 41.944 38.051 41.8178 39.0836 41.8281C39.7441 41.801 40.4059 41.7598 41.0535 41.6208C41.8402 41.483 42.5857 41.1405 43.3943 41.1341C43.4586 41.9375 43.4007 42.7448 43.4445 43.5482C43.4393 43.771 43.5964 43.9383 43.6968 44.1212C43.944 44.0298 44.1874 43.9293 44.4294 43.8289C44.3187 42.9675 44.3136 42.0985 44.2943 41.2307C44.2531 40.8148 44.3985 40.2109 43.9273 39.9998C43.3041 39.6792 42.5999 39.5659 41.9123 39.4629ZM42.1801 39.9187C42.596 40.0062 43.1406 39.9856 43.3505 40.4285C42.6256 40.8702 41.7385 40.8096 40.9364 41.0105C40.6621 41.0298 40.3338 41.2062 40.0853 41.044C39.5304 41.2075 38.9471 41.1972 38.3742 41.1753C37.5553 41.3852 36.7004 41.2847 35.8635 41.3195C34.8966 41.2912 33.9142 41.3749 32.9601 41.1805C32.3563 41.2011 31.7563 41.1367 31.164 41.0221C30.8434 40.9719 30.5383 40.8689 30.2486 40.7221C30.3773 40.6114 30.4687 40.4517 30.6271 40.3822C31.9867 39.92 33.4365 39.9431 34.8438 39.7552C35.9562 39.7088 37.0712 39.7436 38.1836 39.674C39.5175 39.7307 40.8591 39.6921 42.1801 39.9187Z" fill="#C7DFE4"/>
<path d="M44.9277 56.7892C44.8891 56.3295 44.3007 56.5188 43.9917 56.5072C44.0986 58.275 44.2865 60.0634 43.9917 61.8234C43.8758 62.3925 43.393 62.8908 42.8149 62.9886C41.6883 63.214 40.536 63.2062 39.3939 63.2912C37.3184 63.3672 35.2416 63.3504 33.1661 63.3311C32.297 63.4264 31.4975 62.7633 31.2992 61.9406C31.0468 60.702 30.9335 59.4351 30.9541 58.1707C30.6748 58.2068 30.3954 58.2441 30.1134 58.275C29.9344 59.7235 30.1919 61.1951 30.5602 62.5972C30.6387 62.811 30.7224 63.0234 30.8228 63.2294C30.9271 63.3633 31.0327 63.4946 31.1421 63.626C31.6082 63.9491 32.1773 64.0663 32.7361 64.0727C32.8494 64.074 33.0773 64.0792 33.1906 64.0805C33.6992 64.0831 34.2064 64.0921 34.7137 64.0934C34.8811 64.0921 35.0485 64.0921 35.2146 64.0921C35.7206 64.0895 36.2279 64.0843 36.7339 64.0805C36.8485 64.0779 37.0764 64.074 37.1909 64.0715C37.7304 64.0599 38.2699 64.047 38.8081 64.0444C38.9871 64.0419 39.1647 64.0354 39.3411 64.0303C39.8072 64.0071 40.2733 63.9916 40.7381 63.9813C40.8501 63.9788 41.0754 63.9749 41.1874 63.9723C41.6857 63.9594 42.184 63.926 42.6797 63.8912C42.8458 63.8745 43.0093 63.8564 43.1728 63.8346C43.6312 63.7637 44.0483 63.5384 44.396 63.2371C44.5981 62.9359 44.7179 62.5882 44.79 62.2354C44.8659 61.7694 44.9664 61.3084 45.0204 60.841C45.1505 59.4891 44.9239 58.1411 44.9277 56.7892Z" fill="#C7DFE4"/>
<path d="M42.1802 39.9186C40.8592 39.692 39.5175 39.7307 38.1837 39.674C37.0712 39.7435 35.9562 39.7088 34.8438 39.7551C33.4365 39.9431 31.9868 39.9199 30.6271 40.3822C30.4688 40.4517 30.3774 40.6113 30.2486 40.7221C30.5383 40.8688 30.8434 40.9718 31.164 41.0221C31.3108 40.9075 31.419 40.713 31.6147 40.686C32.0833 40.7916 32.5031 41.0375 32.9601 41.1804C33.9142 41.3748 34.8966 41.2912 35.8635 41.3195C36.7004 41.2847 37.5553 41.3851 38.3742 41.1753C38.7927 41.0452 39.1815 40.8341 39.6038 40.7169C39.8098 40.7246 39.9244 40.9422 40.0853 41.0439C40.3338 41.2062 40.6622 41.0298 40.9364 41.0105C41.7385 40.8096 42.6256 40.8701 43.3505 40.4285C43.1407 39.9856 42.596 40.0062 42.1802 39.9186Z" fill="#E7D1C6"/>
<path d="M11.3992 39.7152C10.7966 39.7809 10.194 39.6792 9.59275 39.6676C9.25671 39.6779 9.12151 40.023 8.95413 40.2586C8.84469 40.4839 8.74813 40.7169 8.62968 40.941C8.80993 41.2191 8.95285 41.5294 9.18975 41.7663C9.47945 41.9993 9.88888 42.1757 10.2533 42.0135C10.7181 41.8242 11.1777 41.6131 11.6721 41.5113C11.4404 41.174 11.076 40.9011 11.0554 40.4607C11.3129 40.2959 11.3425 39.9856 11.3992 39.7152Z" fill="#6F3D16"/>
<path d="M40.0853 41.0439C39.9244 40.9422 39.8098 40.7246 39.6038 40.7169C39.1815 40.8341 38.7926 41.0452 38.3742 41.1753C38.9471 41.1972 39.5304 41.2075 40.0853 41.0439Z" fill="#C9A798"/>
<path d="M32.9602 41.1805C32.5031 41.0375 32.0834 40.7916 31.6147 40.686C31.419 40.7131 31.3109 40.9075 31.1641 41.0221C31.7564 41.1367 32.3564 41.2011 32.9602 41.1805Z" fill="#CAA693"/>
<path d="M35.9885 41.9182C34.6378 41.9478 33.2936 41.8203 31.9469 41.7482C32.8597 42.1525 33.8357 42.401 34.831 42.4821C36.264 42.5761 37.7755 42.4628 39.0837 41.8281C38.0511 41.8178 37.0223 41.9439 35.9885 41.9182Z" fill="#CAA693"/>
<path d="M43.3943 41.1341C42.5858 41.1405 41.8403 41.483 41.0536 41.6208C40.406 41.7598 39.7442 41.801 39.0837 41.8281C37.7755 42.4628 36.264 42.5761 34.831 42.4821C33.8357 42.401 32.8597 42.1525 31.9469 41.7482C31.3881 41.6337 30.8332 41.4959 30.2718 41.389C30.2654 41.7688 30.2486 42.15 30.3001 42.5285C30.4121 43.3937 30.3619 44.2679 30.4006 45.1383C30.1109 45.2104 29.8418 45.3495 29.5431 45.3945L29.5637 45.4988C30.1817 45.3765 30.8254 45.2194 31.437 45.4538C31.213 44.7958 31.2761 44.0903 31.2194 43.4092C31.204 42.9959 31.195 42.3766 31.7216 42.2903C32.1271 42.3418 32.1529 42.786 32.2031 43.1053C32.2997 43.9358 32.4078 44.7662 32.4992 45.598C32.404 45.6057 32.2147 45.6211 32.1194 45.6289C32.7799 45.8207 33.4198 46.0731 34.0456 46.3563C35.2211 46.6537 36.4391 46.8829 37.6519 46.704C38.9086 46.5083 40.1974 46.3756 41.3768 45.8658C41.5004 45.4641 41.727 45.092 42.0553 44.8254C42.5175 44.4263 43.1355 44.3117 43.6969 44.1212C43.5965 43.9383 43.4394 43.771 43.4445 43.5482C43.4008 42.7448 43.4587 41.9375 43.3943 41.1341Z" fill="#E7D1C4"/>
<path d="M31.7215 42.2903C31.1949 42.3765 31.2039 42.9959 31.2194 43.4091C31.2761 44.0903 31.213 44.7958 31.437 45.4537C31.6649 45.5143 31.8915 45.5735 32.1194 45.6289C32.2147 45.6211 32.4039 45.6057 32.4992 45.598C32.4078 44.7662 32.2996 43.9357 32.2031 43.1053C32.1529 42.786 32.1271 42.3418 31.7215 42.2903Z" fill="#EFE3DA"/>
<path d="M47.9702 45.7962C47.6805 46.1889 47.3651 46.6782 46.8153 46.6833C46.3016 46.7838 45.9037 46.2997 45.3951 46.3615C44.6007 46.404 43.8295 46.6293 43.039 46.7052C42.5561 46.731 42.072 46.7181 41.5892 46.7194C41.7218 46.8597 41.8557 46.9988 41.9922 47.1353C42.8355 47.0233 43.6312 46.6563 44.49 46.6447C45.1351 46.6293 45.7814 46.6795 46.4213 46.7632C46.9711 46.8263 47.4063 47.2035 47.9033 47.4134C47.9522 47.2293 47.9985 47.0451 48.041 46.8623C48.0346 46.5057 48.0088 46.1503 47.9702 45.7962Z" fill="#F9A07E"/>
<path d="M41.3768 45.8658C40.1974 46.3756 38.9086 46.5083 37.6519 46.704C36.4391 46.8829 35.2211 46.6538 34.0456 46.3563C34.3198 46.6126 34.6044 46.8701 34.7962 47.1958C34.9764 47.6464 34.8181 48.1344 34.7473 48.5928C35.1078 48.2748 35.0254 47.7675 35.0357 47.3387C36.4301 47.3065 37.8245 47.2988 39.2176 47.3207C39.851 47.3168 40.4807 47.4353 41.1115 47.3567C41.0394 47.1636 40.9686 46.9705 40.8978 46.7786C41.0948 46.7168 41.2905 46.655 41.4849 46.5932C41.4308 46.3538 41.3999 46.1091 41.3768 45.8658Z" fill="#E1C7B8"/>
<path d="M41.4849 46.5932C41.2905 46.655 41.0948 46.7168 40.8978 46.7786C40.9686 46.9704 41.0394 47.1636 41.1115 47.3567C41.163 47.4262 41.2132 47.4945 41.2647 47.5653C41.5261 47.4533 41.7553 47.2872 41.9922 47.1352C41.8557 46.9988 41.7218 46.8597 41.5892 46.7194C41.5634 46.6872 41.5119 46.6241 41.4849 46.5932Z" fill="#E9F6F9"/>
<path d="M41.2648 47.5653C41.2133 47.4945 41.1631 47.4262 41.1116 47.3567C40.4807 47.4353 39.8511 47.3168 39.2176 47.3207C37.8245 47.2988 36.4301 47.3065 35.0357 47.3387C35.0254 47.7674 35.1078 48.2747 34.7473 48.5927C34.6095 48.7228 34.4666 48.8503 34.3237 48.9777C34.9031 49.3962 35.5649 49.6781 36.143 50.0992C36.9322 49.8043 37.791 49.973 38.6125 49.9562C38.6459 49.7335 38.6292 49.4721 38.8107 49.3073C39.515 48.5876 40.3545 47.9953 41.2648 47.5653Z" fill="#B0DAE8"/>
<path d="M28.571 47.3425C28.5105 47.4069 28.4474 47.4713 28.3843 47.5369C28.3135 48.0275 28.2826 48.5219 28.2388 49.015C28.6778 48.8 29.1426 48.6404 29.6087 48.4987C30.4366 48.2528 31.3096 48.379 32.1542 48.258C31.4396 48.0391 30.68 47.9811 29.9589 48.2077C29.3345 48.3996 28.7152 47.9554 28.571 47.3425Z" fill="#F89F7C"/>
<path d="M27.5834 49.3961C27.1585 49.4515 26.7324 49.5043 26.3114 49.588C26.3693 49.906 26.4285 50.224 26.4878 50.5421C26.8431 50.1506 27.2152 49.7734 27.5834 49.3961Z" fill="#A7D88F"/>
<path d="M26.3114 49.588C26.1556 49.6151 25.9972 49.6421 25.8389 49.6704C25.9135 50.134 25.9998 50.5962 26.0887 51.0584C26.2148 50.8794 26.3475 50.7069 26.4878 50.5421C26.4286 50.2241 26.3693 49.9061 26.3114 49.588Z" fill="#6EA877"/>
<path d="M25.8388 49.6704C25.3418 49.7528 24.859 49.9022 24.3916 50.0902C24.5976 51.173 24.6414 52.2751 24.8152 53.3618C25.1499 52.5481 25.5903 51.782 26.0886 51.0584C25.9997 50.5962 25.9135 50.134 25.8388 49.6704Z" fill="#A3DB8D"/>
<path d="M45.9114 49.8803C44.9355 49.8301 43.9389 49.8726 43.0029 50.1816C42.0888 50.4751 41.221 50.9554 40.2502 51.0416C39.7236 51.1086 39.2665 50.7777 38.7721 50.6554C38.9832 51.1344 39.354 51.5142 39.8124 51.7614C40.7819 51.406 41.6858 50.882 42.6875 50.6193C43.7535 50.3335 44.8222 50.0528 45.9114 49.8803Z" fill="#FA9E7C"/>
<path d="M38.6124 49.9563C37.791 49.973 36.9322 49.8043 36.143 50.0992C36.6284 50.4674 37.1047 50.8665 37.4652 51.3622C37.7485 51.7369 37.5219 52.2249 37.4022 52.6215C37.2374 52.9266 37.0236 53.2086 36.7571 53.4352C36.6593 53.515 36.5614 53.5961 36.461 53.6759C36.7108 53.8678 37.0082 54.0236 37.1846 54.2927C37.3455 54.8991 37.218 55.5467 36.9155 56.0875C36.4996 56.6141 35.7992 56.6901 35.1799 56.5665C35.1837 56.9051 35.2121 57.2463 35.1722 57.5849C35.1297 57.8913 34.858 58.078 34.643 58.2673C33.4314 58.6677 32.1851 58.1295 30.9542 58.1707C30.9336 59.4351 31.0469 60.702 31.2993 61.9406C31.4975 62.7633 32.2971 63.4264 33.1662 63.3312C35.2417 63.3505 37.3185 63.3672 39.394 63.2912C40.536 63.2063 41.6884 63.214 42.8149 62.9887C43.393 62.8908 43.8759 62.3925 43.9917 61.8234C44.2866 60.0634 44.0986 58.275 43.9917 56.5072C43.2579 56.5793 42.5162 56.6798 41.7785 56.5974C41.521 56.5677 41.3124 56.3978 41.1012 56.2626C40.657 55.8557 40.8115 55.2042 40.8231 54.6725C40.1691 54.8128 39.4004 54.697 39.0631 54.048C38.9034 53.6167 38.7322 53.1558 38.8184 52.6897C38.942 52.2159 39.3759 51.9197 39.8124 51.7614C39.3541 51.5142 38.9832 51.1344 38.7721 50.6554C38.6858 50.4301 38.6343 50.1945 38.6124 49.9563Z" fill="#98D7E6"/>
<path d="M24.3917 50.0901C24.2539 50.1455 24.1148 50.2047 23.9771 50.2665C24.138 51.6133 24.2706 52.9626 24.4123 54.312C24.5397 53.9914 24.6813 53.6785 24.8152 53.3618C24.6414 52.2751 24.5977 51.173 24.3917 50.0901Z" fill="#6BAB75"/>
<path d="M23.977 50.2666C23.4929 50.4842 23.023 50.7301 22.5595 50.9889C22.9187 53.3875 23.0513 55.812 23.1466 58.2338C23.2766 58.033 23.3577 57.8064 23.4118 57.5772C23.6809 56.4699 24.0466 55.3897 24.4122 54.312C24.2706 52.9627 24.138 51.6133 23.977 50.2666Z" fill="#A4DA8F"/>
<path d="M52.2899 51.0828C51.7542 50.855 51.2122 50.6374 50.6586 50.4545C51.2354 51.6249 51.7568 52.8287 52.0542 54.1047C52.0298 53.0927 52.1675 52.0858 52.2899 51.0828Z" fill="#A2DB8E"/>
<path d="M22.5594 50.9889C22.4101 51.0738 22.262 51.1601 22.1139 51.2477C22.4963 53.7403 22.5955 56.2639 22.7062 58.7784C22.8517 58.5956 23.0011 58.4153 23.1465 58.2338C23.0513 55.812 22.9187 53.3875 22.5594 50.9889Z" fill="#6BAA76"/>
<path d="M58.9335 59.3655C57.6202 57.7535 56.2979 56.1377 54.8121 54.6802C54.7915 54.8733 54.7683 55.0677 54.7465 55.2635C57.9331 58.6973 60.8262 62.4067 63.297 66.389C63.3523 66.3427 63.4605 66.2512 63.5145 66.2062C63.5545 66.1714 63.633 66.1045 63.6729 66.071C62.2206 63.7483 60.6395 61.508 58.9335 59.3655Z" fill="#6BAA76"/>
<path d="M32.5971 67.4615C32.5881 67.6276 32.5765 67.7924 32.5662 67.9611C32.1992 75.8511 31.6507 83.7424 30.5718 91.5706C30.6748 91.5732 30.8795 91.577 30.9825 91.5796C31.0816 91.2358 31.1486 90.8843 31.1885 90.5303C32.1696 83.0729 32.6692 75.5614 33.0387 68.0512C32.9563 68.0229 32.7915 67.965 32.7091 67.9366C32.6705 67.777 32.6331 67.6186 32.5971 67.4615Z" fill="#6BAA76"/>
<path d="M35.0614 67.7525C34.903 67.7963 34.7434 67.8401 34.5824 67.8864C34.1872 75.8511 33.6747 83.8248 32.5391 91.7238C32.7001 91.7302 32.8597 91.738 33.0194 91.747C34.146 83.7939 34.6571 75.77 35.0614 67.7525Z" fill="#6BAA76"/>
<path d="M38.9111 68.0615C38.8519 68.0705 38.7334 68.0873 38.6742 68.0963C38.2313 76.0326 37.5 83.951 36.591 91.8461C36.7043 91.8487 36.9283 91.8538 37.0403 91.8551C37.6596 86.9947 38.0948 82.1124 38.5132 77.2313C38.7192 74.4709 38.9755 71.713 39.0695 68.9461C39.0283 68.6486 38.969 68.3551 38.9111 68.0615Z" fill="#6BAA76"/>
<path d="M41.0304 68.2482C40.9171 68.2508 40.6892 68.2585 40.5759 68.2611C40.5682 68.395 40.5592 68.5315 40.5501 68.668C40.1716 76.4176 39.5575 84.1544 38.9497 91.8886C39.1068 91.8886 39.2639 91.8886 39.4197 91.8886C40.0377 84.0153 40.6725 76.1395 41.0304 68.2482Z" fill="#6BAA76"/>
<path d="M30.5254 68.2572C30.5177 68.404 30.5087 68.5508 30.4996 68.6989C30.1803 76.2567 29.6203 83.8119 28.6005 91.3092C28.5168 91.3195 28.3469 91.3401 28.2632 91.3517C28.522 91.38 28.7821 91.4135 29.0396 91.4444C30.1172 83.8686 30.6232 76.2245 30.9876 68.5856C30.7185 68.6474 30.5589 68.5392 30.5254 68.2572Z" fill="#6BAA76"/>
<path d="M42.9669 68.4697C42.8214 68.5778 42.6733 68.686 42.5252 68.7929C42.5149 68.9654 42.4982 69.1405 42.4827 69.3143C42.1222 76.8412 41.5815 84.3578 41.2596 91.886C41.4192 91.886 41.5776 91.886 41.736 91.8873C42.0334 84.1106 42.6643 76.3494 42.9617 68.5727L42.9669 68.4697Z" fill="#6BAA76"/>
<path d="M46.5372 76.3764C46.3724 76.4768 46.2063 76.5785 46.0402 76.6828C46.0402 76.7433 46.0376 76.8644 46.0376 76.9236C46.12 78.4133 46.0672 79.9068 46.1367 81.3965C46.2192 84.8625 46.4316 88.3234 46.7174 91.7766C46.8745 91.7676 47.0316 91.7598 47.1887 91.7521C46.9312 88.7419 46.7419 85.7265 46.6415 82.7085C46.496 81.242 46.5861 79.7678 46.5307 78.2987C46.5191 77.6575 46.5294 77.0176 46.5372 76.3764Z" fill="#6BAA76"/>
<path d="M52.7263 51.2708C52.5821 51.2064 52.4366 51.1446 52.2898 51.0828C52.1675 52.0858 52.0298 53.0927 52.0542 54.1047C52.1405 54.4768 52.2602 54.8398 52.3568 55.2094C52.5152 53.8999 52.5628 52.5789 52.7263 51.2708Z" fill="#6BAA75"/>
<path d="M20.6707 54.8643C19.49 56.1467 18.4175 57.5269 17.3733 58.9213C15.6661 61.2286 14.2807 63.7483 12.8631 66.2384C12.1009 67.6238 11.2923 68.986 10.5752 70.3971C10.6588 70.4666 10.8262 70.6057 10.9099 70.6739C12.6378 67.6547 14.2807 64.5852 16.1064 61.6239C17.4647 59.4569 19.0536 57.4458 20.7158 55.5068C20.699 55.2918 20.6836 55.078 20.6707 54.8643Z" fill="#6BAA75"/>
<path d="M37.0519 67.8607C36.9425 67.8671 36.7236 67.8774 36.6142 67.8838C36.6013 68.1439 36.5768 68.4066 36.555 68.6679C36.4082 71.4542 36.2511 74.2404 36.0502 77.024C35.6846 81.9643 35.2829 86.911 34.5116 91.8062C34.6752 91.8088 34.8374 91.8126 34.9983 91.8178C35.3357 89.6959 35.5623 87.5599 35.8005 85.4265C36.394 79.5849 36.7854 73.7254 37.0519 67.8607Z" fill="#6BAA75"/>
<path d="M28.3792 78.3914C28.1693 78.9914 28.1049 79.6261 27.9517 80.2403C27.9092 80.0562 27.868 79.8733 27.8281 79.6905C27.7534 80.3446 27.7418 81.0025 27.6787 81.6579C27.3749 84.8175 27.0633 87.9771 26.6114 91.1199C26.771 91.1444 26.9294 91.1676 27.0878 91.1907C27.6453 86.9393 28.1139 82.6724 28.3792 78.3914Z" fill="#6BAA75"/>
<path d="M54.3654 51.9674C53.822 51.7292 53.2671 51.5155 52.7263 51.2708C52.5628 52.579 52.5152 53.9 52.3568 55.2094C52.4972 55.763 52.4778 56.3823 52.7984 56.8729C53.6958 58.0278 54.5933 59.184 55.5641 60.2784C56.9134 61.8647 58.4855 63.2333 59.9816 64.6741C59.5902 63.9556 59.0584 63.3286 58.5807 62.6681C57.3177 60.9878 55.9722 59.3707 54.5675 57.8076C54.3383 57.6042 54.5083 57.2901 54.5263 57.0377C57.3718 60.1394 60.0009 63.4651 62.1433 67.0946L62.2296 67.2053C62.594 66.9427 62.9558 66.6787 63.297 66.389C60.8262 62.4067 57.9331 58.6973 54.7465 55.2635C54.7684 55.0678 54.7915 54.8734 54.8121 54.6802C56.298 56.1377 57.6202 57.7536 58.9335 59.3656C60.6395 61.508 62.2206 63.7483 63.6729 66.071C63.933 65.8406 64.1776 65.5959 64.4416 65.3719C64.3759 64.7938 63.9948 64.3367 63.7038 63.8578C62.6339 62.2445 61.4468 60.7136 60.2777 59.1724C58.6232 57.0531 56.9585 54.9416 55.228 52.8854C54.9551 52.5687 54.7774 52.1296 54.3654 51.9674Z" fill="#A4DA8E"/>
<path d="M22.114 51.2477C21.2719 51.7601 20.4028 52.297 19.8299 53.121C19.1333 54.1343 18.3737 55.1051 17.6771 56.1197C15.0531 59.9501 12.2528 63.671 9.94679 67.71C9.71504 68.1658 9.39959 68.6165 9.36998 69.1431C9.66611 69.6465 10.1605 69.9954 10.5751 70.3971C11.2923 68.986 12.1008 67.6238 12.8631 66.2384C14.2806 63.7483 15.666 61.2286 17.3733 58.9213C18.4175 57.5269 19.49 56.1467 20.6706 54.8643C20.6835 55.0781 20.699 55.2918 20.7157 55.5068C19.0535 57.4458 17.4647 59.457 16.1063 61.6239C14.2806 64.5852 12.6377 67.6547 10.9099 70.6739C11.0219 70.7615 11.1326 70.8478 11.2433 70.9353C11.5832 70.3791 11.9695 69.8538 12.3545 69.3298C13.427 68.0551 14.4725 66.7495 15.742 65.6603C15.8282 65.4363 15.8978 65.2084 16.0111 64.9985C17.2613 62.8329 18.4857 60.6492 19.8891 58.5776C20.1634 58.163 20.4659 57.7677 20.8007 57.4008C20.8007 57.6802 20.8947 58.002 20.7015 58.2441C19.4372 60.0222 18.3415 61.9136 17.242 63.7959C17.1145 64.029 17.0256 64.28 16.9175 64.5234C17.8716 63.8539 18.7226 63.0505 19.5531 62.238C19.9857 61.6367 20.641 61.2531 21.0582 60.6389C21.6556 60.0634 22.1874 59.4261 22.7062 58.7784C22.5955 56.2639 22.4964 53.7403 22.114 51.2477Z" fill="#A4DA8E"/>
<path d="M36.5163 67.853C36.0322 67.8118 35.5494 67.7538 35.0614 67.7525C34.6571 75.77 34.146 83.7939 33.0194 91.747C33.5164 91.7714 34.0146 91.7959 34.5116 91.8062C35.2828 86.911 35.6846 81.9643 36.0502 77.0241C36.2511 74.2404 36.4082 71.4542 36.5549 68.668C36.5433 68.395 36.5279 68.1233 36.5163 67.853Z" fill="#A4DA8E"/>
<path d="M34.5863 67.7809C34.0739 67.8298 33.5601 67.8723 33.0438 67.8993L33.0387 68.0512C32.6692 75.5614 32.1696 83.0729 31.1885 90.5303C31.1486 90.8843 31.0816 91.2358 30.9825 91.5796L30.9568 91.6298C31.4859 91.6543 32.0112 91.7083 32.5391 91.7238C33.6747 83.8248 34.1872 75.8511 34.5824 67.8864L34.5863 67.7809Z" fill="#A4DA8E"/>
<path d="M38.6807 67.9778C38.1399 67.9212 37.5966 67.8839 37.0519 67.8607C36.7854 73.7254 36.394 79.585 35.8005 85.4265C35.5623 87.5599 35.3357 89.6959 34.9983 91.8178C35.5301 91.8307 36.0605 91.8384 36.591 91.8461C37.5 83.951 38.2313 76.0326 38.6742 68.0963L38.6807 67.9778Z" fill="#A4DA8E"/>
<path d="M40.4781 68.1787C40.0352 68.1247 39.5948 68.0487 39.1519 67.983C39.1287 68.3036 39.0927 68.6242 39.0695 68.9461C38.9755 71.713 38.7193 74.4709 38.5133 77.2314C38.0948 82.1124 37.6597 86.9947 37.0404 91.8552C37.6777 91.8667 38.3137 91.8822 38.9498 91.8886C39.5575 84.1544 40.1716 76.4176 40.5502 68.668C40.5296 68.5032 40.5064 68.341 40.4781 68.1787Z" fill="#A4DA8E"/>
<path d="M32.5662 67.9611C32.037 68.0796 31.5117 68.2238 30.9954 68.3912L30.9876 68.5856C30.6233 76.2245 30.1173 83.8686 29.0396 91.4444C29.3795 91.4792 29.7181 91.5165 30.0581 91.5448C30.2306 91.5551 30.4018 91.5642 30.5718 91.5706C31.6507 83.7424 32.1992 75.8511 32.5662 67.9611Z" fill="#A4DA8E"/>
<path d="M42.4209 68.4401C41.9587 68.3693 41.4965 68.2933 41.0304 68.2483C40.6725 76.1395 40.0377 84.0154 39.4197 91.8886C40.0326 91.8848 40.6467 91.8848 41.2596 91.8861C41.5815 84.3579 42.1222 76.8412 42.4827 69.3143C42.4647 69.0221 42.4415 68.7311 42.4209 68.4401Z" fill="#A4DA8E"/>
<path d="M44.2441 69.1688C43.8939 68.8302 43.4909 68.4671 42.9617 68.5727C42.6643 76.3494 42.0334 84.1106 41.736 91.8873C42.4763 91.8886 43.2166 91.8654 43.957 91.8538C43.8849 84.3256 44.0638 76.8 44.2441 69.2757V69.1688Z" fill="#A4DA8E"/>
<path d="M30.4996 68.6989C29.5919 69.2577 29.4773 70.3984 29.3035 71.3499C29.0344 73.1576 28.8786 74.982 28.5555 76.782C28.4885 77.3176 28.4357 77.8545 28.3791 78.3914C28.1138 82.6725 27.6452 86.9394 27.0877 91.1908C27.4804 91.2423 27.8692 91.3105 28.2632 91.3517C28.3469 91.3401 28.5168 91.3195 28.6005 91.3092C29.6202 83.8119 30.1803 76.2567 30.4996 68.6989Z" fill="#A4DA8E"/>
<path d="M46.0376 76.9236C45.5149 74.9576 45.341 72.9156 44.7951 70.9559C44.7449 71.18 44.6895 71.404 44.6445 71.6306C44.6162 74.7554 44.49 77.879 44.4668 81.0038C44.387 84.6166 44.4269 88.2307 44.3998 91.8449C45.1724 91.8294 45.9449 91.8101 46.7174 91.7766C46.4316 88.3235 46.2191 84.8626 46.1367 81.3965C46.0672 79.9069 46.12 78.4133 46.0376 76.9236Z" fill="#A4DA8E"/>
<path d="M47.2556 82.2424C47.0702 81.6798 46.9724 81.0824 46.6724 80.5674C46.6093 81.2794 46.675 81.9939 46.6415 82.7085C46.7419 85.7265 46.9312 88.7419 47.1887 91.7521C48.0822 91.7084 48.9758 91.6646 49.868 91.5938C49.4766 89.8723 49.1857 88.1264 48.9925 86.3728C48.9565 86.2286 48.9191 86.0857 48.8831 85.9428C48.1543 84.8008 47.6638 83.5274 47.2556 82.2424Z" fill="#A4DA8E"/>
<path d="M27.6787 81.6579C27.6478 81.6321 27.5834 81.5793 27.5512 81.5536C27.1495 83.1694 26.5367 84.7389 25.7062 86.1823C25.4873 87.6797 25.3612 89.1912 25.1242 90.6861C25.159 90.7401 25.2272 90.8483 25.262 90.9024C25.7114 90.9809 26.1633 91.0427 26.6113 91.1199C27.0633 87.9771 27.3749 84.8175 27.6787 81.6579Z" fill="#A4DA8E"/>
<path d="M51.3487 89.723C50.9032 88.7986 50.374 87.8973 49.6556 87.157C49.6401 87.2342 49.6092 87.3874 49.5938 87.4647C49.8229 88.8333 50.0071 90.2136 50.3586 91.5564C50.8337 91.514 51.3088 91.4702 51.7826 91.4225C51.9036 90.8174 51.5624 90.2651 51.3487 89.723Z" fill="#A4DA8E"/>
<path d="M32.8623 51.8387C32.113 51.6468 31.3417 51.4807 30.5654 51.5618C31.8877 51.8914 33.21 52.2532 34.4717 52.7734C35.2056 53.0644 35.9138 53.7468 36.7571 53.4352C37.0236 53.2086 37.2374 52.9266 37.4022 52.6215C36.8588 52.6125 36.4172 53.0863 35.8584 52.9524C34.7949 52.7786 33.8962 52.1116 32.8623 51.8387Z" fill="#F89F7B"/>
<path d="M46.4355 52.9897C45.8355 52.9176 45.2213 52.9369 44.6355 53.0991C43.3029 53.4519 41.9369 53.6747 40.6171 54.0802C40.1098 54.2579 39.5717 54.1691 39.0631 54.048C39.4004 54.697 40.1691 54.8128 40.8231 54.6725C41.9253 54.0789 43.1639 53.8845 44.36 53.5717C45.0488 53.3682 45.7814 53.3077 46.4355 52.9897Z" fill="#F5A07C"/>
<path d="M31.446 54.8025C30.8344 54.6042 30.1868 54.5733 29.5495 54.6326C31.0804 55.1398 32.6563 55.5055 34.1807 56.0373C34.5361 56.1673 34.8516 56.3823 35.1799 56.5664C35.7992 56.69 36.4996 56.6141 36.9155 56.0875C36.452 56.0875 35.9704 56.139 35.5236 55.9793C34.1923 55.4952 32.7979 55.2197 31.446 54.8025Z" fill="#F79F7B"/>
<path d="M45.8947 56.1956C44.9213 56.0283 43.9261 56.1403 42.954 56.2639C42.3372 56.3553 41.7192 56.1956 41.1012 56.2626C41.3124 56.3978 41.521 56.5677 41.7785 56.5973C42.5162 56.6797 43.2578 56.5793 43.9917 56.5072C44.3007 56.5188 44.8891 56.3295 44.9278 56.7892C44.9239 58.1411 45.1505 59.4891 45.0205 60.841C45.4402 61.0406 45.8599 61.2428 46.2938 61.4114C46.4355 61.4642 46.5797 61.5157 46.7226 61.5634C47.0651 61.6664 47.4127 61.7488 47.7616 61.8221C48.4955 61.9586 49.4341 62.0809 49.9672 61.432C49.4084 61.217 48.7749 61.1153 48.3191 60.6981C47.9496 60.3647 47.6161 59.9501 47.5067 59.4544C47.4294 58.9265 47.602 58.3973 47.5273 57.8707C47.3612 57.0609 46.6711 56.4235 45.8947 56.1956Z" fill="#F8A37E"/>
<path d="M34.6494 58.0175C33.1173 58.3407 31.616 57.5476 30.0838 57.8591C29.1645 58.0523 28.4487 58.8647 28.3225 59.7904C28.3186 60.0673 28.4551 60.3273 28.4487 60.6054C28.3624 60.984 28.2092 61.3522 28.007 61.6857C27.4856 62.3912 26.6435 62.7337 25.8054 62.8882C26.2908 63.5487 27.2101 63.4638 27.9337 63.4097C28.1757 63.3646 28.4139 63.3093 28.6508 63.2552C28.8105 63.2178 28.9701 63.1805 29.1272 63.1445C29.6242 63.0157 30.0928 62.8045 30.5602 62.5973C30.192 61.1951 29.9345 59.7235 30.1134 58.275C30.3954 58.2441 30.6748 58.2068 30.9542 58.1707C32.1851 58.1295 33.4314 58.6677 34.643 58.2673C34.6443 58.2042 34.6481 58.0806 34.6494 58.0175Z" fill="#F8A37E"/>
<path d="M62.1434 67.0946C60.0009 63.465 57.3718 60.1394 54.5263 57.0377C54.5083 57.29 54.3384 57.6042 54.5675 57.8076C55.9722 59.3707 57.3177 60.9878 58.5808 62.6681C59.0584 63.3286 59.5902 63.9556 59.9816 64.674C60.731 65.4543 61.4365 66.2744 62.1434 67.0946Z" fill="#6CAA76"/>
<path d="M44.7217 69.1173C44.6741 69.4405 44.602 69.7585 44.5351 70.0791C44.4372 69.81 44.3162 69.5512 44.2441 69.2757C44.0638 76.8 43.8849 84.3256 43.957 91.8538C44.0677 91.8513 44.2891 91.8474 44.3999 91.8448C44.4269 88.2307 44.387 84.6166 44.4668 81.0038C44.49 77.879 44.6162 74.7554 44.6445 71.6306C44.6175 70.7898 44.7861 69.9581 44.7217 69.1173Z" fill="#6CAA76"/>
<path d="M20.8007 57.4008C20.466 57.7677 20.1634 58.163 19.8892 58.5776C18.4858 60.6492 17.2613 62.8328 16.0111 64.9985C15.8978 65.2083 15.8283 65.4362 15.742 65.6603C16.1618 65.3101 16.5596 64.9354 16.9175 64.5234C17.0257 64.28 17.1145 64.029 17.242 63.7959C18.3416 61.9136 19.4372 60.0222 20.7016 58.2441C20.8947 58.002 20.8007 57.6802 20.8007 57.4008Z" fill="#6BAA74"/>
<path d="M46.2938 61.4114C45.8599 61.2427 45.4402 61.0406 45.0205 60.841C44.9664 61.3084 44.8659 61.7693 44.79 62.2354C44.9883 62.7659 44.893 63.3337 44.8775 63.8848C44.835 65.6294 44.7668 67.3727 44.7217 69.1173C44.7861 69.9581 44.6175 70.7898 44.6445 71.6306C44.6896 71.4039 44.7449 71.1799 44.7951 70.9559C45.341 72.9155 45.5149 74.9575 46.0376 76.9236C46.0376 76.8644 46.0402 76.7433 46.0402 76.6828C46.0891 71.5932 46.0775 66.4984 46.2938 61.4114Z" fill="#90C27D"/>
<path d="M47.7616 61.8221C47.4127 61.7488 47.0651 61.6664 46.7226 61.5634C46.7161 62.6822 46.6737 63.7998 46.6569 64.9187C46.5333 68.7375 46.5616 72.5576 46.5372 76.3764C46.5294 77.0176 46.5191 77.6575 46.5307 78.2987C46.5861 79.7678 46.496 81.242 46.6415 82.7085C46.6749 81.9939 46.6093 81.2793 46.6724 80.5673C46.9724 81.0823 47.0702 81.6798 47.2556 82.2424C47.6638 83.5274 48.1543 84.8007 48.8831 85.9428C48.762 84.3398 48.5637 82.7407 48.5097 81.1325C48.4994 80.4901 48.529 79.8463 48.4852 79.2051C48.4054 77.9614 48.4749 76.7163 48.4865 75.4739C48.5187 72.51 48.6011 69.5473 48.6977 66.586C48.7144 65.9139 48.6938 65.2393 48.82 64.5762C48.435 63.6698 48.0809 62.7517 47.7616 61.8221Z" fill="#90C27D"/>
<path d="M30.5602 62.5972C30.0928 62.8045 29.6241 63.0157 29.1271 63.1444C29.046 66.0929 28.9778 69.0439 28.8053 71.9898C28.7447 73.5876 28.5928 75.1829 28.5555 76.782C28.8786 74.982 29.0344 73.1576 29.3035 71.3499C29.4773 70.3984 29.5919 69.2576 30.4996 68.6988C30.5087 68.5508 30.5177 68.404 30.5254 68.2572C30.5962 66.8036 30.6413 65.3487 30.6735 63.8938C30.6825 63.6633 30.7675 63.447 30.8228 63.2294C30.7224 63.0234 30.6387 62.811 30.5602 62.5972Z" fill="#90C27D"/>
<path d="M44.396 63.2372C44.0484 63.5384 43.6312 63.7638 43.1728 63.8346C43.0583 65.377 43.0814 66.9272 42.9668 68.4697L42.9617 68.5727C43.4909 68.4671 43.8939 68.8302 44.2441 69.1688C44.3097 67.1925 44.3908 65.2148 44.396 63.2372Z" fill="#90C27D"/>
<path d="M28.6508 63.2552C28.4139 63.3092 28.1757 63.3646 27.9337 63.4097C27.6659 64.2466 27.2744 65.0358 26.9114 65.8367C27.0852 66.2809 27.0195 66.7611 27.0066 67.2259C26.7916 73.5567 26.35 79.8798 25.7062 86.1822C26.5367 84.7389 27.1496 83.1694 27.5513 81.5536C27.5834 81.5793 27.6478 81.6321 27.6787 81.6579C27.7418 81.0025 27.7534 80.3446 27.8281 79.6905C28.271 74.2224 28.5465 68.74 28.6508 63.2552Z" fill="#90C27D"/>
<path d="M32.7361 64.0727C32.1774 64.0663 31.6083 63.9491 31.1422 63.626C31.1164 65.2148 31.0688 66.8036 30.9954 68.3911C31.5117 68.2238 32.037 68.0795 32.5662 67.9611C32.5765 67.7924 32.5881 67.6276 32.5971 67.4615C32.6589 66.3324 32.6576 65.2006 32.7361 64.0727Z" fill="#90C27D"/>
<path d="M42.6797 63.8912C42.184 63.926 41.6858 63.9594 41.1875 63.9723C41.1605 65.3976 41.0999 66.8229 41.0304 68.2482C41.4965 68.2933 41.9587 68.3692 42.421 68.4401C42.4416 68.731 42.4647 69.022 42.4828 69.3143C42.4982 69.1405 42.5149 68.9654 42.5252 68.7928C42.5381 67.1577 42.6488 65.5251 42.6797 63.8912Z" fill="#90C27D"/>
<path d="M40.7382 63.9814C40.2734 63.9917 39.8073 64.0071 39.3412 64.0303C39.2639 65.3474 39.2305 66.6659 39.1519 67.983C39.5948 68.0487 40.0352 68.1246 40.4781 68.1787C40.5064 68.3409 40.5296 68.5032 40.5502 68.668C40.5592 68.5315 40.5682 68.395 40.5759 68.2611C40.6352 66.8345 40.6673 65.4067 40.7382 63.9814Z" fill="#90C27D"/>
<path d="M38.8081 64.0444C38.2699 64.047 37.7305 64.0599 37.191 64.0715C37.1884 65.3358 37.1125 66.5989 37.0519 67.8607C37.5966 67.8839 38.1399 67.9212 38.6807 67.9778C38.709 66.6658 38.879 65.3577 38.8081 64.0444Z" fill="#90C27D"/>
<path d="M34.7138 64.0933C34.2065 64.0921 33.6992 64.083 33.1906 64.0805C33.17 65.3538 33.1031 66.6272 33.0438 67.8993C33.5601 67.8723 34.0739 67.8298 34.5863 67.7808C34.6211 66.5512 34.7254 65.3242 34.7138 64.0933Z" fill="#90C27D"/>
<path d="M51.2586 69.8448C50.5388 68.377 49.8165 66.9079 49.1728 65.4041C49.0981 69.7469 48.932 74.0898 48.9333 78.4352C48.8985 79.0751 48.8328 79.7189 48.923 80.3601C49.0376 82.5283 49.2243 84.6939 49.4985 86.8479C49.5281 87.0526 49.5616 87.2587 49.5938 87.4647C49.6092 87.3874 49.6401 87.2342 49.6556 87.1569C50.374 87.8973 50.9032 88.7985 51.3487 89.723C51.5624 90.265 51.9036 90.8174 51.7826 91.4225C52.0607 91.3903 52.3362 91.3363 52.613 91.3092C51.6809 88.344 51.18 85.2501 51.0023 82.1497C50.7152 78.5536 51.0088 74.9486 51.0834 71.3512C51.1053 70.8452 51.0513 70.3199 51.2586 69.8448Z" fill="#90C27D"/>
<path d="M26.5727 66.5899C26.0345 67.7397 25.4332 68.8598 24.8461 69.9864C24.8796 70.4834 24.8641 70.9817 24.8242 71.4774C24.5242 77.4309 24.0427 83.3755 23.3384 89.2955C24.053 88.7393 24.532 87.9552 25.1023 87.2664C25.7474 81.4648 26.1748 75.6412 26.4388 69.8113C26.4903 68.7375 26.4787 67.6611 26.5727 66.5899Z" fill="#90C27D"/>
<path d="M53.0405 73.258C52.5718 72.3439 52.0736 71.4465 51.6036 70.5336C51.4916 72.734 51.4401 74.9357 51.3615 77.1373C51.3049 78.8124 51.3822 80.4875 51.4195 82.1639C51.6667 84.5883 51.9435 87.023 52.5615 89.3869C52.6967 90.0294 52.9877 90.6448 52.9864 91.3105C53.007 91.3659 53.0482 91.4753 53.0688 91.5307C53.0856 91.4882 53.1165 91.4045 53.1319 91.3633C53.1525 91.3208 53.1937 91.2371 53.2143 91.1946C54.0576 91.1882 54.8842 90.5161 54.8508 89.6316C54.8417 88.2784 54.3229 87.0024 53.9237 85.729C53.2413 83.6741 52.9066 81.5047 52.9349 79.3403C52.971 77.3125 52.9323 75.2833 53.0405 73.258Z" fill="#90C27D"/>
<path d="M24.3994 70.8156C23.8586 71.8417 23.2522 72.8318 22.6805 73.8413C22.7294 74.776 22.5904 75.7056 22.5311 76.6378C22.3406 79.218 22.0651 81.793 21.7161 84.3578C21.4445 86.1835 21.2089 88.0195 20.7814 89.8169C21.3363 90.0062 21.9015 90.1672 22.4693 90.3114C22.535 90.3088 22.665 90.3036 22.7307 90.3011C23.5625 83.8325 24.0466 77.3253 24.3994 70.8156Z" fill="#90C27D"/>
<path d="M22.199 74.6537C21.5835 75.7056 20.905 76.7189 20.2741 77.7618C20.1634 78.8407 20.0256 79.9197 19.9999 81.0051C20.0527 83.5055 19.2904 85.9183 18.8012 88.344C18.6068 89.0006 19.3857 89.2582 19.8363 89.4951C20.0127 89.5633 20.193 89.6225 20.372 89.6818C21.3067 84.7183 21.8848 79.6931 22.199 74.6537Z" fill="#90C27D"/>
<path d="M46.7226 61.5633C46.5797 61.5157 46.4355 61.4642 46.2938 61.4114C46.0775 66.4984 46.0891 71.5932 46.0402 76.6828C46.2063 76.5785 46.3724 76.4768 46.5372 76.3764C46.5617 72.5576 46.5333 68.7375 46.6569 64.9186C46.6737 63.7998 46.7162 62.6822 46.7226 61.5633Z" fill="#6AA06F"/>
<path d="M44.8775 63.8848C44.893 63.3337 44.9883 62.7659 44.79 62.2354C44.7179 62.5882 44.5981 62.9359 44.396 63.2371C44.3909 65.2148 44.3097 67.1924 44.2441 69.1688V69.2757C44.3162 69.5512 44.4372 69.81 44.5351 70.0791C44.602 69.7585 44.6741 69.4405 44.7217 69.1173C44.7668 67.3727 44.8351 65.6294 44.8775 63.8848Z" fill="#6AA06F"/>
<path d="M29.1271 63.1445C28.9701 63.1806 28.8104 63.2179 28.6507 63.2552C28.5465 68.7401 28.2709 74.2224 27.828 79.6906C27.8679 79.8734 27.9091 80.0562 27.9516 80.2403C28.1048 79.6262 28.1692 78.9914 28.3791 78.3915C28.4357 77.8546 28.4885 77.3177 28.5555 76.782C28.5928 75.1829 28.7447 73.5877 28.8053 71.9898C28.9778 69.044 29.046 66.0929 29.1271 63.1445Z" fill="#69A06E"/>
<path d="M22.5311 76.6379C22.5903 75.7057 22.7294 74.7761 22.6804 73.8413C22.5208 74.1117 22.3547 74.3795 22.1989 74.6538C21.8847 79.6932 21.3066 84.7184 20.3719 89.6818C20.5097 89.7243 20.6461 89.7694 20.7813 89.817C21.2088 88.0196 21.4444 86.1836 21.7161 84.3579C22.065 81.7931 22.3405 79.2181 22.5311 76.6379Z" fill="#69A06E"/>
<path d="M31.1422 63.626C31.0327 63.4947 30.9271 63.3633 30.8228 63.2294C30.7675 63.447 30.6825 63.6633 30.6735 63.8938C30.6413 65.3487 30.5962 66.8036 30.5254 68.2572C30.5589 68.5392 30.7186 68.6474 30.9876 68.5856L30.9954 68.3911C31.0688 66.8036 31.1164 65.2148 31.1422 63.626Z" fill="#6AA06D"/>
<path d="M43.1729 63.8346C43.0093 63.8565 42.8458 63.8745 42.6797 63.8912C42.6488 65.5251 42.5381 67.1577 42.5252 68.7929C42.6733 68.686 42.8214 68.5779 42.9668 68.4697C43.0814 66.9272 43.0583 65.3771 43.1729 63.8346Z" fill="#68A16E"/>
<path d="M41.1874 63.9724C41.0754 63.9749 40.8501 63.9788 40.7381 63.9814C40.6673 65.4067 40.6351 66.8345 40.5759 68.2611C40.6892 68.2585 40.9171 68.2508 41.0304 68.2482C41.0999 66.8229 41.1604 65.3976 41.1874 63.9724Z" fill="#68A16E"/>
<path d="M39.3412 64.0302C39.1648 64.0354 38.9871 64.0418 38.8081 64.0444C38.879 65.3577 38.709 66.6658 38.6807 67.9778L38.6742 68.0963C38.7335 68.0873 38.8519 68.0705 38.9112 68.0615C38.9691 68.3551 39.0283 68.6486 39.0695 68.946C39.0927 68.6242 39.1287 68.3036 39.1519 67.983C39.2305 66.6658 39.2639 65.3474 39.3412 64.0302Z" fill="#69A16D"/>
<path d="M37.191 64.0715C37.0764 64.074 36.8485 64.0779 36.7339 64.0805C36.6863 65.3474 36.6322 66.6143 36.6142 67.8839C36.7236 67.8774 36.9425 67.8671 37.0519 67.8607C37.1124 66.5989 37.1884 65.3358 37.191 64.0715Z" fill="#69A16E"/>
<path d="M51.2586 69.8448C51.0513 70.3199 51.1054 70.8452 51.0835 71.3512C51.0088 74.9485 50.7152 78.5536 51.0024 82.1497C51.18 85.2501 51.6809 88.344 52.6131 91.3092C52.7071 91.3092 52.8937 91.3105 52.9864 91.3105C52.9877 90.6448 52.6968 90.0294 52.5616 89.3869C51.9435 87.023 51.6667 84.5883 51.4195 82.1639C51.3822 80.4875 51.3049 78.8124 51.3616 77.1373C51.4401 74.9357 51.4916 72.734 51.6036 70.5336C51.4955 70.3005 51.3783 70.0714 51.2586 69.8448Z" fill="#69A16E"/>
<path d="M24.8242 71.4773C24.8642 70.9816 24.8796 70.4834 24.8461 69.9864C24.6955 70.2606 24.541 70.5349 24.3994 70.8156C24.0466 77.3253 23.5625 83.8325 22.7307 90.3011C22.665 90.3036 22.535 90.3088 22.4693 90.3114C22.6934 90.3642 22.9174 90.4182 23.1402 90.471C23.2007 90.077 23.2831 89.6882 23.3384 89.2955C24.0427 83.3754 24.5242 77.4309 24.8242 71.4773Z" fill="#69A16E"/>
<path d="M36.7339 64.0805C36.2279 64.0844 35.7207 64.0895 35.2147 64.0921C35.1335 65.3114 35.1297 66.5332 35.0614 67.7525C35.5494 67.7538 36.0322 67.8118 36.5164 67.853C36.5279 68.1234 36.5434 68.395 36.555 68.668C36.5769 68.4066 36.6013 68.144 36.6142 67.8839C36.6322 66.6144 36.6863 65.3474 36.7339 64.0805Z" fill="#90C17E"/>
<path d="M35.2146 64.0921C35.0485 64.0921 34.8811 64.0921 34.7138 64.0934C34.7253 65.3242 34.621 66.5513 34.5863 67.7809L34.5824 67.8864C34.7434 67.8401 34.903 67.7963 35.0614 67.7525C35.1296 66.5332 35.1335 65.3114 35.2146 64.0921Z" fill="#6AA16E"/>
<path d="M33.1906 64.0805C33.0773 64.0793 32.8494 64.0741 32.7361 64.0728C32.6576 65.2007 32.6589 66.3324 32.5971 67.4616C32.6331 67.6187 32.6704 67.777 32.7091 67.9367C32.7915 67.965 32.9563 68.023 33.0387 68.0513L33.0438 67.8994C33.1031 66.6273 33.17 65.3539 33.1906 64.0805Z" fill="#6AA06E"/>
<path d="M48.8199 64.5762C48.6938 65.2393 48.7144 65.9139 48.6976 66.586C48.6011 69.5473 48.5187 72.5099 48.4865 75.4738C48.4749 76.7163 48.4054 77.9614 48.4852 79.2051C48.529 79.8463 48.4994 80.4901 48.5097 81.1325C48.5637 82.7407 48.762 84.3398 48.883 85.9428C48.9191 86.0857 48.9564 86.2286 48.9925 86.3728C49.1006 86.5234 49.2101 86.6728 49.3169 86.826C49.362 86.8312 49.4534 86.8427 49.4985 86.8479C49.2242 84.6939 49.0375 82.5282 48.9229 80.36C48.8328 79.7188 48.8985 79.0751 48.9332 78.4352C48.932 74.0897 49.0981 69.7469 49.1727 65.4041C49.0633 65.1247 48.9397 64.8504 48.8199 64.5762Z" fill="#69A06F"/>
<path d="M27.0066 67.226C27.0195 66.7612 27.0851 66.2809 26.9113 65.8367C26.7954 66.0839 26.677 66.335 26.5727 66.5899C26.4787 67.6611 26.4903 68.7375 26.4388 69.8113C26.1748 75.6413 25.7474 81.4648 25.1023 87.2664C24.98 88.4432 24.8204 89.6148 24.6633 90.7878C24.8641 90.8277 25.0624 90.8676 25.262 90.9024C25.2272 90.8483 25.159 90.7401 25.1242 90.6861C25.3611 89.1912 25.4873 87.6797 25.7062 86.1823C26.3499 79.8798 26.7916 73.5567 27.0066 67.226Z" fill="#69A16F"/>
<path d="M63.5146 66.2062C63.4606 66.2512 63.3524 66.3427 63.297 66.389C62.9558 66.6787 62.594 66.9426 62.2297 67.2053C62.7473 67.8452 63.1902 68.5418 63.6794 69.2036C64.0477 68.9254 64.3361 68.5637 64.5086 68.1336C64.1571 67.5014 63.8481 66.8474 63.5146 66.2062Z" fill="#F89870"/>
<path d="M49.317 86.826C49.2101 86.6728 49.1007 86.5234 48.9925 86.3728C49.1856 88.1264 49.4766 89.8723 49.868 91.5937C50.0328 91.5809 50.1964 91.568 50.3586 91.5564C50.0071 90.2135 49.823 88.8333 49.5938 87.4646C49.5616 87.2586 49.5281 87.0526 49.4985 86.8479C49.4534 86.8428 49.362 86.8312 49.317 86.826Z" fill="#6CAB76"/>
<path d="M25.1024 87.2664C24.532 87.9552 24.053 88.7393 23.3384 89.2955C23.2831 89.6882 23.2007 90.077 23.1402 90.471C23.6474 90.5766 24.1573 90.6757 24.6633 90.7878C24.8204 89.6148 24.98 88.4432 25.1024 87.2664Z" fill="#A5DA8E"/>
<path d="M20.372 89.6818C20.193 89.6226 20.0127 89.5633 19.8363 89.4951C19.611 90.2045 19.3896 90.9152 19.1784 91.6298C19.7771 91.7418 20.3642 91.9079 20.9526 92.0599C22.0805 92.3032 23.2367 92.4036 24.3633 92.6457C24.9968 92.8337 25.6637 92.8555 26.2933 93.0538C27.3092 93.3667 28.3765 93.4311 29.4117 93.6551C29.6576 93.7156 29.9113 93.7027 30.1611 93.6899C30.4675 93.31 30.8177 92.9701 31.1628 92.6277C31.2709 92.7088 31.3778 92.7899 31.4821 92.8774C31.3482 93.0358 31.2156 93.1967 31.0752 93.3538L31.2426 93.3294C31.8773 93.1452 32.2662 93.7246 32.6833 94.0839C33.4855 94.1778 34.285 94.2899 35.0949 94.2783C37.3777 94.4946 39.6914 94.7083 41.969 94.3298C43.3325 94.2783 44.6703 93.968 46.0376 93.9924C47.2337 93.8379 48.4389 93.8869 49.6414 93.8869C50.4165 93.8907 51.1826 93.7169 51.959 93.7517C52.5049 93.7787 53.0547 93.7478 53.5877 93.6152C53.4165 92.9199 53.271 92.2169 53.0688 91.5307C53.0482 91.4753 53.007 91.3659 52.9864 91.3105C52.8937 91.3105 52.707 91.3092 52.613 91.3092C52.3362 91.3363 52.0607 91.3903 51.7826 91.4225C51.3088 91.4702 50.8337 91.5139 50.3586 91.5564C50.1963 91.568 50.0328 91.5809 49.868 91.5938C48.9758 91.6646 48.0822 91.7084 47.1887 91.7521C47.0316 91.7599 46.8745 91.7676 46.7174 91.7766C45.9449 91.8101 45.1724 91.8294 44.3999 91.8448C44.2891 91.8474 44.0677 91.8513 43.957 91.8538C43.2166 91.8654 42.4763 91.8886 41.736 91.8873C41.5776 91.886 41.4192 91.886 41.2596 91.886C40.6467 91.8847 40.0326 91.8847 39.4197 91.8886C39.2639 91.8886 39.1068 91.8886 38.9498 91.8886C38.3137 91.8822 37.6777 91.8667 37.0403 91.8551C36.9283 91.8538 36.7043 91.8487 36.591 91.8461C36.0605 91.8384 35.5301 91.8307 34.9983 91.8178C34.8374 91.8126 34.6751 91.8088 34.5116 91.8062C34.0146 91.7959 33.5164 91.7714 33.0194 91.747C32.8597 91.738 32.7001 91.7302 32.5391 91.7238C32.0112 91.7084 31.4859 91.6543 30.9568 91.6298C30.7443 91.6478 30.5306 91.6697 30.3156 91.6929C30.3632 91.9259 30.3954 92.1654 30.4018 92.4062C30.6439 92.2131 30.8821 92.0161 31.1151 91.8152C31.2207 91.8242 31.4306 91.8448 31.5349 91.8551C31.137 92.4822 30.519 92.9238 30.0194 93.4671C29.9203 93.3976 29.825 93.3229 29.7388 93.2379C29.7915 93.1182 29.8418 92.9997 29.8907 92.8826C29.6795 92.844 29.4658 92.8092 29.2521 92.7744C29.1812 92.6779 29.1104 92.5826 29.0383 92.4886C29.3306 92.4641 29.6229 92.4397 29.9139 92.4178C29.9602 92.1255 30.0066 91.8345 30.0581 91.5448C29.7182 91.5165 29.3795 91.4792 29.0396 91.4444C28.7821 91.4135 28.522 91.38 28.2632 91.3517C27.8693 91.3105 27.4804 91.2423 27.0877 91.1908C26.9294 91.1676 26.771 91.1444 26.6113 91.12C26.1633 91.0427 25.7114 90.9809 25.262 90.9024C25.0624 90.8676 24.8642 90.8277 24.6633 90.7878C24.1573 90.6758 23.6474 90.5766 23.1402 90.471C22.9174 90.4182 22.6934 90.3642 22.4693 90.3114C21.9015 90.1672 21.3363 90.0062 20.7814 89.817C20.6462 89.7693 20.5097 89.7243 20.372 89.6818Z" fill="#145C50"/>
<path d="M30.9825 91.5796C30.8795 91.577 30.6748 91.5732 30.5718 91.5706C30.4018 91.5642 30.2306 91.5552 30.0581 91.5449C30.0066 91.8346 29.9602 92.1255 29.9139 92.4178C29.6229 92.4397 29.3306 92.4642 29.0383 92.4886C29.1104 92.5826 29.1812 92.6779 29.2521 92.7745C29.4658 92.8092 29.6795 92.844 29.8907 92.8826C29.8418 92.9998 29.7915 93.1182 29.7388 93.238C29.825 93.3229 29.9203 93.3976 30.0194 93.4671C30.519 92.9238 31.137 92.4822 31.5349 91.8552C31.4306 91.8449 31.2207 91.8243 31.1151 91.8152C30.8821 92.0161 30.6439 92.2131 30.4018 92.4062C30.3954 92.1655 30.3632 91.926 30.3156 91.6929C30.5306 91.6697 30.7443 91.6479 30.9568 91.6298L30.9825 91.5796Z" fill="#27695F"/>
<path d="M20.9526 92.0598C20.3642 91.9079 19.7771 91.7418 19.1784 91.6298C19.0123 92.2015 18.8398 92.7731 18.7381 93.3615C18.3119 95.71 17.9926 98.0752 17.6257 100.433C17.1634 103.385 16.8956 106.363 16.5686 109.333H56.9211C55.9864 104.058 54.8289 98.8258 53.5877 93.6152C53.0547 93.7478 52.5049 93.7787 51.959 93.7516C51.1826 93.7169 50.4165 93.8907 49.6414 93.8868C48.4389 93.8868 47.2338 93.8379 46.0376 93.9924C44.6703 93.9679 43.3325 94.2782 41.969 94.3297C39.6914 94.7083 37.3777 94.4946 35.0949 94.2782C34.285 94.2898 33.4855 94.1778 32.6834 94.0838C32.2559 94.6426 31.7396 95.1242 31.2233 95.5993C31.1383 95.5027 31.0533 95.4087 30.9671 95.3147C31.0727 95.1628 31.1782 95.0134 31.2838 94.8641C31.0894 94.6594 30.7881 94.4662 30.8242 94.1443C30.895 93.8418 31.0907 93.592 31.2426 93.3293L31.0752 93.3538C30.8731 93.5315 30.6671 93.7079 30.4637 93.8855C30.3632 93.8186 30.2628 93.7529 30.1611 93.6898C29.9113 93.7027 29.6577 93.7156 29.4117 93.6551C28.3766 93.431 27.3092 93.3667 26.2933 93.0538C25.6637 92.8555 24.9968 92.8336 24.3633 92.6457C23.2367 92.4036 22.0805 92.3032 20.9526 92.0598ZM33.2138 94.6079C33.613 94.7958 33.5589 95.2928 33.4881 95.6533C33.7353 95.6314 33.9992 95.531 34.2348 95.6456C34.5374 95.7486 34.6159 96.0885 34.7589 96.3383C35.279 96.5327 35.5172 97.0954 35.9987 97.3477C36.3296 97.2846 35.7618 96.628 36.2279 96.6357C36.3979 96.7529 36.5614 96.9074 36.6219 97.1108C36.5305 97.4147 36.4558 97.7237 36.3914 98.0353C36.2305 98.0971 36.0348 98.0417 35.8854 98.1357C35.6717 98.3237 35.4915 98.5464 35.3061 98.764C35.2121 98.6494 35.0898 98.5657 34.9584 98.4988C35.1928 98.2516 35.3949 97.9773 35.6382 97.7417C35.57 97.5705 35.5056 97.3979 35.4464 97.2254C35.082 97.4649 34.8425 98.0172 34.3559 97.9825C34.2026 97.631 34.634 97.4353 34.7923 97.1752C34.9816 96.9975 34.7653 96.7555 34.7048 96.5713C34.455 96.816 34.2091 97.1726 33.8087 97.1211C33.4095 97.1469 33.1327 96.7941 33.0439 96.4426C33.0155 96.2327 33.3091 96.2211 33.425 96.1233C33.1585 95.8014 32.6988 96.198 32.3859 95.9456C32.0782 95.804 31.9868 95.4718 31.9031 95.1757C32.2417 95.1499 32.4529 95.4229 32.6756 95.6314C32.8134 95.325 32.3756 95.1345 32.2314 94.9066C32.4155 94.5576 32.8636 94.3825 33.2138 94.6079ZM37.4485 97.9065C37.6017 98.0584 37.7562 98.2104 37.9069 98.3649C37.6944 98.3906 37.4833 98.4177 37.2695 98.4486C37.7125 98.5426 38.1631 98.6262 38.6163 98.5812C38.7927 98.5889 38.9974 98.5155 39.1506 98.6275C38.9755 99.1309 38.7257 99.6395 38.8751 100.187C38.9111 100.091 38.9845 99.9035 39.0206 99.8082C39.1326 99.9975 39.2498 100.18 39.3592 100.371C39.1403 100.448 38.9124 100.505 38.6858 100.561C38.3807 100.67 38.1335 100.939 37.7923 100.948C37.1614 100.961 36.4919 100.474 36.479 99.8043C36.3979 99.2842 36.8125 98.894 37.1022 98.5194C37.1035 98.4679 37.1047 98.3649 37.106 98.3134C37.155 98.2812 37.2515 98.2168 37.3004 98.1846C37.3571 98.0945 37.4099 98.0031 37.4485 97.9065Z" fill="#156356"/>
<path d="M31.4821 92.8774C31.3778 92.7899 31.2709 92.7088 31.1628 92.6277C30.8177 92.9701 30.4675 93.31 30.161 93.6899C30.2628 93.753 30.3632 93.8186 30.4636 93.8856C30.6671 93.7079 30.8731 93.5315 31.0752 93.3538C31.2155 93.1967 31.3482 93.0358 31.4821 92.8774Z" fill="#286A60"/>
<path d="M32.6833 94.0839C32.2662 93.7246 31.8774 93.1452 31.2426 93.3294C31.0907 93.592 30.895 93.8418 30.8242 94.1444C30.7881 94.4663 31.0894 94.6594 31.2838 94.8641C31.1782 95.0135 31.0726 95.1628 30.9671 95.3147C31.0533 95.4087 31.1383 95.5027 31.2233 95.5993C31.7396 95.1242 32.2559 94.6426 32.6833 94.0839Z" fill="#266A5F"/>
<path d="M33.2138 94.6078C32.8636 94.3825 32.4155 94.5576 32.2314 94.9066C32.3756 95.1344 32.8134 95.325 32.6756 95.6314C32.4529 95.4229 32.2417 95.1499 31.9031 95.1756C31.9868 95.4718 32.0782 95.804 32.3859 95.9456C32.6988 96.198 33.1584 95.8014 33.425 96.1233C33.3091 96.2211 33.0155 96.2327 33.0438 96.4426C33.1327 96.7941 33.4095 97.1469 33.8086 97.1211C34.2091 97.1726 34.455 96.816 34.7048 96.5713C34.7653 96.7554 34.9816 96.9975 34.7923 97.1752C34.6339 97.4353 34.2026 97.631 34.3558 97.9825C34.8425 98.0172 35.082 97.4649 35.4464 97.2254C35.5056 97.3979 35.57 97.5705 35.6382 97.7417C35.3949 97.9773 35.1927 98.2516 34.9584 98.4988C35.0897 98.5657 35.212 98.6494 35.306 98.764C35.4914 98.5464 35.6717 98.3237 35.8854 98.1357C36.0348 98.0417 36.2305 98.0971 36.3914 98.0353C36.4558 97.7237 36.5305 97.4147 36.6219 97.1108C36.5614 96.9074 36.3979 96.7529 36.2279 96.6357C35.7618 96.628 36.3296 97.2846 35.9987 97.3477C35.5172 97.0954 35.279 96.5327 34.7588 96.3383C34.6159 96.0885 34.5374 95.7486 34.2348 95.6456C33.9992 95.531 33.7352 95.6314 33.488 95.6533C33.5589 95.2928 33.6129 94.7958 33.2138 94.6078Z" fill="#287064"/>
<path d="M37.4485 97.9065C37.4099 98.0031 37.3571 98.0945 37.3004 98.1846C37.2515 98.2168 37.1549 98.2812 37.106 98.3134C37.1047 98.3649 37.1034 98.4679 37.1021 98.5194C36.8125 98.8941 36.3979 99.2842 36.479 99.8043C36.4919 100.474 37.1614 100.961 37.7923 100.948C38.1335 100.939 38.3807 100.67 38.6858 100.561C38.9124 100.505 39.1403 100.448 39.3592 100.371C39.2498 100.18 39.1326 99.9975 39.0206 99.8082C38.9845 99.9035 38.9111 100.091 38.8751 100.187C38.7257 99.6395 38.9755 99.131 39.1506 98.6275C38.9974 98.5155 38.7927 98.5889 38.6163 98.5812C38.1631 98.6263 37.7124 98.5426 37.2695 98.4486C37.4833 98.4177 37.6944 98.3906 37.9069 98.3649C37.7562 98.2104 37.6017 98.0585 37.4485 97.9065Z" fill="#276F63"/>
</svg>
