<svg width="97" height="86" viewBox="0 0 97 86" fill="none" xmlns="http://www.w3.org/2000/svg">
<path d="M37.516 2.01909C42.478 -0.371791 48.3318 -0.457179 53.6164 0.81416C57.9618 1.80561 61.7521 5.04563 63.2226 9.2771C64.2094 12.1186 64.66 15.112 65.0822 18.0769C65.6847 22.1518 64.9541 26.2457 65.0111 30.3301C64.864 33.6792 64.7834 37.5264 62.345 40.1071C59.1525 41.8623 55.3479 41.7721 51.8138 42.1611L51.6003 41.5966C51.3489 40.9135 51.05 40.2399 50.7037 39.5947C51.0406 39.1251 51.3916 38.6555 51.7189 38.1763C54.6601 37.5834 57.4494 36.0748 59.2853 33.6602C60.9883 31.6014 61.7805 28.9876 62.2929 26.407C63.8109 25.9041 65.1486 24.481 64.4513 22.7827C63.4456 21.7818 62.0462 21.3453 60.865 20.6053C56.8185 18.2476 53.9533 14.3008 52.3356 9.96021C52.4495 12.4033 53.0235 14.8274 54.3897 16.8862C50.4239 15.8235 46.3537 14.1063 44.015 10.539C42.0131 13.0532 39.5084 15.0835 37.146 17.2372C35.0302 19.0398 33.0758 21.1746 30.3955 22.147C30.2627 20.2543 30.2248 18.3473 30.5663 16.4734C31.0217 13.8976 31.1118 11.1651 32.4354 8.83593C33.5691 6.1035 37.0274 5.14051 37.516 2.01909Z" fill="#9E6C49"/>
<path d="M30.6232 10.795C31.5387 7.06167 34.0055 3.68883 37.5159 2.01901C37.0273 5.14043 33.5691 6.10343 32.4353 8.83586C31.1118 11.1651 31.0216 13.8975 30.5662 16.4734C30.2247 18.3472 30.2626 20.2542 30.3955 22.147C29.8641 23.1621 29.7456 24.2864 30.2674 25.3348C30.2342 27.5786 30.0397 29.8177 30.1535 32.0615C30.2769 34.6564 31.7949 37.0046 31.5577 39.6469C28.7588 35.5624 29.5463 30.3443 29.1905 25.6811C28.6165 20.6764 29.4514 15.648 30.6232 10.795Z" fill="#8C6E54"/>
<path d="M52.3355 9.96016C53.9531 14.3007 56.8184 18.2476 60.8649 20.6053C62.0461 21.3453 63.4455 21.7817 64.4512 22.7827C65.1485 24.4809 63.8108 25.9041 62.2928 26.4069C61.7804 28.9875 60.9882 31.6014 59.2852 33.6602C57.4493 36.0748 54.66 37.5833 51.7188 38.1763C51.4959 37.2038 51.2729 35.9562 50.2008 35.5672C49.1761 35.5387 47.9427 35.4154 47.2217 36.3167C46.8754 37.2038 46.7473 38.1573 46.5528 39.0824C47.6771 38.9116 48.7966 38.7218 49.9162 38.5084C49.7169 39.0492 49.5272 39.5899 49.3374 40.1355C48.9816 39.9125 48.6306 39.6943 48.2796 39.4761C48.161 40.6715 48.0471 41.8717 47.9333 43.0672C48.1515 42.9723 48.5879 42.7778 48.8109 42.6782C48.9152 43.2 49.0196 43.7218 49.124 44.2436C46.3441 44.4855 43.6164 43.8546 41.1354 42.6165C41.6477 42.4505 42.1648 42.2892 42.6819 42.1326C43.2132 40.9372 43.7492 39.7465 44.2948 38.5605C41.1686 37.9391 37.9381 36.8623 35.8034 34.3623C33.7019 32.1896 32.8337 29.2153 32.1649 26.35C31.5245 26.0179 30.8888 25.6906 30.2673 25.3348C29.7455 24.2864 29.8641 23.1622 30.3954 22.147C33.0757 21.1745 35.0301 19.0398 37.1459 17.2372C39.5083 15.0835 42.013 13.0531 44.0149 10.5389C46.3536 14.1062 50.4238 15.8235 54.3896 16.8861C53.0234 14.8273 52.4494 12.4032 52.3355 9.96016ZM35.8793 19.7514C37.6819 19.1442 39.5842 19.1536 41.4437 18.8738C41.5576 18.6461 41.7853 18.1907 41.8991 17.9582C39.7312 17.8254 37.5965 18.4136 35.8793 19.7514ZM52.6012 17.8254C52.6154 18.1242 52.6439 18.7314 52.6581 19.0303C54.5841 18.9212 56.5053 19.1442 58.3364 19.7561C56.714 18.4278 54.66 17.9345 52.6012 17.8254ZM36.3821 20.9848L36.7426 21.7011C36.4058 21.6489 35.7369 21.554 35.4049 21.5066C35.6943 21.6963 36.2825 22.0853 36.5719 22.2798L36.3062 22.351C36.4058 22.536 36.6003 22.9107 36.6999 23.0957C36.5529 23.2381 36.2635 23.5274 36.1165 23.6697C36.5292 24.3196 36.9039 25.0028 37.4163 25.5862C38.2464 26.0132 39.2284 26.0084 40.1345 25.9278C41.3394 25.1451 42.0889 23.5369 41.624 22.1233L41.3109 22.0569C39.8688 20.9895 38.0756 21.0796 36.3821 20.9848ZM53.3127 21.5066C53.6448 21.535 54.3137 21.5967 54.6457 21.6299C53.9437 21.9098 53.2653 22.2371 52.5774 22.555C52.6012 23.5606 52.1932 25.0834 53.5926 25.3016L53.5642 24.462C53.8678 24.9031 54.2473 25.2732 54.6979 25.5673L53.7302 25.6384C54.6078 25.9373 55.6325 26.184 56.5053 25.7238C57.2453 25.1119 57.6011 24.1821 58.0376 23.3519C57.715 22.9772 57.3877 22.6071 57.0556 22.2419C57.6391 22.3415 58.1182 21.9762 58.6353 21.7817C58.3744 21.6062 57.8526 21.2504 57.5916 21.0701C56.159 21.1081 54.7074 21.1176 53.3127 21.5066ZM44.8356 29.7086C45.9883 29.9505 47.3213 30.6763 48.4503 30.0264C49.3991 29.1156 47.8906 28.3092 47.0557 28.238C46.0073 27.8917 45.4523 29.1014 44.8356 29.7086ZM40.827 31.4164C42.179 33.8452 44.864 35.9609 47.7909 35.3537C50.1581 35.2162 52.326 33.7788 53.3459 31.6393C52.9949 31.682 52.2833 31.7627 51.9275 31.8006C51.5101 32.1374 51.1258 32.5312 50.6515 32.7921C48.3555 31.6061 45.6562 31.9809 43.2606 32.6166C42.4684 32.1754 41.6904 31.7105 40.827 31.4164Z" fill="#FADEBB"/>
<path d="M35.8793 19.7514C37.5966 18.4136 39.7313 17.8254 41.8992 17.9582C41.7854 18.1907 41.5577 18.6461 41.4438 18.8738C39.5842 19.1536 37.682 19.1442 35.8793 19.7514Z" fill="#936534"/>
<path d="M52.6012 17.8254C54.66 17.9345 56.7141 18.4279 58.3365 19.7561C56.5054 19.1442 54.5841 18.9212 52.6581 19.0303C52.6439 18.7315 52.6154 18.1243 52.6012 17.8254Z" fill="#936534"/>
<path d="M25.3149 68.9873C26.2921 68.9256 27.165 69.4427 28.0141 69.8507C28.2513 70.752 28.1896 71.6913 28.071 72.6068C27.3595 72.7254 26.6479 72.8488 25.9268 72.9341C25.4382 72.9104 24.9544 72.882 24.4657 72.844C24.2286 71.9854 24.0008 71.122 23.7589 70.2634C23.9249 70.2871 24.257 70.3345 24.423 70.3583C24.6934 69.8839 24.9923 69.4237 25.3149 68.9873ZM26.5151 72.5736C28.0853 71.9474 27.2551 69.6467 25.96 69.1012C25.1062 70.216 24.9828 71.9854 26.5151 72.5736Z" fill="#936534"/>
<path d="M36.3822 20.9847C38.0757 21.0796 39.8689 20.9895 41.311 22.0568C39.7218 21.535 38.1042 21.6062 36.5719 22.2798C36.2826 22.0853 35.6943 21.6963 35.405 21.5065C35.737 21.554 36.4059 21.6489 36.7427 21.701L36.3822 20.9847Z" fill="#3C3D3D"/>
<path d="M53.3128 21.5065C54.7075 21.1175 56.1591 21.1081 57.5917 21.0701C57.8526 21.2504 58.3744 21.6062 58.6354 21.7817C58.1183 21.9762 57.6392 22.3414 57.0557 22.2418C56.2872 21.924 55.4855 21.6441 54.6458 21.6299C54.3138 21.5967 53.6449 21.535 53.3128 21.5065Z" fill="#3C3D3D"/>
<path d="M37.8101 22.7684C38.6498 22.4933 39.9116 22.0805 40.386 23.1526C41.3158 24.4382 39.5226 26.2361 38.2655 25.2209C37.3215 24.7655 37.7864 23.5654 37.8101 22.7684Z" fill="#3C3D3D"/>
<path d="M36.572 22.2798C38.1042 21.6062 39.7219 21.5351 41.311 22.0569L41.6241 22.1233C42.089 23.5369 41.3395 25.1451 40.1346 25.9278C39.2285 26.0085 38.2465 26.0132 37.4164 25.5863C36.904 25.0028 36.5293 24.3197 36.1166 23.6698C36.2636 23.5275 36.553 23.2381 36.7001 23.0958C36.6004 22.9108 36.4059 22.536 36.3063 22.351L36.572 22.2798ZM37.8101 22.7684C37.7864 23.5654 37.3215 24.7656 38.2655 25.221C39.5226 26.2362 41.3158 24.4383 40.386 23.1527C39.9116 22.0806 38.6498 22.4933 37.8101 22.7684Z" fill="#F8F5F5"/>
<path d="M54.6459 21.6299C55.4855 21.6442 56.2872 21.9241 57.0557 22.2419C57.3878 22.6072 57.7151 22.9772 58.0377 23.3519C57.6013 24.1821 57.2455 25.1119 56.5054 25.7238C55.6326 26.184 54.6079 25.9373 53.7303 25.6385L54.6981 25.5673C54.8973 25.5531 55.2958 25.5246 55.495 25.5104C55.9267 25.017 56.8565 24.5047 56.4912 23.722C56.3821 22.7542 55.0349 21.5873 54.2616 22.8776C54.2332 22.9013 54.1762 22.9487 54.1478 22.9724C53.607 23.3377 53.4125 23.8311 53.5643 24.462L53.5927 25.3016C52.1933 25.0834 52.6013 23.5607 52.5776 22.555C53.2654 22.2372 53.9438 21.9098 54.6459 21.6299Z" fill="#F8F5F5"/>
<path d="M54.1477 22.9724C54.1762 22.9487 54.2331 22.9012 54.2616 22.8775C54.2331 22.9012 54.1762 22.9487 54.1477 22.9724Z" fill="#060000"/>
<path d="M54.2615 22.8775C55.0348 21.5872 56.382 22.7542 56.4911 23.7219C56.8564 24.5046 55.9266 25.017 55.4949 25.5103C55.2957 25.5245 54.8972 25.553 54.698 25.5672C54.2473 25.2731 53.8678 24.9031 53.5642 24.4619C53.4124 23.831 53.6069 23.3376 54.1477 22.9724C54.1761 22.9487 54.2331 22.9012 54.2615 22.8775Z" fill="#3E3D3F"/>
<path d="M30.2674 25.3348C30.8889 25.6906 31.5246 26.0179 32.165 26.35C32.8338 29.2153 33.702 32.1896 35.8035 34.3623C37.9382 36.8623 41.1687 37.9391 44.2949 38.5606C43.7493 39.7465 43.2133 40.9372 42.682 42.1326C38.9486 41.7294 34.831 41.9714 31.5578 39.8319V39.6469C31.795 37.0046 30.2769 34.6564 30.1536 32.0616C30.0397 29.8177 30.2342 27.5787 30.2674 25.3348Z" fill="#9E6C4C"/>
<path d="M44.8356 29.7086C45.4523 29.1014 46.0074 27.8918 47.0557 28.2381C47.8906 28.3092 49.3992 29.1157 48.4504 30.0265C47.3214 30.6764 45.9884 29.9506 44.8356 29.7086Z" fill="#E7CCA3"/>
<path d="M40.8271 31.4164C41.6905 31.7105 42.4684 32.1754 43.2607 32.6166C45.5329 33.8452 48.2986 33.7456 50.6515 32.7921C51.1259 32.5312 51.5101 32.1374 51.9276 31.8006C52.2834 31.7627 52.9949 31.682 53.346 31.6393C52.3261 33.7788 50.1581 35.2162 47.791 35.3537C44.8641 35.9609 42.1791 33.8452 40.8271 31.4164Z" fill="#B25F76"/>
<path d="M43.2606 32.6166C45.6562 31.9809 48.3555 31.6061 50.6515 32.7921C48.2985 33.7456 45.5329 33.8452 43.2606 32.6166Z" fill="#FFE5F6"/>
<path d="M47.2217 36.3167C47.9428 35.4154 49.1762 35.5387 50.2008 35.5672C51.2729 35.9562 51.4959 37.2038 51.7189 38.1763C51.3915 38.6554 51.0405 39.1251 50.7037 39.5947C50.4428 39.2294 50.1819 38.8689 49.9162 38.5084C48.7967 38.7218 47.6771 38.9116 46.5529 39.0824C46.7474 38.1573 46.8754 37.2038 47.2217 36.3167Z" fill="#C07168"/>
<path d="M49.9163 38.5084C50.1819 38.8689 50.4428 39.2294 50.7037 39.5947C51.05 40.2398 51.3489 40.9135 51.6003 41.5966C51.5529 41.7199 51.458 41.9618 51.4106 42.0804C50.7274 41.9476 50.0491 41.7863 49.3707 41.6203C49.181 41.9713 48.996 42.3271 48.811 42.6782C48.588 42.7778 48.1516 42.9723 47.9333 43.0671C48.0472 41.8717 48.1611 40.6715 48.2796 39.4761C48.6307 39.6943 48.9817 39.9125 49.3375 40.1355C49.5273 39.5899 49.717 39.0491 49.9163 38.5084Z" fill="#D1D0B6"/>
<path d="M49.3707 41.6203C50.0491 41.7863 50.7274 41.9476 51.4106 42.0804C51.3299 42.4931 51.1734 43.3233 51.0927 43.736C50.9552 44.5235 50.8555 45.3157 50.7701 46.1126C49.9257 45.7758 49.0576 45.5007 48.1895 45.2256C48.792 45.2066 49.3992 45.1829 50.0016 45.1591C49.7075 44.8508 49.4182 44.5472 49.124 44.2436C49.0197 43.7218 48.9153 43.1999 48.811 42.6781C48.996 42.3271 49.181 41.9713 49.3707 41.6203Z" fill="#B5C0BA"/>
<path d="M36.4296 43.0719C37.9239 42.5785 39.5795 42.2322 41.1355 42.6165C43.6165 43.8546 46.3442 44.4855 49.124 44.2436C49.4181 44.5472 49.7075 44.8508 50.0016 45.1591C49.3992 45.1829 48.792 45.2066 48.1895 45.2256C48.0804 46.0842 47.7815 46.9523 47.9381 47.8157C48.365 48.6506 49.2853 49.0586 50.0538 49.5187C50.0016 51.1553 50.0253 52.7967 50.1202 54.438C50.7844 54.419 51.4485 54.4048 52.1126 54.3858C52.1885 53.1098 52.2597 51.8337 52.3213 50.5528C54.2189 52.8251 56.2302 54.9978 58.123 57.2701C58.716 58.8166 59.2615 60.382 59.9209 61.9048C59.8308 61.9048 59.6505 61.9048 59.5604 61.9048C59.2663 61.8716 58.6733 61.8099 58.3744 61.7767C58.1183 60.3393 57.976 58.8166 57.179 57.55C56.216 56.013 54.8213 54.8175 53.569 53.5225C52.5016 54.7796 51.1639 55.8042 49.4134 55.5528C49.4181 54.1154 49.5794 52.6496 49.2616 51.236C48.6781 49.9741 47.6297 49.0016 47.0557 47.7398C46.8897 46.9191 47.07 46.0794 47.013 45.2493C45.9694 44.7417 44.7929 44.6326 43.7019 44.2721C42.3072 43.8831 40.9552 43.0624 39.4609 43.3233C38.0662 43.5178 36.6431 43.8072 35.4049 44.5045C33.5644 45.847 32.3025 47.8109 31.2541 49.7986L31.1545 49.7227C30.5426 49.3622 30.4524 48.6411 30.9742 48.1572C32.4021 46.1269 33.9581 43.8783 36.4296 43.0719Z" fill="#BD7C8E"/>
<path d="M51.0927 43.7361C53.6116 41.9714 57.122 42.1374 59.6979 43.6981C61.586 45.0074 62.6533 47.1326 63.5878 49.163C63.0897 49.5045 62.5916 49.8508 62.0935 50.2019C61.3535 50.7237 60.6135 51.255 59.8592 51.7578C59.2662 52.1421 58.6685 52.5168 58.0661 52.8869C55.4902 50.4391 52.8668 47.8916 51.6524 44.4524C51.4437 45.0833 51.2397 45.7142 51.0357 46.3499C50.9693 46.2882 50.8365 46.1744 50.7701 46.1127C50.8555 45.3157 50.9551 44.5235 51.0927 43.7361Z" fill="#E06994"/>
<path d="M39.4609 43.3233C40.9552 43.0624 42.3072 43.8831 43.7019 44.2721C44.793 44.6326 45.9694 44.7417 47.0131 45.2493C47.07 46.0795 46.8897 46.9191 47.0558 47.7398C47.6298 49.0017 48.6781 49.9741 49.2616 51.236C49.5795 52.6496 49.4182 54.1155 49.4134 55.5528C51.1639 55.8043 52.5016 54.7796 53.569 53.5225C54.8214 54.8176 56.216 56.013 57.179 57.55C57.976 58.8166 58.1183 60.3393 58.3745 61.7767C55.9409 61.4684 53.4884 61.4636 51.0358 61.4494C49.6174 61.4304 48.2038 61.5443 46.7948 61.6866C43.5359 60.5054 40.0397 61.0936 36.7143 60.439C36.0833 59.6515 36.6289 58.679 36.8708 57.8536C37.5349 55.9276 38.7826 54.2104 39.1336 52.18C39.2617 51.5159 38.8253 50.5766 38.052 50.6572C36.3632 50.866 34.6649 51.2882 32.9619 50.9466C32.3784 50.5813 31.8092 50.1971 31.2542 49.7986C32.3025 47.811 33.5644 45.847 35.405 44.5045C36.6431 43.8072 38.0662 43.5178 39.4609 43.3233Z" fill="#E36692"/>
<path d="M51.0358 46.3499C51.2398 45.7142 51.4438 45.0833 51.6525 44.4524C52.8669 47.8916 55.4902 50.4391 58.0661 52.8869C58.4788 54.4903 59.8972 55.3774 61.2967 56.051C61.3204 54.4808 60.8697 52.977 59.8593 51.7578C60.6136 51.255 61.3536 50.7237 62.0936 50.2019C63.6069 52.4552 63.4171 55.2493 63.5405 57.8347C63.7065 58.9447 62.6629 60.0026 61.586 59.9694C60.3716 59.1534 59.3138 58.1288 58.1231 57.2701C56.2303 54.9979 54.2189 52.8252 52.3214 50.5529C52.1554 50.3679 51.8233 49.9931 51.6525 49.8034C51.254 49.7322 50.4523 49.5899 50.0539 49.5188C49.2854 49.0586 48.3651 48.6506 47.9381 47.8157C47.7816 46.9524 48.0804 46.0843 48.1895 45.2256C49.0577 45.5008 49.9258 45.7759 50.7702 46.1127C50.8366 46.1744 50.9694 46.2882 51.0358 46.3499Z" fill="#F7DDC0"/>
<path d="M31.1545 49.7227L31.2542 49.7986C31.8092 50.1971 32.3784 50.5813 32.9619 50.9466C33.4126 51.2407 33.8632 51.5443 34.3044 51.8622C32.6915 52.7018 31.2257 53.7881 29.9401 55.069C31.3158 56.9618 32.4875 59.4143 34.9496 60.0357C35.2105 60.605 35.4572 61.179 35.7086 61.753C39.0245 61.7103 42.3404 61.8811 45.6516 61.9048C45.3053 62.142 44.6032 62.6116 44.2569 62.8441C41.5102 62.5405 38.7588 61.5585 35.9837 62.0898C35.6232 62.5689 35.3907 63.1287 35.1441 63.6742C34.8357 63.8924 34.5369 64.1296 34.2427 64.3621C33.7731 63.9067 33.3035 63.4608 32.8576 62.9864C32.3452 62.1325 31.8993 61.2359 31.4439 60.3488C31.6621 60.1164 31.8756 59.8792 32.0938 59.6515C29.831 59.6183 28.0236 57.8204 26.9942 55.9561C26.1498 52.9485 29.4136 51.4827 31.1545 49.7227Z" fill="#F6DDBF"/>
<path d="M50.0538 49.5188C50.4523 49.5899 51.254 49.7322 51.6525 49.8034C51.8233 49.9931 52.1553 50.3679 52.3214 50.5529C52.2597 51.8337 52.1885 53.1098 52.1126 54.3859C51.4485 54.4049 50.7844 54.4191 50.1202 54.4381C50.0254 52.7967 50.0017 51.1554 50.0538 49.5188Z" fill="#B3B2BD"/>
<path d="M38.052 50.6573C38.8253 50.5766 39.2617 51.5159 39.1336 52.18C38.7826 54.2104 37.5349 55.9276 36.8708 57.8536C36.6289 58.679 36.0833 59.6515 36.7143 60.439C40.0397 61.0936 43.5358 60.5054 46.7948 61.6866C46.5102 61.7435 45.9362 61.8526 45.6516 61.9048C42.3404 61.8811 39.0245 61.7103 35.7086 61.753C35.4572 61.179 35.2105 60.605 34.9496 60.0358C35.9553 56.8954 37.4116 53.9257 38.5549 50.8328C37.5681 51.5064 36.5862 52.1895 35.6042 52.8679C35.2769 52.6164 34.627 52.1136 34.3044 51.8622C33.8632 51.5443 33.4126 51.2407 32.9619 50.9466C34.6649 51.2882 36.3632 50.866 38.052 50.6573Z" fill="#C3818F"/>
<path d="M64.5082 56.6961C68.0708 55.3583 72.0936 55.3346 75.7084 56.4684C73.7824 58.2426 70.993 58.2853 68.5357 58.086C67.0936 57.9911 65.7037 57.5073 64.5082 56.6961Z" fill="#6DC1BD"/>
<path d="M64.1571 56.4827C64.2425 56.5349 64.4228 56.6392 64.5081 56.6962C65.7036 57.5073 67.0935 57.9912 68.5356 58.0861C70.9929 58.2853 73.7823 58.2426 75.7083 56.4685L76.1637 56.1222C76.5669 58.3043 76.5906 60.5908 76.1115 62.7587C74.3278 66.2739 75.547 70.3393 74.4369 74.0205C71.6333 75.3203 68.2178 75.0215 65.6135 73.3754C64.9019 69.4428 65.8791 65.3251 64.5271 61.5111C64.0053 59.8887 64.2093 58.1573 64.1571 56.4827Z" fill="#ABDAE4"/>
<path d="M30.4666 62.1278C30.7939 61.53 31.1165 60.9371 31.4438 60.3488C31.8992 61.2359 32.3452 62.1325 32.8575 62.9864C31.1307 62.9911 29.404 62.8725 27.682 62.7207C28.6023 62.493 29.5368 62.2985 30.4666 62.1278Z" fill="#B9B89A"/>
<path d="M51.0358 61.4494C53.4883 61.4636 55.9409 61.4683 58.3744 61.7767C58.6733 61.8099 59.2663 61.8716 59.5604 61.9048C58.92 62.3175 58.2985 62.7539 57.6723 63.1903C57.383 63.1761 56.8042 63.1429 56.5196 63.1287L56.5481 63.5699C56.3061 63.4038 55.827 63.0717 55.5851 62.9057C54.29 61.8905 52.6344 61.5869 51.0358 61.4494Z" fill="#F4AB9A"/>
<path d="M45.6516 61.9048C45.9362 61.8526 46.5102 61.7435 46.7949 61.6866C48.2038 61.5442 49.6174 61.4304 51.0358 61.4494C52.6345 61.5869 54.2901 61.8905 55.5851 62.9057L55.7085 63.66C53.2227 63.048 50.6421 62.9531 48.1374 63.5129C47.3167 62.9674 46.477 62.4503 45.6516 61.9048Z" fill="#BF504D"/>
<path d="M59.9209 61.9048C61.2065 61.8953 62.4921 61.9001 63.7776 61.8953L63.8868 62.4836C65.011 66.6771 64.3137 71.0698 65.0964 75.2871C67.6676 76.6011 70.7131 76.1125 73.4977 76.0888C74.7026 76.141 76.0451 75.3298 75.9835 73.9968C76.1495 70.5528 76.7472 67.1088 76.5053 63.6505C79.1381 63.7881 81.657 64.6183 84.2187 65.178C88.0232 66.1647 92.0317 67.2368 95.0108 69.9598C96.4719 71.5584 96.1588 73.9446 95.9169 75.9227C95.9359 75.51 95.9643 74.6751 95.9833 74.2624C95.1626 74.732 94.3514 75.2112 93.5403 75.6903C89.3894 78.3136 84.4701 79.0774 79.8022 80.2965C66.6287 82.787 53.161 83.3753 39.7835 82.8629C33.7589 82.4597 27.7153 82.2035 21.7523 81.2121C14.5844 80.0736 7.07497 78.8592 1.01239 74.5755C1.31125 73.1381 1.31125 71.4493 2.53515 70.4247C4.73627 67.9294 8.46016 66.1173 11.7049 67.6163C11.482 67.7017 11.036 67.8725 10.8083 67.9579C10.0493 68.2568 9.29032 68.5509 8.51234 68.8023C8.05219 68.9256 7.5873 69.03 7.12715 69.1533C6.36814 69.3716 5.65657 69.7084 4.93552 70.0309C6.25904 71.511 7.50665 73.1286 9.22391 74.177C10.8036 75.0404 12.6205 75.2918 14.3472 75.7188C17.2979 76.3023 20.3149 77.2368 23.3462 76.5964C25.2959 76.1172 27.4022 76.7529 29.257 75.8516C30.9126 75.1163 32.6156 74.4949 34.2617 73.7359C35.6184 73.1192 36.4344 71.8004 37.6108 70.9512C38.4695 70.5575 39.4419 70.548 40.367 70.4484C47.5111 72.1799 55.8602 71.5774 61.6809 66.6771C61.4627 66.0035 61.4532 65.216 61.012 64.6372C60.0585 63.8593 58.8346 63.5272 57.6724 63.1904C58.2985 62.754 58.92 62.3175 59.5604 61.9048C59.6505 61.9048 59.8308 61.9048 59.9209 61.9048Z" fill="#E8B981"/>
<path d="M64.5271 61.511C65.8791 65.3251 64.9019 69.4427 65.6135 73.3753C68.2178 75.0214 71.6333 75.3203 74.4369 74.0205C75.547 70.3393 74.3278 66.2738 76.1115 62.7587C76.2111 62.9816 76.4056 63.4275 76.5052 63.6505C76.7472 67.1087 76.1494 70.5527 75.9834 73.9967C76.0451 75.3297 74.7026 76.1409 73.4977 76.0887C70.713 76.1125 67.6675 76.6011 65.0964 75.287C64.3137 71.0698 65.011 66.677 63.8867 62.4835C64.048 62.2368 64.3658 61.753 64.5271 61.511Z" fill="#CED4BE"/>
<path d="M35.144 63.6742C35.3907 63.1287 35.6232 62.5689 35.9837 62.0898C38.7588 61.5585 41.5102 62.5405 44.2569 62.8441C45.3053 63.0148 46.3489 63.2425 47.3925 63.4655C47.0368 64.4475 46.2683 65.159 45.3148 65.5623C44.1098 65.4057 42.9049 65.2729 41.6952 65.1828C39.4372 64.9313 37.4827 63.2615 35.144 63.6742Z" fill="#A3C1B8"/>
<path d="M44.2568 62.8441C44.6031 62.6116 45.3052 62.142 45.6515 61.9048C46.4769 62.4503 47.3166 62.9674 48.1373 63.5129C48.8299 64.5708 49.0433 65.8327 49.2805 67.0518C48.6117 67.289 47.9428 67.5357 47.2644 67.7492C46.7473 67.7444 46.235 67.7349 45.7179 67.7207C43.7303 67.4788 41.5481 68.067 39.7645 66.9095C41.4722 65.9702 43.4457 65.9181 45.3147 65.5623C46.2682 65.159 47.0367 64.4475 47.3925 63.4655C46.3489 63.2425 45.3052 63.0148 44.2568 62.8441Z" fill="#CF8487"/>
<path d="M11.8804 65.0499C17.0891 63.9778 22.331 62.7017 27.682 62.7207C29.404 62.8725 31.1308 62.9911 32.8575 62.9864C33.3034 63.4608 33.7731 63.9067 34.2427 64.3621C33.9818 64.5566 33.4695 64.955 33.2133 65.1543C33.2892 65.7615 33.3651 66.364 33.4458 66.9712C33.052 67.289 32.663 67.6068 32.274 67.9247C32.5112 68.4702 32.7437 69.0157 32.9761 69.5613C32.5539 69.2102 32.1365 68.8592 31.7095 68.5176C31.5672 68.3184 31.2778 67.9152 31.1355 67.7159C28.6877 66.9664 26.1308 66.6628 23.5739 66.7103C23.5359 68.6457 23.4316 70.5812 23.6688 72.5072C23.294 71.862 22.9287 71.2169 22.5919 70.5622C22.8955 69.0584 23.0426 67.5309 23.0236 66.0034C22.5208 66.3307 22.0179 66.6628 21.5246 67.0139C18.2703 66.2975 14.9022 66.8905 11.7049 67.6163C8.46015 66.1173 4.73626 67.9294 2.53514 70.4247C1.31124 71.4493 1.31124 73.1381 1.01238 74.5755C0.827368 74.5375 0.457351 74.4616 0.272343 74.4189C0.262855 74.7747 0.24388 75.4863 0.234393 75.8421C0.0541281 73.8212 -0.553078 71.103 1.36816 69.7178C4.30458 67.1135 8.22296 66.1837 11.8804 65.0499ZM22.1176 65.1353C22.3879 66.0082 23.868 65.5101 23.7352 64.6657C23.4648 63.8497 22.0986 64.4095 22.1176 65.1353Z" fill="#E7B987"/>
<path d="M48.1373 63.5129C50.6421 62.9532 53.2227 63.048 55.7084 63.66C55.6278 64.4996 55.8413 65.7994 54.8071 66.1173C52.6819 66.6486 50.476 66.8668 48.4504 67.7539C48.1516 67.7539 47.5633 67.7491 47.2645 67.7491C47.9428 67.5357 48.6117 67.289 49.2806 67.0518C49.0434 65.8327 48.8299 64.5708 48.1373 63.5129Z" fill="#B24438"/>
<path d="M55.585 62.9057C55.8269 63.0717 56.3061 63.4038 56.548 63.5698C56.5765 64.566 56.9133 65.6192 56.567 66.5774C53.9863 67.5262 51.1827 67.8155 48.4503 67.7539C50.4759 66.8668 52.6818 66.6486 54.807 66.1173C55.8412 65.7994 55.6277 64.4996 55.7083 63.66L55.585 62.9057Z" fill="#9D625A"/>
<path d="M56.5196 63.1287C56.8042 63.1429 57.3829 63.1761 57.6723 63.1903C58.8345 63.5272 60.0584 63.8592 61.0119 64.6372C61.4531 65.2159 61.4626 66.0034 61.6808 66.677C55.8602 71.5774 47.5111 72.1798 40.3669 70.4484C37.8906 69.6704 35.4666 68.6267 33.4457 66.9712C33.3651 66.3639 33.2892 65.7615 33.2133 65.1543C33.4694 64.955 33.9818 64.5566 34.2427 64.3621C34.5368 64.1296 34.8356 63.8924 35.144 63.6742C37.4827 63.2615 39.4371 64.9313 41.6952 65.1827C40.7417 65.4531 39.7977 65.7662 38.8584 66.0841C39.1051 66.8288 38.9627 67.9009 39.8214 68.271C41.7995 68.6552 43.7587 67.9057 45.7179 67.7207C46.235 67.7349 46.7473 67.7444 47.2644 67.7491C47.5633 67.7491 48.1515 67.7539 48.4504 67.7539C51.1828 67.8155 53.9864 67.5262 56.567 66.5774C56.9133 65.6192 56.5765 64.566 56.548 63.5698L56.5196 63.1287Z" fill="#F5F3E7"/>
<path d="M22.1176 65.1353C22.0987 64.4095 23.4649 63.8497 23.7353 64.6657C23.8681 65.5101 22.388 66.0082 22.1176 65.1353Z" fill="#916B2C"/>
<path d="M38.8584 66.0841C39.7977 65.7663 40.7417 65.4532 41.6952 65.1828C42.9049 65.2729 44.1098 65.4057 45.3147 65.5623C43.4457 65.9181 41.4722 65.9702 39.7645 66.9095C41.5481 68.067 43.7303 67.4788 45.7179 67.7207C43.7587 67.9057 41.7996 68.6552 39.8214 68.271C38.9628 67.901 39.1051 66.8289 38.8584 66.0841Z" fill="#B18583"/>
<path d="M11.7049 67.6164C14.9023 66.8906 18.2703 66.2976 21.5246 67.0139C19.4326 69.0395 16.4819 70.7141 13.5218 69.5092C12.5968 69.03 11.7097 68.4845 10.8083 67.9579C11.0361 67.8725 11.482 67.7018 11.7049 67.6164Z" fill="#F7F8E3"/>
<path d="M21.5245 67.0139C22.0179 66.6628 22.5207 66.3308 23.0236 66.0034C23.0426 67.531 22.8955 69.0585 22.5919 70.5622C20.7513 69.5803 19.8215 71.7102 19.0862 73.0006C16.9658 73.1951 14.7219 73.4749 12.6963 72.6448C11.2874 71.919 10.3292 70.5954 9.29028 69.4427C10.6565 68.8023 12.1413 69.0917 13.5218 69.5091C16.4819 70.7141 19.4325 69.0395 21.5245 67.0139Z" fill="#ECB449"/>
<path d="M23.5738 66.7102C26.1307 66.6628 28.6877 66.9664 31.1355 67.7159C31.2778 67.9152 31.5671 68.3184 31.7095 68.5176L31.1592 68.5366C30.718 68.9114 30.2721 69.2861 29.8262 69.6514L29.8214 69.5091C29.774 69.2909 29.6744 68.8544 29.6269 68.6362L29.2806 69.0062C28.792 68.9825 28.3034 68.9588 27.8195 68.9398C27.867 69.1675 27.9619 69.6229 28.014 69.8506C27.1649 69.4427 26.292 68.9256 25.3148 68.9873C24.9922 69.4237 24.6934 69.8838 24.423 70.3582C24.2569 70.3345 23.9249 70.2871 23.7588 70.2633C24.0008 71.122 24.2285 71.9854 24.4657 72.844C24.9543 72.8819 25.4382 72.9104 25.9268 72.9341C26.0643 73.1618 26.3442 73.6172 26.4818 73.8449C27.5539 73.3278 28.6212 72.8013 29.6696 72.2415C29.9163 72.3222 30.4097 72.4834 30.6563 72.5688L30.9505 72.6685C31.5292 72.5309 31.9893 72.2225 32.3167 71.7482C32.644 71.065 33.5263 70.344 32.9761 69.5613C32.7436 69.0157 32.5112 68.4702 32.274 67.9247C33.6686 68.437 34.9874 69.1391 36.1402 70.0831C33.4267 73.8781 28.626 75.4531 24.1431 75.733C19.7219 76.1646 15.0919 75.7899 11.0929 73.7121C11.5388 73.7073 12.4259 73.6931 12.8671 73.6884C15.1868 73.7406 17.5207 73.5745 19.8262 73.8639C21.0881 74.9075 22.5492 74.2292 23.7968 73.5555C23.7636 73.2946 23.6972 72.7681 23.6687 72.5072C23.4315 70.5812 23.5359 68.6457 23.5738 66.7102Z" fill="#FAF4E2"/>
<path d="M33.4457 66.9712C35.4666 68.6268 37.8907 69.6704 40.3669 70.4484C39.4419 70.548 38.4694 70.5575 37.6108 70.9512C36.4343 71.8004 35.6184 73.1191 34.2617 73.7358C32.6156 74.4948 30.9125 75.1163 29.257 75.8516C27.4021 76.7529 25.2959 76.1172 23.3462 76.5963C20.3149 77.2368 17.2978 76.3022 14.3472 75.7187C12.6204 75.2918 10.8036 75.0404 9.22388 74.177C7.50663 73.1286 6.25901 71.511 4.93549 70.0309C5.65654 69.7083 6.36811 69.3715 7.12712 69.1533C7.19828 69.8601 7.21251 70.5859 7.3738 71.2833C8.31307 72.4645 9.76468 73.0812 11.0929 73.7121C15.092 75.7899 19.7219 76.1647 24.1431 75.733C28.626 75.4531 33.4268 73.8781 36.1402 70.0831C34.9875 69.1391 33.6687 68.437 32.274 67.9247C32.663 67.6068 33.052 67.289 33.4457 66.9712Z" fill="#D9B993"/>
<path d="M8.51233 68.8023C9.29031 68.5509 10.0493 68.2568 10.8083 67.9579C11.7097 68.4845 12.5967 69.03 13.5218 69.5091C12.1413 69.0917 10.6565 68.8023 9.29031 69.4427C10.3292 70.5955 11.2875 71.919 12.6964 72.6448C14.722 73.475 16.9658 73.1951 19.0863 73.0006C19.2713 73.2188 19.6413 73.6457 19.8263 73.864C17.5208 73.5746 15.1869 73.7406 12.8671 73.6884C10.8842 72.6163 9.20492 70.994 8.51233 68.8023Z" fill="#E5C37E"/>
<path d="M7.1272 69.1533C7.58735 69.03 8.05224 68.9256 8.51239 68.8023C9.20498 70.9939 10.8843 72.6163 12.8672 73.6884C12.426 73.6932 11.5389 73.7074 11.093 73.7121C9.76475 73.0812 8.31315 72.4645 7.37388 71.2833C7.21259 70.586 7.19835 69.8602 7.1272 69.1533Z" fill="#FFF9CF"/>
<path d="M27.8196 68.9399C28.3035 68.9589 28.7921 68.9826 29.2807 69.0063L29.5274 69.5329C28.9629 70.4152 29.2475 71.3829 29.6697 72.2416C28.6213 72.8013 27.5539 73.3279 26.4818 73.845C26.3443 73.6173 26.0644 73.1619 25.9268 72.9342C26.6479 72.8488 27.3594 72.7254 28.071 72.6069C28.1896 71.6913 28.2513 70.752 28.0141 69.8507C27.9619 69.623 27.867 69.1676 27.8196 68.9399Z" fill="#F8CCBE"/>
<path d="M29.627 68.6362C29.6744 68.8544 29.7741 69.2909 29.8215 69.5091L29.5274 69.5328L29.2807 69.0062L29.627 68.6362Z" fill="#79331F"/>
<path d="M29.8262 69.6514C30.2721 69.2862 30.718 68.9114 31.1592 68.5366L31.7095 68.5177C32.1364 68.8592 32.5539 69.2102 32.9761 69.5613C33.5264 70.344 32.644 71.0651 32.3167 71.7482C31.6621 71.511 30.775 71.8099 30.6564 72.5689C30.4097 72.4835 29.9163 72.3222 29.6697 72.2415C29.2475 71.3829 28.9628 70.4152 29.5273 69.5328L29.8215 69.5091L29.8262 69.6514Z" fill="#CD4B3C"/>
<path d="M26.5151 72.5737C24.9828 71.9854 25.1061 70.216 25.96 69.1012C27.2551 69.6467 28.0852 71.9475 26.5151 72.5737Z" fill="#E14B2E"/>
<path d="M19.0863 73.0005C19.8216 71.7102 20.7514 69.5802 22.592 70.5622C22.9288 71.2169 23.2941 71.862 23.6688 72.5072C23.6973 72.7681 23.7637 73.2946 23.7969 73.5556C22.5493 74.2292 21.0882 74.9075 19.8263 73.8639C19.6413 73.6457 19.2713 73.2187 19.0863 73.0005Z" fill="#D54D33"/>
<path d="M30.6564 72.5689C30.775 71.8099 31.6621 71.511 32.3167 71.7482C31.9894 72.2226 31.5292 72.5309 30.9505 72.6685L30.6564 72.5689Z" fill="#A5504C"/>
<path d="M0.272386 74.4189C0.457395 74.4616 0.827412 74.5375 1.01242 74.5755C7.075 78.8591 14.5844 80.0736 21.7523 81.2121C27.7153 82.2035 33.7589 82.4597 39.7835 82.8629C53.161 83.3752 66.6287 82.787 79.8022 80.2965C84.4701 79.0774 89.3895 78.3136 93.5403 75.6903C93.5782 75.9512 93.6636 76.473 93.7063 76.7339C89.3515 80.3582 83.6352 81.5773 78.1941 82.5024C74.0954 83.1048 70.03 84.1342 65.8555 83.935C63.4409 83.7832 61.1211 84.4805 58.9485 85.4767C57.2597 85.8468 55.5092 85.676 53.7967 85.7519C41.0975 86.1409 28.3272 85.453 15.8273 83.0954C10.6803 81.843 5.22017 80.8136 0.974469 77.4123L0.632915 78.5081C0.642403 78.1665 0.670866 77.8202 0.718304 77.4787C0.547527 76.9379 0.386238 76.3876 0.234436 75.8421C0.243924 75.4863 0.262899 74.7747 0.272386 74.4189Z" fill="#D29E67"/>
<path d="M93.5403 75.6903C94.3515 75.2112 95.1627 74.7321 95.9834 74.2624C95.9644 74.6751 95.9359 75.51 95.9169 75.9228C95.6038 76.9759 94.8496 77.8298 93.9103 78.3706C90.0062 80.7804 85.4995 81.9426 81.0641 82.9293C75.6988 84.139 70.215 84.6656 64.7549 85.2016C62.8289 85.4293 60.8887 85.5764 58.9485 85.4768C61.1211 84.4806 63.4409 83.7832 65.8555 83.935C70.03 84.1343 74.0954 83.1049 78.1941 82.5024C83.6352 81.5774 89.3515 80.3582 93.7063 76.7339C93.6636 76.473 93.5782 75.9512 93.5403 75.6903Z" fill="#C7A177"/>
</svg>
