<svg width="120" height="133" viewBox="0 0 120 133" fill="none" xmlns="http://www.w3.org/2000/svg">
<g filter="url(#filter0_d_7_3928)">
<rect x="4" width="112" height="125" rx="11" fill="#BFE6FF"/>
</g>
<path d="M55.3379 24.8899C58.886 24.6404 62.6466 25.0516 65.6126 27.1814C70.3158 30.2352 72.5287 35.9362 72.6812 41.3647C72.8844 47.098 71.4892 53.1548 67.7702 57.6454C65.6357 60.3804 61.815 59.826 58.8537 60.884C55.8507 61.4892 53.0279 62.695 50.0665 63.4342L50.3899 62.9768C50.5655 62.7828 50.741 62.5841 50.9166 62.3901C49.0917 60.8701 47.7057 58.902 46.7679 56.726C45.1832 53.0531 44.0328 49.08 44.2038 45.0468C44.4255 41.2815 44.675 37.3545 46.6015 34.0097C47.5024 32.5128 48.2786 30.9328 49.3227 29.533C51.0644 27.6896 53.4991 26.798 55.6151 25.4905C55.5596 25.3796 55.458 25.1579 55.4025 25.047L55.3379 24.8899Z" fill="white"/>
<path d="M53.0434 24.8713C57.3815 23.2635 62.4219 23.9334 66.2795 26.4467C68.8251 27.8743 71.9713 28.923 73.2972 31.7735C74.1797 33.3535 73.4867 35.1276 73.251 36.7723C74.7756 44.5246 73.4174 53.4087 67.8365 59.3084C75.3116 58.8002 83.2671 60.662 89.0744 65.5731C91.717 67.6844 93.2739 71.3665 92.1836 74.6836C91.5368 76.855 89.4671 78.1578 88.7325 80.2876C85.5771 86.5846 78.6241 89.8879 71.9528 90.992C73.0293 93.2974 74.9373 95.9908 73.5513 98.5549C72.1885 100.26 69.9524 100.902 67.915 101.41C61.096 102.944 53.9073 100.611 48.4973 96.402C46.5015 94.8035 44.6027 92.6367 44.5196 89.9479C44.3255 87.5086 45.3696 85.2356 46.3491 83.0734C43.0504 79.7563 41.3872 75.1225 41.1609 70.5025C35.9126 67.2824 33.4132 61.1518 32.0734 55.3953C30.96 50.1286 30.0268 44.8295 29.0982 39.5304C27.01 37.5623 26.4232 34.3098 27.5967 31.7088C28.7702 29.8562 31.0663 29.3342 33.0205 28.7197C37.7329 27.5278 42.5191 26.65 47.3193 25.9154C49.2319 25.5781 51.2231 25.629 53.0434 24.8713ZM55.5428 24.9822L55.6075 25.1392L55.5289 24.9683C52.489 25.9108 49.4306 27.2783 47.4163 29.847C42.8056 35.0952 41.4565 42.5056 42.302 49.2831C43.0088 54.6561 45.3604 60.14 49.8649 63.3924L50.5948 63.069L50.2714 63.5264C53.2328 62.7872 56.0556 61.5814 59.0586 60.9762C62.0199 59.9182 65.8406 60.4726 67.9751 57.7376C71.6941 53.247 73.0893 47.1903 72.8861 41.4569C72.7336 36.0285 70.5207 30.3274 65.8175 27.2737C62.8515 25.1439 59.0909 24.7327 55.5428 24.9822ZM38.2965 28.4564C34.9424 29.2094 31.3527 29.6991 28.5068 31.7781L28.5392 31.8474C27.7538 33.3397 27.7584 35.1414 28.262 36.7168C28.7517 38.1305 30.1377 38.9113 31.4128 39.5119C34.522 40.8656 37.9639 41.9374 41.378 41.2536C41.7522 39.6274 42.168 38.0058 42.5561 36.3842C44.0391 32.5958 46.289 29.117 49.4583 26.5206C45.7208 27.0704 41.9971 27.6941 38.2965 28.4564ZM69.6891 29.3665C70.9272 31.1544 71.9297 33.0763 72.9277 35.0075C73.1448 32.642 71.7819 30.4106 69.6891 29.3665ZM30.1053 39.8769C30.9877 45.0974 31.9579 50.3041 33.0482 55.4877C34.3372 61.1102 37.0168 66.8851 42.0849 70.0359C42.2281 74.7252 43.9698 79.3405 47.2592 82.7269C47.3054 82.8563 47.4024 83.1104 47.4486 83.2398C45.8871 85.6791 44.7783 88.8022 45.8409 91.6481C47.0652 94.4385 49.6385 96.3142 52.2072 97.7787C56.7717 100.444 62.2417 101.604 67.4715 100.634C69.5089 100.024 72.1238 99.5205 73.094 97.3953C73.2973 95.0946 71.8697 93.071 70.9272 91.0798C70.6962 91.1353 70.2342 91.2461 70.0078 91.3062C67.2035 91.2415 64.353 91.4633 61.618 90.7241C61.0405 90.6317 60.6062 90.2528 60.2551 89.8139L60.8188 89.4905C65.0414 90.9458 69.6567 90.6132 73.944 89.6245C79.6959 88.3771 85.2213 85.0323 88.0811 79.7471C87.0416 80.2368 86.0206 80.8328 84.8749 81.0176C84.8471 81.4842 84.8148 81.9508 84.7824 82.422C84.5514 82.0848 84.3343 81.7521 84.0987 81.4241C82.1583 82.2187 80.084 82.5976 78.0142 82.8794C70.0818 83.8265 61.5949 82.9395 54.6419 78.7538C51.0753 76.587 47.7582 73.1036 47.6103 68.7008C47.4671 66.9175 48.4049 65.319 49.7863 64.261C47.2361 62.8473 45.402 60.4588 44.0714 57.9132C41.5536 53.1223 40.7404 47.5414 41.3503 42.1915C38.6799 42.5703 35.9911 42.1776 33.4502 41.3276C32.3183 40.8887 31.2049 40.3943 30.1053 39.8769ZM65.1477 60.6482C61.4055 61.2765 57.7188 62.2005 54.0967 63.3139C51.93 64.0069 49.583 65.0002 48.5897 67.2131L48.9501 67.5827L48.368 67.324C48.2294 72.0918 51.5835 76.0788 55.552 78.2872C62.7453 82.3573 71.44 83.1012 79.4834 81.7336C83.8769 80.976 88.7002 79.3451 91.024 75.2241C91.4028 73.8613 91.9018 72.4198 91.4537 71.0061C90.6636 67.7675 87.924 65.4945 85.1289 63.9561C79.1184 60.6112 71.9159 59.3777 65.1477 60.6482Z" fill="#32303C"/>
<path d="M47.4163 29.847C49.4306 27.2783 52.489 25.9108 55.5289 24.9683L55.6074 25.1393C55.6629 25.2502 55.7645 25.4719 55.82 25.5828C53.704 26.8902 51.2693 27.7819 49.5276 29.6253C48.4835 31.0251 47.7073 32.6051 46.8064 34.102C44.8799 37.4468 44.6304 41.3738 44.4087 45.1391C44.2377 49.1723 45.3881 53.1454 46.9727 56.8183C47.9106 58.9943 49.2966 60.9624 51.1215 62.4824C50.9459 62.6764 50.7703 62.875 50.5948 63.0691L49.8648 63.3925C45.3604 60.14 43.0088 54.6562 42.302 49.2832C41.4565 42.5057 42.8055 35.0953 47.4163 29.847Z" fill="#EAE9F8"/>
<path d="M38.2965 28.4564C41.997 27.6941 45.7207 27.0704 49.4583 26.5206C46.289 29.1171 44.0391 32.5959 42.556 36.3842C38.4813 37.5808 34.0646 36.6152 30.461 34.5178C29.4816 33.9264 29.0704 32.7992 28.5391 31.8475L28.5068 31.7782C31.3527 29.6992 34.9424 29.2095 38.2965 28.4564Z" fill="#FDFEFF"/>
<path d="M69.689 29.3665C71.7818 30.4106 73.1447 32.6421 72.9276 35.0075C71.9296 33.0764 70.9271 31.1545 69.689 29.3665Z" fill="#ECEEFB"/>
<path d="M62.0291 63.7667C65.5588 62.7919 69.2686 62.3807 72.9183 62.7827C73.8007 62.8566 74.5399 63.3833 75.2976 63.7944C76.8638 63.776 79.0028 64.1455 79.0213 66.1367C72.6642 62.9906 64.6024 63.1384 58.5641 66.9545C58.9337 65.3144 60.3151 64.0762 62.0707 64.3673C62.0614 64.2148 62.0384 63.9146 62.0291 63.7667Z" fill="#ECEEFB"/>
<path d="M28.262 36.7169C27.7584 35.1415 27.7538 33.3397 28.5392 31.8474C29.0704 32.7991 29.4816 33.9264 30.4611 34.5178C34.0646 36.6152 38.4813 37.5808 42.5561 36.3842C42.168 38.0058 41.7522 39.6274 41.378 41.2536C37.9639 41.9374 34.522 40.8656 31.4128 39.5119C30.1377 38.9113 28.7517 38.1306 28.262 36.7169Z" fill="#EAE9F7"/>
<path d="M30.1053 39.8769C31.2048 40.3943 32.3182 40.8887 33.4501 41.3276C33.3716 43.6283 34.12 45.832 34.3372 48.105C34.6328 51.011 35.4275 53.8292 35.9634 56.6935C36.4346 59.3823 37.9777 61.7062 39.2297 64.0855C40.1167 65.7117 42.0109 66.1737 43.4569 67.1161C44.0437 68.1649 43.8173 69.4354 43.9605 70.5857C44.0622 73.7042 45.6745 76.4715 47.1852 79.1049C47.4578 79.0864 47.7258 79.068 47.9937 79.0541C48.2109 79.6593 48.2525 80.3985 48.8115 80.8143C52.4843 83.5632 56.4898 85.9702 60.9296 87.236C63.66 87.8043 66.4643 88.0538 69.2501 88.0076C72.8075 87.6795 76.1015 85.9424 78.8227 83.6925C78.6194 83.4893 78.2175 83.0827 78.0142 82.8794C80.0839 82.5976 82.1583 82.2188 84.0987 81.4241C84.3343 81.7521 84.5514 82.0848 84.7824 82.422C84.8147 81.9508 84.8471 81.4842 84.8748 81.0176C86.0206 80.8328 87.0416 80.2368 88.0811 79.7471C85.2213 85.0323 79.6958 88.3772 73.944 89.6245C69.6567 90.6132 65.0414 90.9459 60.8187 89.4906L60.2551 89.814C60.0195 89.9479 59.7885 90.0819 59.5575 90.2159C54.9745 89.121 50.5532 86.8387 47.4486 83.2398C47.4024 83.1104 47.3054 82.8563 47.2592 82.727C43.9698 79.3405 42.228 74.7252 42.0848 70.036C37.0167 66.8851 34.3372 61.1102 33.0482 55.4877C31.9579 50.3041 30.9877 45.0975 30.1053 39.8769Z" fill="#FCFCFF"/>
<path d="M33.4501 41.3276C35.9911 42.1777 38.6799 42.5704 41.3503 42.1915C40.7404 47.5414 41.5535 53.1224 44.0714 57.9132C45.402 60.4588 47.2361 62.8474 49.7863 64.2611C48.4049 65.319 47.4671 66.9175 47.6103 68.7008C47.7581 73.1036 51.0753 76.5871 54.6419 78.7538C61.5949 82.9395 70.0817 83.8266 78.0142 82.8795C78.2175 83.0827 78.6194 83.4893 78.8227 83.6926C76.1015 85.9425 72.8075 87.6796 69.2502 88.0076C66.4643 88.0538 63.66 87.8043 60.9296 87.2361C56.4898 85.9702 52.4843 83.5632 48.8115 80.8143C48.2525 80.3985 48.2109 79.6594 47.9938 79.0541C47.7258 79.068 47.4578 79.0865 47.1853 79.105C45.6745 76.4716 44.0622 73.7042 43.9605 70.5858C43.8173 69.4354 44.0437 68.1649 43.457 67.1162C42.0109 66.1737 40.1167 65.7117 39.2297 64.0855C37.9777 61.7062 36.4346 59.3824 35.9634 56.6936C35.4275 53.8292 34.6329 51.011 34.3372 48.1051C34.12 45.8321 33.3716 43.6284 33.4501 41.3276Z" fill="#E9E8F9"/>
<path d="M65.1476 60.6482C71.9159 59.3777 79.1184 60.6112 85.1289 63.9561C87.924 65.4945 90.6636 67.7675 91.4536 71.0061C91.9018 72.4198 91.4028 73.8613 91.024 75.2241C90.8161 75.0994 90.4003 74.8453 90.1924 74.7206C89.0975 75.8617 88.1088 77.4048 86.4271 77.682C82.1398 78.629 77.8617 80.0612 73.4127 79.7425C70.3127 79.5161 67.1896 79.4468 64.1174 78.9709C60.4861 78.0007 56.9287 76.5824 53.8287 74.4249C52.2626 73.5563 51.0383 72.1519 50.3961 70.4795C49.9387 69.5046 49.8232 68.3035 48.9501 67.5827L48.5897 67.2131C49.583 65.0002 51.9299 64.0069 54.0967 63.3139C57.7187 62.2005 61.4055 61.2765 65.1476 60.6482ZM62.0292 63.7667C62.0384 63.9145 62.0615 64.2148 62.0707 64.3673C60.3152 64.0762 58.9338 65.3143 58.5642 66.9544C57.7418 67.726 57.0627 68.9225 57.5247 70.0637C58.3286 71.7961 60.195 72.6139 61.8397 73.3531C67.6701 75.8016 74.4799 76.1805 80.4304 73.9306C81.8534 73.4547 83.1423 72.138 83.0592 70.5626C82.6064 68.5067 80.7908 67.0884 79.0213 66.1367C79.0029 64.1455 76.8638 63.7759 75.2977 63.7944C74.54 63.3832 73.8008 62.8565 72.9184 62.7826C69.2686 62.3807 65.5588 62.7919 62.0292 63.7667Z" fill="#FDFEFD"/>
<path d="M58.5642 66.9545C64.6024 63.1384 72.6642 62.9906 79.0213 66.1367C80.7907 67.0885 82.6064 68.5068 83.0591 70.5627C83.1423 72.1381 81.8533 73.4547 80.4304 73.9306C74.4799 76.1805 67.6701 75.8017 61.8397 73.3531C60.195 72.6139 58.3285 71.7962 57.5247 70.0637C57.0627 68.9226 57.7418 67.726 58.5642 66.9545ZM64.8704 65.3698C62.7313 65.8503 60.523 66.5387 58.8506 68.0171C57.4092 69.3384 59.4835 72.0734 61.0959 71.1401C67.0371 68.7655 74.2073 69.5555 79.3724 73.3716C80.4581 73.0251 81.5946 72.4384 82.0843 71.3434C82.2737 69.2922 80.3241 67.957 78.7626 67.0515C74.5215 64.8709 69.5042 64.3165 64.8704 65.3698ZM61.35 72.0688C66.5336 74.5728 72.5811 75.0394 78.1666 73.7781C76.5635 72.3737 74.5122 71.6761 72.4748 71.2048C68.7927 70.4333 64.8149 70.4887 61.35 72.0688Z" fill="#283757"/>
<path d="M64.8705 65.3699C69.5043 64.3165 74.5216 64.8709 78.7627 67.0515C80.3243 67.957 82.2739 69.2922 82.0845 71.3434C81.5948 72.4384 80.4582 73.0251 79.3726 73.3716C74.2074 69.5555 67.0373 68.7655 61.096 71.1402C59.4837 72.0734 57.4093 69.3384 58.8507 68.0171C60.5232 66.5387 62.7315 65.8503 64.8705 65.3699Z" fill="#D4D3EE"/>
<path d="M48.368 67.3241L48.9501 67.5828C49.8233 68.3035 49.9388 69.5047 50.3961 70.4795C51.0383 72.1519 52.2626 73.5564 53.8288 74.4249C56.9287 76.5825 60.4861 78.0008 64.1174 78.971C67.1897 79.4468 70.3127 79.5161 73.4127 79.7425C77.8617 80.0613 82.1398 78.6291 86.4271 77.682C88.1088 77.4048 89.0975 75.8617 90.1924 74.7206C90.4003 74.8453 90.8161 75.0994 91.024 75.2242C88.7002 79.3452 83.8769 80.976 79.4834 81.7337C71.44 83.1012 62.7453 82.3574 55.552 78.2872C51.5835 76.0789 48.2294 72.0919 48.368 67.3241Z" fill="#E9E8F8"/>
<path d="M61.35 72.0688C64.8149 70.4887 68.7927 70.4333 72.4748 71.2048C74.5122 71.6761 76.5635 72.3737 78.1666 73.7782C72.5811 75.0394 66.5336 74.5728 61.35 72.0688Z" fill="#ACE1F9"/>
<path d="M45.8409 91.6481C44.7783 88.8022 45.8871 85.6791 47.4486 83.2398C50.5532 86.8387 54.9745 89.121 59.5575 90.2159C59.7885 90.0819 60.0195 89.948 60.2551 89.814C60.6063 90.2529 61.0405 90.6317 61.618 90.7241C64.353 91.4633 67.2035 91.2415 70.0079 91.3062C68.146 91.8098 66.2056 91.9299 64.2837 91.9022C66.0809 94.5032 66.6168 97.654 67.4715 100.634C62.2417 101.604 56.7717 100.444 52.2072 97.7788C49.6385 96.3143 47.0652 94.4386 45.8409 91.6481Z" fill="#E9E8FA"/>
<path d="M70.0079 91.3062C70.2343 91.2462 70.6962 91.1353 70.9272 91.0799C71.8697 93.0711 73.2973 95.0946 73.094 97.3953C72.1238 99.5205 69.5089 100.024 67.4715 100.634C66.6168 97.6541 66.0809 94.5033 64.2838 91.9022C66.2057 91.9299 68.146 91.8098 70.0079 91.3062Z" fill="#FFFFFD"/>
<defs>
<filter id="filter0_d_7_3928" x="0" y="0" width="120" height="133" filterUnits="userSpaceOnUse" color-interpolation-filters="sRGB">
<feFlood flood-opacity="0" result="BackgroundImageFix"/>
<feColorMatrix in="SourceAlpha" type="matrix" values="0 0 0 0 0 0 0 0 0 0 0 0 0 0 0 0 0 0 127 0" result="hardAlpha"/>
<feOffset dy="4"/>
<feGaussianBlur stdDeviation="2"/>
<feComposite in2="hardAlpha" operator="out"/>
<feColorMatrix type="matrix" values="0 0 0 0 0 0 0 0 0 0 0 0 0 0 0 0 0 0 0.25 0"/>
<feBlend mode="normal" in2="BackgroundImageFix" result="effect1_dropShadow_7_3928"/>
<feBlend mode="normal" in="SourceGraphic" in2="effect1_dropShadow_7_3928" result="shape"/>
</filter>
</defs>
</svg>
