<svg width="89" height="89" viewBox="0 0 89 89" fill="none" xmlns="http://www.w3.org/2000/svg">
<circle cx="44.5" cy="44.5" r="44.5" fill="url(#paint0_linear_7_4157)"/>
<path d="M80.9 35.3914C80.9 39.5759 79.8673 41.8688 78.0401 42.9891C76.2025 44.1157 73.5278 44.0808 70.1797 43.5132C68.1641 43.1716 65.9204 42.6404 63.4853 42.0639C61.8778 41.6833 60.1869 41.283 58.4231 40.9044C53.9935 39.9536 49.1188 39.1438 44 39.1438C38.8812 39.1438 34.0065 39.9536 29.5769 40.9044C27.8131 41.283 26.1222 41.6833 24.5147 42.0639C22.0796 42.6404 19.8359 43.1716 17.8203 43.5132C14.4722 44.0808 11.7975 44.1157 9.95991 42.9891C8.13274 41.8688 7.1 39.5759 7.1 35.3914C7.1 18.6794 23.6014 5.1 44 5.1C64.3986 5.1 80.9 18.6794 80.9 35.3914Z" fill="url(#paint1_linear_7_4157)" stroke="url(#paint2_linear_7_4157)" stroke-width="0.2"/>
<path d="M21.4347 52.4545H24.6591L28.9773 62.9943H29.1477L33.4659 52.4545H36.6903V67H34.1619V57.0071H34.027L30.0071 66.9574H28.1179L24.098 56.9858H23.9631V67H21.4347V52.4545ZM44.2045 67.2131C43.1392 67.2131 42.2159 66.9787 41.4347 66.5099C40.6534 66.0412 40.0473 65.3854 39.6165 64.5426C39.1903 63.6998 38.9773 62.715 38.9773 61.5881C38.9773 60.4612 39.1903 59.474 39.6165 58.6264C40.0473 57.7789 40.6534 57.1207 41.4347 56.652C42.2159 56.1832 43.1392 55.9489 44.2045 55.9489C45.2699 55.9489 46.1932 56.1832 46.9744 56.652C47.7557 57.1207 48.3594 57.7789 48.7855 58.6264C49.2164 59.474 49.4318 60.4612 49.4318 61.5881C49.4318 62.715 49.2164 63.6998 48.7855 64.5426C48.3594 65.3854 47.7557 66.0412 46.9744 66.5099C46.1932 66.9787 45.2699 67.2131 44.2045 67.2131ZM44.2188 65.1534C44.7964 65.1534 45.2794 64.9948 45.6676 64.6776C46.0559 64.3556 46.3447 63.9247 46.5341 63.3849C46.7282 62.8452 46.8253 62.2438 46.8253 61.581C46.8253 60.9134 46.7282 60.3097 46.5341 59.7699C46.3447 59.2254 46.0559 58.7921 45.6676 58.4702C45.2794 58.1482 44.7964 57.9872 44.2188 57.9872C43.6269 57.9872 43.1345 58.1482 42.7415 58.4702C42.3532 58.7921 42.062 59.2254 41.8679 59.7699C41.6785 60.3097 41.5838 60.9134 41.5838 61.581C41.5838 62.2438 41.6785 62.8452 41.8679 63.3849C42.062 63.9247 42.3532 64.3556 42.7415 64.6776C43.1345 64.9948 43.6269 65.1534 44.2188 65.1534ZM51.614 67V56.0909H54.1069V57.9091H54.2205C54.4194 57.2794 54.7603 56.794 55.2433 56.4531C55.7309 56.1075 56.2873 55.9347 56.9123 55.9347C57.0543 55.9347 57.213 55.9418 57.3881 55.956C57.5681 55.9654 57.7172 55.982 57.8356 56.0057V58.3707C57.7267 58.3329 57.5539 58.2997 57.3171 58.2713C57.0851 58.2382 56.8602 58.2216 56.6424 58.2216C56.1737 58.2216 55.7522 58.3234 55.3782 58.527C55.0089 58.7259 54.7177 59.0028 54.5046 59.358C54.2915 59.7131 54.185 60.1226 54.185 60.5866V67H51.614ZM63.924 67.2131C62.8303 67.2131 61.8857 66.9858 61.0902 66.5312C60.2995 66.072 59.6911 65.4233 59.2649 64.5852C58.8388 63.7424 58.6257 62.7505 58.6257 61.6094C58.6257 60.4872 58.8388 59.5024 59.2649 58.6548C59.6958 57.8026 60.2971 57.1397 61.0689 56.6662C61.8407 56.188 62.7474 55.9489 63.7891 55.9489C64.4614 55.9489 65.0959 56.0578 65.6925 56.2756C66.2938 56.4886 66.8241 56.8201 67.2834 57.2699C67.7474 57.7197 68.112 58.2926 68.3771 58.9886C68.6423 59.6799 68.7749 60.5038 68.7749 61.4602V62.2486H59.8331V60.5156H66.3104C66.3056 60.0232 66.1991 59.5852 65.9908 59.2017C65.7824 58.8134 65.4912 58.508 65.1172 58.2855C64.7479 58.063 64.317 57.9517 63.8246 57.9517C63.299 57.9517 62.8374 58.0795 62.4396 58.3352C62.0419 58.5862 61.7318 58.9176 61.5092 59.3295C61.2914 59.7367 61.1802 60.1842 61.1754 60.6719V62.1847C61.1754 62.8191 61.2914 63.3636 61.5234 63.8182C61.7554 64.268 62.0798 64.6136 62.4964 64.8551C62.9131 65.0919 63.4008 65.2102 63.9595 65.2102C64.3336 65.2102 64.6721 65.1581 64.9751 65.054C65.2782 64.9451 65.541 64.7865 65.7635 64.5781C65.986 64.3698 66.1541 64.1117 66.2678 63.804L68.6683 64.0739C68.5168 64.7083 68.228 65.2623 67.8018 65.7358C67.3804 66.2045 66.8407 66.5691 66.1825 66.8295C65.5244 67.0852 64.7715 67.2131 63.924 67.2131Z" fill="#F6FE0C"/>
<defs>
<linearGradient id="paint0_linear_7_4157" x1="44.5" y1="0" x2="44.5" y2="89" gradientUnits="userSpaceOnUse">
<stop stop-color="#C51B0C"/>
<stop offset="0.57301" stop-color="#C51B0C"/>
<stop offset="0.818535" stop-color="#C51B0C" stop-opacity="0.99"/>
<stop offset="1" stop-color="#C51B0C" stop-opacity="0.4"/>
</linearGradient>
<linearGradient id="paint1_linear_7_4157" x1="44" y1="5" x2="42" y2="44" gradientUnits="userSpaceOnUse">
<stop stop-color="#FF9C9C"/>
<stop offset="1" stop-color="#EDEDED" stop-opacity="0"/>
</linearGradient>
<linearGradient id="paint2_linear_7_4157" x1="44" y1="5" x2="44" y2="44" gradientUnits="userSpaceOnUse">
<stop stop-color="#F9F9F9"/>
<stop offset="1" stop-color="#F9F9F9" stop-opacity="0"/>
</linearGradient>
</defs>
</svg>
