<svg width="66" height="76" viewBox="0 0 66 76" fill="none" xmlns="http://www.w3.org/2000/svg">
<path d="M27.6831 1.11701C30.5546 0.263101 33.56 -0.255938 36.5528 0.129156C38.2816 0.67331 39.9684 1.33885 41.7181 1.81603C43.1496 2.7997 44.5686 3.80848 45.9876 4.80888C46.7955 6.55855 48.834 7.35385 49.5832 9.12863C50.0771 9.62256 50.6339 10.1039 50.839 10.803C51.312 11.2927 51.8687 11.7448 52.078 12.427C52.5133 13.5195 53.5388 14.2144 54.0076 15.2943C54.1667 15.9054 54.4806 16.4538 54.8071 16.9896C54.9117 17.1989 55.1168 17.6133 55.2215 17.8184C55.481 18.4169 55.7322 19.0322 56.134 19.5555C56.1256 20.3382 56.5191 21.0247 56.9586 21.6442C57.1218 22.9083 57.8962 24.0175 57.913 25.3151C58.3608 25.9221 58.252 26.6881 58.3106 27.3955C58.7711 28.2494 58.7376 29.2665 59.1729 30.1372C61.4709 30.1916 63.9489 31.8115 64.3926 34.1597C64.5391 34.3774 64.8279 34.8127 64.9702 35.0304C64.966 35.2146 64.9619 35.5829 64.9577 35.7671C65.6902 36.5749 65.28 37.7218 65.3888 38.693C66.0711 39.9403 66.0502 41.7695 65.3888 43.0253C65.3888 43.3266 65.3888 43.9252 65.3888 44.2266C63.8568 45.5535 62.555 47.818 60.1775 47.3408C61.1653 48.3412 60.9728 50.1997 60.3951 51.3885C60.3324 52.1001 60.4872 52.9079 59.9556 53.4814C59.9389 54.0046 59.9221 54.5237 59.9096 55.0469C59.0766 55.8338 59.8928 57.0979 59.2147 57.9686C58.9176 58.496 58.6371 59.0443 58.6246 59.6638C57.846 60.727 57.7623 62.1083 56.8623 63.1087C55.7112 64.6491 54.8573 66.4616 53.2165 67.5708C52.1659 68.1945 51.3706 69.1196 50.4915 69.9442C47.8294 72.0789 44.4179 72.9244 41.1488 73.5984C38.2355 74.3978 35.2385 74.716 32.2582 75.0885C31.1992 75.4862 30.0523 75.4945 29.0016 75.0801C24.0373 74.7662 18.9641 73.3639 14.9373 70.3376C14.0834 69.467 12.9742 68.7386 12.5221 67.5582C11.6975 66.5243 10.3623 65.8463 9.97297 64.5152C9.83903 64.511 9.56695 64.4984 9.42882 64.4942C9.07721 63.6822 8.51631 62.9915 8.08936 62.2213C7.91774 61.5935 7.58288 61.0284 7.23127 60.4884C6.79176 57.9728 5.16348 55.7041 5.48998 53.067C4.75327 52.1001 5.20953 50.8276 5.07977 49.7184C4.4226 48.9649 4.71979 47.931 4.6863 47.0311C2.79013 46.8846 1.30836 45.3819 0.538173 43.741C0.148893 42.2634 -0.412005 40.5054 0.467013 39.1073C0.475385 38.8269 0.5005 38.2618 0.513057 37.9814C1.19116 37.0144 0.856294 35.6917 1.3837 34.6285C1.74787 34.0844 2.01576 33.49 2.27528 32.8914C2.37574 32.6821 2.58084 32.2636 2.68549 32.0501C3.40963 29.9237 5.71601 29.2247 7.60381 28.5089C7.39033 27.0983 8.33214 25.9263 8.48701 24.5742C8.84699 24.0343 9.19023 23.4692 9.3451 22.8329C9.72182 22.3307 10.0274 21.7656 10.1864 21.1544C10.6594 20.5852 10.9776 19.8903 10.9901 19.1411C11.2329 18.7225 11.4757 18.2997 11.7101 17.877C11.8398 17.563 11.9738 17.2491 12.1119 16.9352C12.4468 16.3868 12.8319 15.8761 13.1919 15.3445C13.2798 15.1227 13.4597 14.6874 13.5476 14.4655C14.6946 12.5568 15.8457 10.6062 17.5493 9.13282C18.5455 6.97294 20.9063 5.96835 22.455 4.2731C24.1126 3.0927 25.7911 1.89556 27.6831 1.11701ZM32.0866 3.28525C31.1699 3.72476 30.182 3.98847 29.1732 4.10567C26.8376 5.47861 24.3428 6.67157 22.3588 8.55518C24.1294 8.1073 25.653 6.9562 27.478 6.71342C30.0355 6.34507 32.7061 6.08137 35.2217 6.82225C37.0928 7.39152 39.1899 7.91893 40.3828 9.61418C40.1987 9.89463 39.8261 10.4513 39.6419 10.7276C38.3569 10.6857 37.4277 9.67697 36.2473 9.31281C33.3339 8.17845 30.1192 8.42123 27.1013 8.95283C25.7241 9.14119 24.5772 10.0202 23.2503 10.4011C21.4504 11.1504 20.157 12.7661 18.2734 13.3395C15.4522 17.2491 13.5142 21.707 11.6724 26.1439C10.919 28.6638 10.2074 31.2004 9.54183 33.7453C8.82188 38.806 7.77124 43.875 8.16471 49.0151C8.65444 51.3801 8.68793 53.8414 9.45393 56.1561C10.3874 58.8141 11.2748 61.6102 13.2253 63.7282C14.8159 65.4779 16.2098 67.5289 18.4032 68.5796C21.0235 70.2706 24.0708 71.0869 27.0971 71.698C29.0267 71.8403 30.969 72.0036 32.8986 71.7566C37.6495 71.2208 42.4171 70.2623 46.7955 68.2908C48.9051 67.215 50.8557 65.729 52.2245 63.7743C54.0453 61.2042 55.841 58.4458 56.3224 55.2729C56.5107 54.306 56.607 53.3181 56.8874 52.3722C57.2725 50.4425 57.0005 48.4668 57.1428 46.5162C57.5781 44.8754 57.5237 43.1257 57.1511 41.4807C57.0046 39.5427 57.1595 37.567 56.7451 35.6541C56.6279 34.955 56.5358 34.2518 56.4396 33.5486C56.2721 33.0003 56.134 32.4394 56.0084 31.8785C54.9996 27.6215 54.1541 23.2557 52.0445 19.3671C50.7469 16.0561 48.767 13.0717 46.5234 10.33C44.6482 8.15334 42.5678 6.073 39.9768 4.75447C38.6373 4.17264 37.1891 3.87545 35.8496 3.27688C34.598 3.26432 33.3423 3.25176 32.0866 3.28525ZM5.57788 33.3184C4.48538 35.2439 3.74031 37.3786 3.418 39.5678C3.27987 40.9031 3.14593 42.456 4.20912 43.4731L4.29284 43.8122L4.10866 43.921C4.55654 43.9085 5.00442 43.9001 5.4523 43.8875C5.87088 39.9822 6.74572 36.1145 6.91315 32.1924C6.41085 32.4854 5.85414 32.7742 5.57788 33.3184ZM59.424 33.5235C59.4492 34.3648 59.5203 35.2104 59.6584 36.0433C60.1524 38.8018 59.9012 41.6398 60.3826 44.4108C60.7677 44.1429 61.157 43.8834 61.5504 43.628C62.6387 40.7984 62.2243 37.5753 61.0607 34.8378C60.8514 34.0467 60.2026 33.6365 59.424 33.5235Z" fill="black"/>
<path d="M17.5869 36.9433C18.0474 33.3226 21.7685 30.2711 25.4437 30.899C26.1846 31.2506 26.9589 31.5352 27.7459 31.7613C27.5533 33.377 28.2607 35.4448 26.8459 36.6545C26.0715 37.4121 24.8493 37.3786 23.8698 37.1442C22.5094 36.4954 22.1201 34.8378 22.3127 33.4481C21.036 34.3146 20.0858 35.5745 19.6087 37.0396C19.3868 37.1735 18.9515 37.4456 18.7338 37.5795C18.4492 37.4205 17.8757 37.1024 17.5869 36.9433Z" fill="black"/>
<path d="M39.5666 31.732C42.865 30.8739 46.3936 32.6738 47.9717 35.608C48.34 36.3029 48.2145 37.1233 48.2814 37.8809C47.5782 37.9981 46.4564 38.3162 46.2053 37.3535C45.8913 35.4615 44.1207 34.4904 42.6055 33.6365C42.9362 34.3941 43.4133 35.2564 42.9655 36.0726C42.4171 38.2409 38.8048 38.4167 38.022 36.3196C37.4946 34.9843 38.3946 33.5947 38.2146 32.2008C38.6666 32.0459 39.1187 31.891 39.5666 31.732Z" fill="black"/>
<path d="M42.8357 40.7147C43.2291 40.8528 43.7314 40.8403 43.991 41.2254C44.8365 42.2383 45.816 43.1801 46.3852 44.3856C46.6029 45.1475 46.4941 45.9511 46.5317 46.7339C45.8118 47.4748 44.9997 48.6007 43.8026 48.1445C43.158 48.1361 42.9822 47.4831 42.7896 46.9976C42.1576 44.9633 42.1701 42.7364 42.8357 40.7147ZM43.5933 43.1801C43.5849 44.4275 43.744 45.6581 44.0119 46.8762C44.4263 46.7841 44.8449 46.692 45.2593 46.5999C45.322 45.4405 45.1044 44.2852 44.3384 43.381C44.15 43.3308 43.7775 43.2304 43.5933 43.1801Z" fill="black"/>
<path d="M28.2147 43.1885C27.951 42.4644 28.7672 42.1002 29.1439 41.6398C30.475 42.209 31.3373 43.8122 32.9154 43.7076C34.0455 43.8038 34.7655 42.8118 35.4352 42.0709C36.0463 42.0667 36.6575 42.0835 37.2686 42.1086C37.3063 42.5188 37.3397 42.9332 37.3774 43.3434C35.9668 44.6745 34.2925 46.3655 32.1494 45.7879C30.6634 45.3107 29.0309 44.5908 28.2147 43.1885Z" fill="black"/>
<path d="M31.2661 56.265C35.385 55.591 39.8303 56.3612 43.3213 58.7095C45.117 59.8899 46.921 61.1414 48.2731 62.8367C47.7331 63.6027 47.0592 64.871 45.9457 64.105C43.7147 62.3553 41.4921 60.4633 38.7629 59.5424C36.2096 58.7095 33.4679 58.7053 30.835 59.0904C28.2984 59.2704 26.0632 60.6014 23.828 61.6939C22.4508 62.259 21.5216 63.8706 19.864 63.5566C19.3617 62.8032 19.0603 61.74 19.864 61.0577C22.0783 59.1364 24.8535 57.9979 27.5533 56.9179C28.717 56.3654 30.0146 56.3905 31.2661 56.265Z" fill="black"/>
<path d="M32.0865 3.28522C33.3423 3.25173 34.598 3.26429 35.8496 3.27685C37.189 3.87542 38.6373 4.17261 39.9768 4.75444C42.5678 6.07296 44.6481 8.15331 46.5234 10.3299C48.767 13.0716 50.7468 16.0561 52.0444 19.3671C54.1541 23.2557 54.9996 27.6215 56.0084 31.8784C56.134 32.4393 56.2721 33.0002 56.4395 33.5486C56.5358 34.2518 56.6279 34.955 56.7451 35.654C57.1595 37.5669 57.0046 39.5426 57.1511 41.4807C57.5237 43.1257 57.5781 44.8754 57.1427 46.5162C57.0004 48.4668 57.2725 50.4425 56.8874 52.3721C56.607 53.3181 56.5107 54.306 56.3223 55.2729C55.841 58.4457 54.0453 61.2042 52.2244 63.7743C50.8557 65.729 48.9051 67.215 46.7954 68.2907C42.4171 70.2622 37.6495 71.2208 32.8986 71.7566C30.9689 72.0035 29.0267 71.8403 27.0971 71.698C24.0707 71.0868 21.0235 70.2706 18.4031 68.5796C16.2098 67.5289 14.8159 65.4779 13.2253 63.7282C11.2747 61.6102 10.3873 58.8141 9.4539 56.1561C8.6879 53.8413 8.65441 51.3801 8.16467 49.0151C7.77121 43.8749 8.82185 38.8059 9.5418 33.7453C10.2073 31.2003 10.9189 28.6637 11.6724 26.1439C13.5141 21.7069 15.4522 17.2491 18.2734 13.3395C20.157 12.7661 21.4504 11.1503 23.2503 10.4011C24.5772 10.0202 25.7241 9.14116 27.1012 8.9528C30.1192 8.4212 33.3339 8.17842 36.2472 9.31278C37.4276 9.67694 38.3569 10.6857 39.6419 10.7276C39.8261 10.4513 40.1986 9.8946 40.3828 9.61415C39.1898 7.9189 37.0928 7.39149 35.2217 6.82222C32.706 6.08134 30.0355 6.34504 27.478 6.71339C25.653 6.95617 24.1293 8.10727 22.3587 8.55515C24.3428 6.67154 26.8375 5.47858 29.1732 4.10564C30.182 3.98844 31.1698 3.72473 32.0865 3.28522ZM17.5869 36.9433C17.8757 37.1023 18.4492 37.4204 18.7338 37.5795C18.9515 37.4456 19.3868 37.1735 19.6087 37.0395C20.0858 35.5745 21.036 34.3146 22.3127 33.4481C22.1201 34.8378 22.5094 36.4954 23.8698 37.1442C24.8493 37.3786 26.0715 37.4121 26.8459 36.6544C28.2607 35.4447 27.5533 33.377 27.7459 31.7612C26.9589 31.5352 26.1846 31.2506 25.4437 30.899C21.7685 30.2711 18.0474 33.3225 17.5869 36.9433ZM39.5666 31.7319C39.1187 31.891 38.6666 32.0459 38.2146 32.2007C38.3945 33.5946 37.4946 34.9843 38.022 36.3196C38.8048 38.4167 42.4171 38.2409 42.9654 36.0726C43.4133 35.2564 42.9361 34.3941 42.6055 33.6365C44.1207 34.4904 45.8913 35.4615 46.2052 37.3535C46.4564 38.3162 47.5782 37.9981 48.2814 37.8809C48.2144 37.1232 48.34 36.3028 47.9717 35.608C46.3936 32.6737 42.865 30.8738 39.5666 31.7319ZM42.8357 40.7147C42.1701 42.7364 42.1576 44.9633 42.7896 46.9976C42.9822 47.4831 43.158 48.1361 43.8026 48.1445C44.9997 48.6007 45.8118 47.4747 46.5317 46.7338C46.4941 45.9511 46.6029 45.1474 46.3852 44.3856C45.816 43.1801 44.8365 42.2383 43.991 41.2253C43.7314 40.8402 43.2291 40.8528 42.8357 40.7147ZM28.2147 43.1885C29.0309 44.5907 30.6634 45.3107 32.1493 45.7879C34.2925 46.3655 35.9668 44.6744 37.3774 43.3433C37.3397 42.9331 37.3062 42.5187 37.2686 42.1085C36.6574 42.0834 36.0463 42.0667 35.4352 42.0709C34.7655 42.8118 34.0455 43.8038 32.9153 43.7075C31.3373 43.8122 30.475 42.209 29.1439 41.6397C28.7672 42.1002 27.951 42.4643 28.2147 43.1885ZM31.2661 56.2649C30.0146 56.3905 28.717 56.3654 27.5533 56.9179C24.8535 57.9978 22.0783 59.1364 19.864 61.0577C19.0603 61.74 19.3617 62.8031 19.864 63.5566C21.5216 63.8705 22.4508 62.259 23.8279 61.6939C26.0632 60.6014 28.2984 59.2703 30.835 59.0903C33.4678 58.7052 36.2095 58.7094 38.7629 59.5424C41.492 60.4633 43.7147 62.3553 45.9457 64.1049C47.0592 64.8709 47.7331 63.6026 48.273 62.8366C46.921 61.1414 45.1169 59.8898 43.3212 58.7094C39.8303 56.3612 35.3849 55.591 31.2661 56.2649Z" fill="#FFAF80"/>
<path d="M5.57788 33.3184C5.85414 32.7742 6.41085 32.4854 6.91315 32.1924C6.74572 36.1145 5.87089 39.9822 5.45231 43.8875C5.00442 43.9001 4.55654 43.9085 4.10866 43.921L4.29284 43.8122C4.49794 43.6824 4.91234 43.4229 5.12163 43.2932C5.43138 39.7436 6.29784 36.261 6.41504 32.6947C4.5398 35.8801 2.99524 39.7687 4.20912 43.4731C3.14593 42.456 3.27988 40.9031 3.41801 39.5678C3.74031 37.3786 4.48539 35.2439 5.57788 33.3184Z" fill="#865E45"/>
<path d="M4.20903 43.4732C2.99515 39.7688 4.53971 35.8802 6.41495 32.6948C6.29775 36.2611 5.43129 39.7437 5.12154 43.2932C4.91225 43.423 4.49785 43.6825 4.29275 43.8123L4.20903 43.4732Z" fill="#FFB182"/>
<path d="M59.424 33.5236C60.2025 33.6366 60.8513 34.0468 61.0606 34.8379C62.2243 37.5754 62.6386 40.7985 61.5503 43.6281C61.1569 43.8834 60.7676 44.1429 60.3825 44.4108C59.9011 41.6398 60.1523 38.8019 59.6584 36.0434C59.5202 35.2104 59.4491 34.3649 59.424 33.5236Z" fill="#FFB182"/>
<path d="M43.5933 43.1801C43.7775 43.2304 44.15 43.3308 44.3384 43.3811C45.1044 44.2852 45.3221 45.4405 45.2593 46.5999C44.8449 46.692 44.4263 46.7841 44.0119 46.8762C43.744 45.6581 43.585 44.4275 43.5933 43.1801Z" fill="#6096C4"/>
</svg>
