<svg width="82" height="81" viewBox="0 0 82 81" fill="none" xmlns="http://www.w3.org/2000/svg">
<path d="M3.06499 1.33271C4.8497 0.465413 6.83099 -0.0665301 8.82385 0.00670848C10.8591 0.133912 12.852 0.750659 14.629 1.74516C15.1571 2.1075 15.6659 2.49682 16.1593 2.90542C17.8245 4.56677 19.6131 6.4093 20.2182 8.74137C19.4319 8.39445 19.1466 7.55028 18.6995 6.88728C17.2771 4.51666 15.2072 2.43515 12.586 1.4445C8.54247 -0.270827 3.5661 0.789205 0.532476 3.96159C0.447673 3.81897 0.270359 3.53758 0.181702 3.39881L0.49393 3.07502C1.30726 2.42744 2.163 1.84153 3.06499 1.33271Z" fill="#1C0A12"/>
<path d="M25.873 21.0763C26.0272 21.2652 26.3317 21.6429 26.4821 21.8357C27.0872 22.7685 28.3169 22.8494 29.0647 23.5356C28.9028 24.5031 28.1665 25.5053 28.8257 26.442C29.2035 26.0989 29.5774 25.752 29.9436 25.3974C29.9744 26.2531 29.6969 27.2129 30.1941 27.9839C30.8147 28.6237 31.312 29.3638 31.7899 30.1155C33.3549 31.453 35.3671 32.0043 37.3908 32.0929C37.9458 32.1623 38.497 32.2587 39.0521 32.3319L38.8247 32.8793C36.5928 32.5478 34.1374 32.5902 32.2679 31.1331C31.0229 30.1348 29.3422 29.7994 27.8389 30.3814C24.0344 31.6612 21.0123 34.4867 18.1329 37.1734C16.2749 38.8733 14.6251 40.8584 12.3779 42.0765C9.66032 43.6453 6.98518 45.7076 5.69387 48.6487C5.07327 54.0645 6.84641 59.6306 5.38935 64.9809C5.31226 64.7265 5.15422 64.21 5.07712 63.9556C5.78638 59.0332 4.81886 54.0529 5.10796 49.1074C5.18891 47.4538 6.51106 46.2627 7.46701 45.0369C9.22859 43.1327 11.553 41.9416 13.673 40.5115C17.3774 37.2659 20.7039 33.4922 25.0057 30.9905C26.0349 30.3622 27.1913 30.0037 28.3439 29.6722C26.8174 29.5874 25.3604 30.1386 24.0189 30.8093C19.5668 33.23 15.901 36.7802 12.2275 40.2108C10.624 41.718 8.57716 42.6084 6.87339 43.9807C5.21589 45.1525 3.95156 46.7638 2.8684 48.4598C2.82214 48.2979 2.73349 47.9741 2.68723 47.8084C3.10739 47.0606 3.62391 46.3744 4.14044 45.6883C2.71807 45.9389 1.19933 45.7654 0.231812 44.5743C0.289631 44.3353 0.397562 43.8574 0.455382 43.6184C1.02587 45.3877 3.06499 45.4378 4.53361 44.8557C6.17956 44.0077 7.56338 42.6817 9.10139 41.6409C9.20161 41.5099 9.40205 41.2555 9.50227 41.1283C11.2137 41.082 11.9693 39.1431 13.3993 38.43C13.3724 38.2334 13.3145 37.8364 13.2837 37.6398L13.4919 38.2373C14.5943 37.235 15.6774 36.2097 16.8338 35.2653C15.6389 35.1998 14.5249 34.7603 13.3685 34.5175C13.8696 34.1629 14.3437 33.7658 14.7677 33.3187C14.7562 33.7312 14.7485 34.1436 14.7446 34.5522C16.1015 35.0572 18.2678 34.664 18.1598 32.8446C19.1081 33.4845 20.0139 32.6788 20.7849 32.143C22.9666 30.5472 25.449 29.252 28.1588 28.8858C27.7772 28.0648 27.3841 27.2438 26.9755 26.4343C24.6126 26.8544 22.2265 26.3263 20.2298 25.0119C20.1411 25.2972 20.0525 25.5824 19.9638 25.8676C18.3256 26.4073 16.5871 26.7195 14.8795 26.3341C13.037 27.8335 10.1075 27.4365 8.52705 25.7327C8.68123 26.6694 8.78145 27.6485 8.39599 28.5543C7.55567 27.4095 7.98354 25.9216 7.6636 24.6187C8.94335 24.7189 9.57166 26.1799 10.8476 26.2685C11.8613 26.4034 12.8828 26.4651 13.9043 26.4535C13.6268 26.1567 13.3454 25.8599 13.0678 25.5631C14.0816 25.4359 15.1224 25.3704 16.1169 25.6749C17.1422 26.0141 18.1753 25.4475 19.216 25.4629C19.0464 25.355 18.7072 25.1353 18.5415 25.0273C20.5189 23.5548 22.585 25.7674 24.6241 25.9833C25.9039 25.8831 27.5575 25.6364 28.0663 24.2602C26.748 23.7553 25.8306 22.5141 25.873 21.0763ZM28.209 27.4866C28.2976 27.9646 28.5019 28.404 28.764 28.8049C29.6776 27.6138 28.1357 26.7002 27.7849 25.6402C26.9716 26.2146 27.8697 26.9084 28.209 27.4866Z" fill="#1C0A12"/>
<path d="M0.532373 3.96162C3.56599 0.789235 8.54236 -0.270797 12.5859 1.44453C15.2071 2.43518 17.277 4.51669 18.6994 6.88731C19.1465 7.55031 19.4318 8.39448 20.2181 8.7414C19.6284 9.45452 20.6499 10.4182 20.8233 11.2161C16.8916 10.8152 13.4725 12.9623 10.1305 14.6699C8.0374 15.541 6.00599 16.9827 3.63152 16.6242C2.81433 17.5262 1.64637 17.6765 0.489972 17.769C0.428297 17.9232 0.304948 18.2316 0.243273 18.3858C0.224 18.4744 0.193162 18.6556 0.173889 18.7443C0.193162 17.345 0.185453 15.9458 0.189308 14.5465C0.193162 12.5922 0.193163 10.6379 0.185453 8.68744C0.208581 6.922 0.16618 5.16042 0.181598 3.39884C0.270256 3.53761 0.44757 3.819 0.532373 3.96162Z" fill="#946839"/>
<path d="M21.9797 2.88617C23.9109 0.503989 28.1548 1.02437 29.504 3.76503C31.0651 6.3014 29.4423 9.7282 26.7864 10.7381C25.3795 10.8807 23.934 10.7844 22.6889 10.052C20.5881 8.35208 20.0408 4.90601 21.9797 2.88617Z" fill="#946839"/>
<path d="M20.172 5.59984C20.2992 2.63946 23.3213 0.357499 26.1968 0.754529C27.6038 1.01665 28.8643 1.81071 29.7316 2.94783C30.8648 4.59763 31.0306 6.78708 30.1402 8.5872C29.7007 9.39668 29.03 10.0327 28.3285 10.6148C28.3092 11.8945 28.3208 13.1781 28.313 14.4579C28.313 15.356 28.2514 16.258 28.3439 17.1561C28.8334 18.1622 29.6121 19.0449 29.8164 20.1743C29.8665 20.5212 29.9744 21.2189 30.0284 21.5659C29.3499 21.2459 29.1803 20.6099 29.1726 19.9161C28.7139 20.3748 28.1126 20.5097 27.4881 20.3748C27.6308 20.0394 27.9122 19.3687 28.0509 19.0372C26.6324 18.9408 25.2679 18.5284 23.8725 18.2932L23.8185 18.2817C23.8416 17.7844 23.8648 17.2872 23.884 16.7899C23.7106 16.7784 23.3559 16.7475 23.1786 16.736C22.9743 16.6858 22.5696 16.5856 22.3653 16.5355C22.5272 16.4237 22.851 16.204 23.0129 16.0922C23.221 15.9573 23.6412 15.6875 23.8532 15.5526C23.8224 15.4022 23.7684 15.1054 23.7376 14.9551L24.0035 14.2458C24.2194 14.7084 24.443 15.171 24.6665 15.6297C25.6996 15.9265 26.7095 16.3119 27.6847 16.7707C27.677 14.8819 27.6963 12.9892 27.6539 11.1004C27.546 11.1043 27.3301 11.1159 27.2222 11.1197L26.7866 10.7381C29.4425 9.72818 31.0653 6.30139 29.5041 3.76502C28.155 1.02436 23.911 0.503976 21.9798 2.88616C20.0409 4.906 20.5883 8.35207 22.6891 10.052L22.5388 10.6494C21.02 9.44679 19.906 7.60041 20.172 5.59984ZM25.4876 17.9116C25.6996 18.2971 26.0696 18.4783 26.6016 18.4436C26.8329 18.5862 28.1126 18.2663 27.3918 18.0041C26.7596 18.035 26.1005 17.7459 25.4876 17.9116Z" fill="#1F0F13"/>
<path d="M20.2182 8.74141L20.3878 8.55639C20.8465 9.57402 21.2706 10.5994 21.7293 11.6131C22.0531 11.7943 22.373 11.9755 22.6929 12.1605C22.6891 11.4551 22.6891 10.7535 22.6891 10.052C23.9341 10.7844 25.3796 10.8808 26.7866 10.7381L27.2222 11.1197C26.0503 11.5476 24.7667 11.6864 23.6219 11.0966C22.9589 12.1412 23.5795 13.2514 24.0035 14.2459L23.7375 14.9551C23.2827 13.9491 22.6698 12.9854 21.7755 12.3147C20.7887 11.6979 19.5629 11.8367 18.4567 11.8984C14.5789 12.4226 11.4643 15.0361 7.87561 16.3968C7.28584 16.6512 6.69223 16.9056 6.10246 17.1638C6.66524 17.5609 7.23188 17.9541 7.79466 18.3549C9.02815 18.1082 10.1961 17.638 11.3332 17.1176C13.2066 16.5587 15.1609 16.4662 17.0883 16.2349C17.8322 14.9551 18.7188 13.764 19.7788 12.731C20.2683 12.7079 20.754 12.6886 21.2397 12.6732C21.7447 13.8566 22.3537 14.9898 23.0129 16.0923C22.851 16.204 22.5272 16.4238 22.3653 16.5355C22.5696 16.5857 22.9743 16.6859 23.1786 16.736C22.9319 16.8825 22.4347 17.1831 22.188 17.3335C21.7948 15.7916 20.2375 14.8626 19.9253 13.2398C19.0156 14.1611 18.1252 15.1402 17.6819 16.3852C17.1692 17.6804 15.6774 17.1754 14.6174 17.2487C13.5651 17.3335 12.2776 17.2872 11.5183 18.1506C10.2655 18.6248 8.96648 19.0526 7.60964 19.0102C6.96205 18.1198 5.94057 17.6688 4.96148 17.2487C4.50663 17.3065 4.05178 17.3489 3.59308 17.3913C3.48515 18.301 2.93393 19.3687 3.66246 20.1512C3.87832 19.2531 3.76654 18.2432 4.28692 17.4414C4.63769 18.8522 3.88989 20.1859 3.80894 21.5813L3.79738 21.6391C3.25001 21.5697 2.6988 21.5851 2.17071 21.7663C2.42512 22.225 2.68723 22.6799 2.94935 23.1347C1.97412 23.7014 1.10682 24.426 0.20483 25.0967L0.289632 24.4492C0.725209 24.0136 1.1762 23.5934 1.60407 23.1463C1.12995 23.4855 0.667389 23.8286 0.208684 24.187C0.216394 23.1039 0.208684 22.0246 0.181702 20.9414C1.03358 20.6446 1.90088 20.3748 2.77974 20.1589C2.84142 19.4921 2.90309 18.8214 2.96477 18.1545C2.05121 18.1622 1.14151 18.2509 0.243376 18.3858C0.305051 18.2316 0.4284 17.9232 0.490075 17.769C1.64647 17.6765 2.81444 17.5262 3.63162 16.6242C6.0061 16.9827 8.0375 15.541 10.1306 14.6699C13.4726 12.9623 16.8917 10.8152 20.8234 11.2161C20.65 10.4182 19.6285 9.45453 20.2182 8.74141ZM20.5112 13.0741C20.6384 14.2189 21.1125 15.4293 22.2535 15.9072C21.8488 14.9089 21.6059 13.5405 20.5112 13.0741Z" fill="#2B1523"/>
<path d="M27.2222 11.1197C27.3301 11.1159 27.546 11.1043 27.6539 11.1005C27.6963 12.9892 27.6771 14.8819 27.6848 16.7707C26.7095 16.312 25.6996 15.9265 24.6666 15.6297C24.443 15.171 24.2194 14.7084 24.0036 14.2459C23.5795 13.2514 22.9589 12.1412 23.6219 11.0966C24.7668 11.6864 26.0504 11.5476 27.2222 11.1197Z" fill="#956642"/>
<path d="M18.4566 11.8984C19.5629 11.8367 20.7887 11.698 21.7755 12.3147C22.6698 12.9854 23.2826 13.9491 23.7375 14.9551C23.7683 15.1055 23.8223 15.4023 23.8531 15.5526C23.6411 15.6875 23.221 15.9574 23.0128 16.0923C22.3537 14.9898 21.7446 13.8566 21.2397 12.6732C20.754 12.6886 20.2683 12.7079 19.7788 12.731C19.3355 12.4535 18.896 12.1759 18.4566 11.8984Z" fill="#E882A0"/>
<path d="M27.8388 30.3815C29.3422 29.7994 31.0228 30.1348 32.2678 31.1332C34.1374 32.5902 36.5928 32.5478 38.8246 32.8793C41.5499 33.392 44.2635 32.7521 46.9502 32.3512C50.2537 32.2356 53.6574 32.0159 56.8567 33.0451C59.6899 33.9316 62.4229 35.115 65.2368 36.0633C66.3431 36.4873 67.4571 36.9113 68.625 37.1464C68.4901 47.9511 68.5826 58.7595 68.5402 69.568C68.5171 71.3257 68.5903 73.0796 68.6597 74.8335C65.7803 74.7217 63.0126 73.9045 60.2411 73.2029C49.822 70.4122 39.3257 67.5636 28.5288 66.7464C22.9781 66.3648 17.4505 67.1588 11.9075 67.2282C9.76047 67.2398 7.33589 67.525 5.51263 66.1528C5.47409 65.7596 5.43168 65.3703 5.38928 64.981C6.84634 59.6307 5.0732 54.0645 5.6938 48.6487C6.98511 45.7076 9.66025 43.6454 12.3778 42.0765C12.0848 43.973 9.95706 44.0887 8.92401 45.3839C7.30505 47.0992 6.08312 49.4235 6.33753 51.8404C6.05614 55.6565 7.19712 59.4688 6.3992 63.2695C6.15251 64.3758 6.26429 66.2877 7.73292 66.3609C11.6955 66.5691 15.6889 66.5035 19.64 66.0834C22.716 65.9832 25.7959 65.987 28.8719 66.0371C33.0156 66.3609 37.117 67.0625 41.2184 67.6985C43.6237 67.764 45.7476 69.0476 48.1182 69.302C50.5158 69.6065 52.7207 70.7205 55.1221 71.0019C56.9801 71.2255 58.6376 72.193 60.4763 72.5053C63.0088 72.9331 65.495 73.9777 68.1008 73.6462C67.6305 72.0504 67.619 70.4122 67.8425 68.7778C67.831 60.0431 67.8387 51.3123 67.8078 42.5815C67.8001 41.0743 67.9774 39.5556 67.7384 38.06C67.0485 37.4856 66.0617 37.451 65.2715 37.0462C63.6988 36.2444 61.81 36.3909 60.3221 35.3849C58.9036 34.4173 57.1767 34.2053 55.6001 33.6194C54.6287 33.2571 53.588 33.1607 52.5588 33.1646C49.4365 33.1993 46.2641 33.0412 43.2074 33.8199C41.2454 34.321 39.2641 33.6965 37.3097 33.4768C35.8218 33.2224 34.2761 33.2224 32.8268 32.7714C31.7282 31.7037 30.329 30.5241 28.683 30.8556C26.0426 31.4223 23.988 33.2841 21.8024 34.7411C20.5612 35.5352 19.825 37.3237 18.1328 37.1734C21.0122 34.4867 24.0343 31.6612 27.8388 30.3815Z" fill="#E882A0"/>
<path d="M73.7903 57.3294C73.9098 57.3333 74.1488 57.341 74.2683 57.3449C74.2683 57.4412 74.2721 57.6301 74.276 57.7265C76.5387 57.792 78.7975 57.1714 81.0486 56.8669C81.1026 62.2711 80.9908 67.6792 81.0602 73.0873C78.7242 74.2167 76.0607 74.4711 73.5012 74.4441C73.4549 69.0823 73.4241 63.7166 73.5127 58.3586L74.0293 58.0618C73.9445 57.819 73.8635 57.5761 73.7903 57.3294ZM78.7667 57.8306C77.5756 58.3548 76.2033 58.0965 75.043 58.6786C74.2066 59.1643 74.3685 60.259 74.3415 61.0723C74.4494 64.1638 74.2413 67.2591 74.4494 70.3505C74.5342 71.3566 74.4263 72.3665 74.4109 73.3764C75.8872 73.6193 77.3481 73.1644 78.8283 73.1875C79.8999 73.2068 80.4666 72.062 80.4357 71.1214C80.5012 67.2629 80.4897 63.4005 80.4704 59.542C80.4974 58.6555 79.8575 57.1753 78.7667 57.8306Z" fill="#E882A0"/>
<path d="M7.87573 16.3968C11.4644 15.0361 14.579 12.4226 18.4568 11.8984C18.8962 12.1759 19.3356 12.4535 19.7789 12.731C18.7189 13.7641 17.8323 14.9552 17.0884 16.2349C15.161 16.4662 13.2067 16.5587 11.3334 17.1176C10.1423 17.1446 8.88565 17.1176 7.87573 16.3968Z" fill="#F27499"/>
<path d="M17.6818 16.3852C18.1251 15.1401 19.0155 14.1611 19.9252 13.2398C20.2375 14.8626 21.7947 15.7916 22.1879 17.3335C20.7154 16.894 19.216 16.5317 17.6818 16.3852Z" fill="#976D9D"/>
<path d="M20.5112 13.0741C21.606 13.5405 21.8488 14.9089 22.2535 15.9072C21.1126 15.4293 20.6384 14.2189 20.5112 13.0741Z" fill="#8D4E7B"/>
<path d="M6.10242 17.1638C6.69218 16.9056 7.2858 16.6511 7.87556 16.3967C8.88548 17.1176 10.1421 17.1445 11.3332 17.1176C10.1961 17.6379 9.02811 18.1082 7.79461 18.3549C7.23183 17.954 6.6652 17.5608 6.10242 17.1638Z" fill="#DB859E"/>
<path d="M17.6818 16.3852C19.216 16.5316 20.7154 16.894 22.1879 17.3334C22.6119 17.8307 23.1477 18.2161 23.8184 18.2817L23.8724 18.2932C24.466 19.2723 25.2369 20.1242 25.873 21.0763C25.8306 22.5141 26.748 23.7553 28.0663 24.2602C27.5574 25.6364 25.9038 25.8831 24.624 25.9833C22.5849 25.7674 20.5188 23.5548 18.5414 25.0273C18.7071 25.1353 19.0464 25.355 19.216 25.4629C18.1752 25.4475 17.1421 26.0141 16.1168 25.6749C15.1223 25.3704 14.0815 25.4359 13.0678 25.5631C13.3453 25.8599 13.6267 26.1567 13.9042 26.4536C12.8827 26.4651 11.8613 26.4034 10.8475 26.2685C9.57159 26.1799 8.94328 24.719 7.66353 24.6187C7.98347 25.9216 7.5556 27.4095 8.39592 28.5543C8.28028 28.8165 8.15693 29.0747 8.02201 29.3291C6.85791 29.252 6.02145 30.181 5.05393 30.6667C4.1211 31.2488 2.94542 31.295 2.03958 31.9272C0.806086 32.7328 1.12217 34.4096 0.370509 35.539C0.0467178 32.5516 0.274143 29.5334 0.185486 26.5306C0.887034 27.0086 1.65026 27.3902 2.47901 27.5753C2.45974 25.4976 3.01481 23.5279 3.7973 21.6391L3.80887 21.5813C5.10789 20.7718 6.09083 19.4535 7.60957 19.0102C8.96641 19.0526 10.2654 18.6247 11.5182 18.1506C12.2776 17.2872 13.565 17.3334 14.6173 17.2486C15.6774 17.1754 17.1691 17.6803 17.6818 16.3852Z" fill="#1F1F1F"/>
<path d="M23.1786 16.736C23.356 16.7475 23.7106 16.7784 23.884 16.7899C23.8648 17.2872 23.8416 17.7844 23.8185 18.2817C23.1478 18.2161 22.612 17.8307 22.188 17.3334C22.4347 17.1831 22.9319 16.8824 23.1786 16.736Z" fill="#7C6E79"/>
<path d="M3.66246 20.1512C2.93393 19.3687 3.48515 18.301 3.59308 17.3913C4.05178 17.3489 4.50663 17.3065 4.96148 17.2486C5.94057 17.6688 6.96205 18.1198 7.60963 19.0102C6.0909 19.4535 5.10796 20.7718 3.80894 21.5813C3.88989 20.1859 4.63769 18.8522 4.28692 17.4414C3.76654 18.2432 3.87832 19.2531 3.66246 20.1512Z" fill="#9D6A9B"/>
<path d="M25.4877 17.9117C26.1006 17.7459 26.7597 18.035 27.3919 18.0042C28.1127 18.2663 26.8329 18.5862 26.6017 18.4436C26.0697 18.4783 25.6997 18.2971 25.4877 17.9117Z" fill="#8A698C"/>
<path d="M0.2434 18.3858C1.14154 18.2508 2.05124 18.1622 2.96479 18.1545C2.90312 18.8213 2.84144 19.492 2.77977 20.1589C1.9009 20.3748 1.03361 20.6446 0.181725 20.9414C0.177871 20.7448 0.170162 20.3439 0.166307 20.1473C0.162452 19.6771 0.162452 19.2107 0.174016 18.7442C0.193289 18.6556 0.224127 18.4744 0.2434 18.3858Z" fill="#E47CA1"/>
<path d="M23.8725 18.2933C25.2679 18.5284 26.6324 18.9408 28.051 19.0372C27.9122 19.3687 27.6308 20.0394 27.4882 20.3748C27.1721 20.8759 26.8252 21.3539 26.4821 21.8357C26.3318 21.643 26.0273 21.2652 25.8731 21.0763C25.237 20.1242 24.4661 19.2723 23.8725 18.2933Z" fill="#9D6D9F"/>
<path d="M27.4882 20.3747C28.1126 20.5097 28.714 20.3747 29.1727 19.916C29.1804 20.6099 29.35 21.2459 30.0284 21.5658C30.198 22.8225 30.3792 24.1754 29.9436 25.3974C29.5774 25.752 29.2035 26.0989 28.8258 26.442C28.1666 25.5053 28.9028 24.5031 29.0647 23.5356C28.3169 22.8494 27.0873 22.7685 26.4821 21.8357C26.8252 21.3538 27.1721 20.8759 27.4882 20.3747Z" fill="#201C1C"/>
<path d="M2.17064 21.7663C2.69873 21.5851 3.24994 21.5697 3.7973 21.6391C3.01481 23.5279 2.45974 25.4976 2.47901 27.5753C1.65026 27.3903 0.887034 27.0087 0.185486 26.5307C0.185486 26.0527 0.185486 25.5747 0.204759 25.0967C1.10675 24.426 1.97405 23.7014 2.94928 23.1347C2.68716 22.6799 2.42504 22.225 2.17064 21.7663Z" fill="#9A6D9A"/>
<path d="M67.0871 25.0851C67.6961 23.9827 68.8178 23.4276 69.9549 23.0268C71.1113 23.0884 72.3641 22.9728 73.401 23.6011C74.2413 24.0906 74.7848 24.9271 75.2474 25.7597C75.7832 27.5945 75.0816 29.5835 73.5012 30.6474C73.4935 30.9365 73.4819 31.5109 73.4742 31.7961C73.4627 33.6464 73.4627 35.4966 73.4897 37.3468C73.7286 37.3314 74.2143 37.2967 74.4533 37.2813C75.4324 35.4503 76.2072 33.4845 77.5448 31.8655C77.8377 31.5186 78.1422 31.1794 78.4545 30.8517C79.2485 30.1694 80.1428 29.5835 81.1836 29.3523C80.3355 30.5742 78.8785 31.1639 77.9919 32.355C76.0646 34.7719 74.9814 37.7323 74.0293 40.6387C73.6361 41.7489 73.4935 42.9284 73.5012 44.1002C73.5051 47.7082 73.5282 51.3123 73.4935 54.9202C73.4974 55.7297 73.4665 56.5662 73.7903 57.3294C73.8636 57.5761 73.9445 57.8189 74.0293 58.0618L73.5128 58.3586C73.3509 58.4511 73.0309 58.6323 72.8691 58.7209C72.7611 52.249 72.8459 45.7731 72.7573 39.3011L72.8691 38.6458C72.9616 38.561 73.1466 38.3876 73.243 38.2989C73.4704 38.9619 73.3586 39.6673 73.3586 40.3496C73.7826 39.6095 74.1141 38.8232 74.3878 38.0137C73.8636 38.033 73.3393 38.0638 72.8151 38.1062C72.8074 35.778 72.792 33.4498 72.8151 31.1215C71.6587 31.2449 70.4946 31.2642 69.3343 31.2218C69.3575 33.2416 69.342 35.2653 69.3536 37.289C69.1724 37.2543 68.8062 37.1811 68.6251 37.1464C67.4571 36.9113 66.3431 36.4872 65.2368 36.0632L65.8266 35.697C65.9962 35.751 66.3393 35.8589 66.5089 35.9129C67.2104 36.1403 67.9235 36.3485 68.6328 36.5566C68.7831 34.6601 68.6906 32.7521 68.7022 30.8517C67.9659 30.1656 67.2644 29.4409 66.69 28.6122C66.6206 28.0263 66.5551 27.4403 66.4973 26.8544C66.6245 26.2415 66.8172 25.6479 67.0871 25.0851ZM69.7622 23.7707C68.2319 24.2795 66.9406 25.8908 67.2104 27.5521C67.3954 29.4987 69.4692 30.8055 71.3233 30.6436C72.8035 30.6628 73.9869 29.5026 74.673 28.2961C75.0392 26.8544 74.5805 25.2123 73.3316 24.3451C72.3911 23.3968 70.9533 23.6859 69.7622 23.7707Z" fill="#2D170F"/>
<path d="M16.433 27.4982C16.4175 26.7966 17.5932 27.0433 17.8707 27.4596C18.1521 27.6408 17.9902 28.4426 17.6086 28.1034C17.2309 27.8759 16.8377 27.6755 16.433 27.4982Z" fill="#2D170F"/>
<path d="M5.05396 30.6667C6.02148 30.181 6.85794 29.252 8.02205 29.3291C6.87336 30.9789 4.88435 31.773 2.97244 32.1199C2.53301 36.2868 5.82875 39.7521 9.50224 41.1283C9.40202 41.2555 9.20158 41.5099 9.10136 41.6409C8.63109 41.3364 8.15696 41.0319 7.67898 40.7389C6.38382 41.6371 4.82268 41.772 3.29623 41.6024C3.38489 41.4289 3.55835 41.0743 3.64701 40.897C4.50274 40.9432 5.37004 40.9355 6.16796 40.5732C5.84417 39.81 5.30066 39.1894 4.67235 38.669C3.74723 37.9327 3.28852 36.8226 2.6448 35.8666C2.29402 36.4371 1.97794 37.0307 1.68113 37.6321C1.57705 37.6783 1.3689 37.7747 1.26483 37.8248C1.04511 37.1464 0.817685 36.4718 0.505458 35.8281C0.470766 35.7587 0.405236 35.6122 0.370544 35.539C1.1222 34.4096 0.806121 32.7328 2.03961 31.9272C2.94546 31.295 4.12113 31.2488 5.05396 30.6667ZM1.87386 34.0704C2.07045 34.2207 2.46748 34.5175 2.66792 34.664C2.65636 33.8468 2.6448 33.0296 2.62167 32.2124C1.95096 32.6094 1.83146 33.3534 1.87386 34.0704Z" fill="#2D170F"/>
<path d="M13.5805 30.4508C13.3299 29.8765 14.0006 29.8264 14.3668 29.6259C14.363 29.8457 14.3514 30.2812 14.3475 30.5009C14.1587 30.4894 13.7732 30.4624 13.5805 30.4508Z" fill="#2D170F"/>
<path d="M14.1818 32.143C14.5403 30.871 15.8663 30.3121 17.0458 30.8941C17.1114 31.0946 17.2501 31.5032 17.3195 31.7075C16.9302 31.507 16.5409 31.322 16.14 31.1524C15.3575 31.1138 14.8256 31.8077 14.1818 32.143Z" fill="#2D170F"/>
<path d="M69.7623 23.7707C70.9534 23.6859 72.3912 23.3968 73.3317 24.3451C74.5806 25.2124 75.0393 26.8544 74.6731 28.2961C73.987 29.5026 72.8036 30.6629 71.3234 30.6436C69.4693 30.8055 67.3955 29.4987 67.2105 27.5521C66.9407 25.8908 68.232 24.2795 69.7623 23.7707ZM69.2727 24.7498C68.286 25.5824 68.0585 26.9971 68.3052 28.2074C69.3421 29.0169 70.7337 29.1942 71.9325 29.6992C72.6263 28.7509 74.145 28.1419 73.9407 26.7696C73.9562 25.6595 72.7265 25.1276 71.8939 24.6689C71.0266 24.5648 70.1285 24.5686 69.2727 24.7498Z" fill="#8A674B"/>
<path d="M69.2727 24.7498C70.1285 24.5687 71.0266 24.5648 71.8939 24.6689C72.7265 25.1276 73.9561 25.6595 73.9407 26.7697C74.145 28.1419 72.6263 28.751 71.9324 29.6992C70.7336 29.1943 69.3421 29.017 68.3052 28.2075C68.0585 26.9971 68.2859 25.5824 69.2727 24.7498Z" fill="#976736"/>
<path d="M19.9639 25.8676C20.0525 25.5824 20.1412 25.2972 20.2299 25.0119C22.2266 26.3264 24.6126 26.8544 26.9755 26.4343C27.3841 27.2438 27.7773 28.0648 28.1589 28.8859C25.4491 29.252 22.9667 30.5472 20.7849 32.143C20.014 32.6788 19.1081 33.4845 18.1599 32.8446C18.2678 34.664 16.1015 35.0572 14.7447 34.5522C14.7485 34.1436 14.7562 33.7312 14.7678 33.3187C14.3438 33.7659 13.8697 34.1629 13.3686 34.5175C14.525 34.7604 15.639 35.1998 16.8339 35.2653C15.6775 36.2097 14.5943 37.2351 13.4919 38.2373L13.2838 37.6398C13.3146 37.8364 13.3724 38.2334 13.3994 38.43C11.9693 39.1431 11.2138 41.082 9.50233 41.1283C5.82883 39.7521 2.5331 36.2868 2.97253 32.1199C4.88444 31.773 6.87345 30.9789 8.02214 29.3291C8.15705 29.0747 8.2804 28.8165 8.39604 28.5544C8.78151 27.6485 8.68129 26.6694 8.5271 25.7327C10.1075 27.4365 13.0371 27.8335 14.8796 26.3341C16.5872 26.7195 18.3257 26.4073 19.9639 25.8676ZM16.433 27.4982C16.8378 27.6755 17.2309 27.8759 17.6087 28.1034C17.9903 28.4426 18.1522 27.6408 17.8708 27.4596C17.5933 27.0433 16.4176 26.7966 16.433 27.4982ZM12.5899 29.0747C13.0139 28.7933 13.3878 28.4387 13.835 28.1766C13.6499 27.1397 11.5492 28.5775 12.5899 29.0747ZM16.3482 29.3947C16.5988 30.0307 17.6665 30.2543 17.7937 29.3985C17.7821 28.6276 16.6103 29.0015 16.3482 29.3947ZM13.5806 30.4508C13.7733 30.4624 14.1588 30.4894 14.3476 30.501C14.3515 30.2812 14.3631 29.8457 14.3669 29.6259C14.0007 29.8264 13.33 29.8765 13.5806 30.4508ZM14.1819 32.143C14.8256 31.8077 15.3576 31.1138 16.1401 31.1524C16.5409 31.322 16.9303 31.507 17.3196 31.7075C17.2502 31.5032 17.1114 31.0946 17.0459 30.8941C15.8664 30.3121 14.5404 30.871 14.1819 32.143Z" fill="#E6BA7F"/>
<path d="M12.5898 29.0747C11.5491 28.5775 13.6498 27.1397 13.8349 28.1766C13.3877 28.4387 13.0138 28.7933 12.5898 29.0747Z" fill="#643E15"/>
<path d="M16.3483 29.3947C16.6104 29.0015 17.7822 28.6276 17.7938 29.3986C17.6666 30.2543 16.5988 30.0307 16.3483 29.3947Z" fill="#2B0009"/>
<path d="M39.9427 32.3589C43.0997 32.8716 46.1333 31.4724 49.2864 31.6227C51.2099 31.6497 53.1757 31.4955 55.0607 31.9966C55.2071 32.0313 55.504 32.1084 55.6543 32.1431C57.2655 32.5825 58.8575 33.0836 60.4225 33.658C62.2188 34.3557 64.0189 35.0302 65.8267 35.6971L65.237 36.0633C62.4231 35.115 59.6901 33.9316 56.8569 33.0451C53.6576 32.0159 50.2539 32.2356 46.9505 32.3512C44.2638 32.7521 41.5501 33.392 38.8248 32.8793L39.0523 32.332C39.3491 32.3435 39.6459 32.3512 39.9427 32.3589Z" fill="#2B0009"/>
<path d="M0.386082 37.3122C0.528705 37.5049 0.806241 37.8865 0.945009 38.0754C0.767694 38.5534 0.686746 39.0583 0.601943 39.5594C0.92959 39.7792 1.25724 40.0027 1.58488 40.2302C1.92795 39.8909 2.26716 39.5556 2.61022 39.2202C2.47145 39.5749 2.33269 39.9295 2.19006 40.2841C2.35581 40.419 2.68346 40.6927 2.84921 40.8315C2.7991 40.9857 2.70273 41.2979 2.65648 41.4521C2.21705 41.3017 1.85856 41.0358 1.58103 40.6503C1.63499 41.7682 1.90482 42.9477 2.76055 43.7417C2.74899 43.337 2.72586 42.5314 2.71815 42.1305C3.51607 42.4042 3.10362 43.549 3.29635 44.1966C3.14602 44.2853 2.8415 44.4587 2.69117 44.5474C1.21869 43.5066 1.65427 41.2247 0.247314 40.2186C0.274297 39.2472 0.308989 38.2797 0.386082 37.3122Z" fill="#2B0009"/>
<path d="M74.2684 57.3449C76.4386 57.0134 78.6242 56.7358 80.7712 56.2578C80.8406 56.412 80.9794 56.7127 81.0488 56.8669C78.7977 57.1714 76.5388 57.792 74.2761 57.7265C74.2723 57.6301 74.2684 57.4412 74.2684 57.3449Z" fill="#2B0009"/>
<path d="M72.8692 58.721C73.0311 58.6323 73.351 58.4511 73.5129 58.3586C73.4243 63.7166 73.4551 69.0823 73.5014 74.4441C73.2932 74.4249 73.0851 74.4056 72.8769 74.3863C72.8769 74.1242 72.8769 73.6038 72.8769 73.3417C72.9 68.4694 72.9077 63.5933 72.8692 58.721Z" fill="#2B0009"/>
<path d="M24.019 30.8093C25.3604 30.1386 26.8175 29.5874 28.3439 29.6722C27.1914 30.0037 26.035 30.3622 25.0058 30.9905C20.704 33.4922 17.3774 37.2659 13.6731 40.5115C11.553 41.9416 9.22867 43.1327 7.46709 45.0369C7.31676 44.7748 7.01995 44.2467 6.87347 43.9807C8.57723 42.6084 10.6241 41.718 12.2276 40.2108C15.9011 36.7802 19.5669 33.2301 24.019 30.8093Z" fill="#ABDDDC"/>
<path d="M81.1836 29.3523C81.1143 30.1656 81.0796 30.979 81.0834 31.7923C81.0988 33.7042 81.095 35.6123 81.1027 37.5242C81.1066 39.4708 81.1066 41.4213 81.1027 43.3679C81.095 45.299 81.095 47.2302 81.0988 49.1576C81.1104 51.0849 81.1027 53.0122 81.1027 54.9434C81.1066 55.6835 81.1258 56.4275 81.1991 57.1676L81.0487 56.8669C80.9793 56.7127 80.8406 56.412 80.7712 56.2579C78.6241 56.7358 76.4386 57.0134 74.2684 57.3449C74.1489 57.341 73.9099 57.3333 73.7904 57.3294C73.4666 56.5662 73.4974 55.7298 73.4936 54.9203C73.5283 51.3123 73.5052 47.7082 73.5013 44.1002C73.4936 42.9284 73.6362 41.7489 74.0294 40.6388C74.9815 37.7323 76.0647 34.772 77.992 32.3551C78.8786 31.164 80.3356 30.5742 81.1836 29.3523ZM77.7646 34.4366C77.1748 35.3771 76.4617 36.2599 76.0569 37.3045C75.7563 38.2604 75.9259 39.3128 75.5211 40.2494C74.7926 42.0573 74.0448 43.9576 74.1874 45.9466C74.5999 49.0419 74.199 52.1681 74.3532 55.2711C74.5845 56.2232 75.71 56.1461 76.427 55.8647C77.5179 55.3867 79.0289 56.5778 79.7921 55.2942C80.5129 54.4963 79.6649 53.6906 79.1368 53.0932C79.5184 52.7193 80.2662 52.4957 80.2046 51.8481C80.2662 46.4477 80.1699 41.0435 80.2393 35.6431C80.2855 34.2246 81.0333 32.463 79.6572 31.43C78.5895 32.1161 78.416 33.4382 77.7646 34.4366Z" fill="#856849"/>
<path d="M28.6831 30.8556C30.3291 30.5241 31.7283 31.7037 32.8269 32.7714C34.2762 33.2224 35.8219 33.2224 37.3098 33.4768C39.2642 33.6965 41.2455 34.321 43.2075 33.8199C46.2642 33.0412 49.4366 33.1993 52.5589 33.1646C53.5881 33.1607 54.6288 33.2571 55.6002 33.6194C57.1768 34.2053 58.9037 34.4173 60.3222 35.3849C61.8101 36.3909 63.6989 36.2444 65.2716 37.0462C66.0618 37.451 67.0486 37.4856 67.7386 38.06C67.9776 39.5556 67.8002 41.0743 67.8079 42.5815C67.8388 51.3123 67.8311 60.0431 67.8426 68.7778C67.6191 70.4122 67.6306 72.0504 68.1009 73.6462C65.4951 73.9777 63.0089 72.9331 60.4764 72.5053C58.6377 72.193 56.9802 71.2255 55.1222 71.0019C52.7208 70.7205 50.5159 69.6065 48.1183 69.302C45.7477 69.0476 43.6238 67.764 41.2185 67.6985C37.1171 67.0625 33.0158 66.3609 28.872 66.0371C25.796 65.987 22.7161 65.9832 19.6401 66.0834C15.689 66.5035 11.6956 66.5691 7.73302 66.3609C6.26439 66.2877 6.15261 64.3758 6.39931 63.2695C7.19722 59.4688 6.05624 55.6565 6.33763 51.8404C6.08322 49.4235 7.30515 47.0992 8.92411 45.3838C9.95716 44.0887 12.0849 43.973 12.3779 42.0765C14.6252 40.8585 16.275 38.8733 18.1329 37.1734C19.8251 37.3237 20.5613 35.5352 21.8025 34.7411C23.9881 33.2841 26.0427 31.4223 28.6831 30.8556Z" fill="#FD6E9A"/>
<path d="M69.3343 31.2218C70.4946 31.2642 71.6587 31.2449 72.8151 31.1216C72.792 33.4498 72.8074 35.778 72.8151 38.1062C73.3393 38.0638 73.8636 38.033 74.3878 38.0137C74.1141 38.8232 73.7826 39.6095 73.3586 40.3496C73.3586 39.6673 73.4704 38.9619 73.243 38.2989C73.1466 38.3876 72.9616 38.561 72.8691 38.6459L72.7573 39.3011C72.4682 38.9774 71.8668 38.7808 71.8823 38.2681C71.8707 36.7262 72.5337 35.2499 72.4258 33.7003C72.3564 32.8407 71.6895 32.143 70.9109 31.8462C69.9896 31.904 70.1901 33.0643 70.0436 33.7119C70.1284 45.6575 70.0359 57.6108 70.0821 69.5602C70.14 71.5415 69.9549 73.5344 70.2787 75.5003C70.4522 76.6027 70.1477 77.6974 70.1361 78.7999C70.2826 79.7019 71.3542 79.5014 72.0133 79.6171C71.8707 79.4706 71.5893 79.1776 71.4467 79.0312C71.7088 78.9039 71.9709 78.7767 72.233 78.6495C72.1328 78.4876 71.9285 78.16 71.8283 77.9981C71.9632 76.9111 71.7474 75.8164 71.8437 74.7371C72.1251 74.2282 72.5144 73.7927 72.8768 73.3417C72.8768 73.6038 72.8768 74.1242 72.8768 74.3863C72.7958 76.225 73.0232 78.0868 72.7187 79.9062C71.7358 80.5191 70.4869 80.1374 69.4037 80.0719C69.2457 78.4992 69.211 76.9188 69.3112 75.3422C69.4191 62.6565 69.3343 49.9709 69.3536 37.289C69.342 35.2653 69.3575 33.2416 69.3343 31.2218Z" fill="#8A694A"/>
<path d="M77.7645 34.4366C78.4159 33.4382 78.5894 32.1161 79.6571 31.4299C81.0333 32.463 80.2854 34.2246 80.2392 35.6431C80.1698 41.0435 80.2662 46.4477 80.2045 51.8481C80.2662 52.4957 79.5184 52.7192 79.1368 53.0931C79.6648 53.6906 80.5129 54.4962 79.7921 55.2941C79.0288 56.5777 77.5178 55.3867 76.4269 55.8646C75.71 56.146 74.5844 56.2231 74.3531 55.271C74.1989 52.168 74.5998 49.0419 74.1874 45.9466C74.0447 43.9576 74.7926 42.0572 75.5211 40.2494C75.9258 39.3127 75.7562 38.2604 76.0569 37.3044C76.4616 36.2598 77.1747 35.3771 77.7645 34.4366Z" fill="#966836"/>
<path d="M70.0436 33.7119C70.1901 33.0644 69.9896 31.9041 70.9109 31.8463C71.6895 32.1431 72.3564 32.8408 72.4258 33.7004C72.5337 35.2499 71.8707 36.7263 71.8823 38.2681C71.8668 38.7808 72.4682 38.9774 72.7573 39.3012C72.8459 45.7732 72.7611 52.249 72.869 58.721C72.9076 63.5933 72.8999 68.4694 72.8768 73.3417C72.5144 73.7927 72.1251 74.2283 71.8437 74.7371C71.7473 75.8164 71.9632 76.9111 71.8283 77.9981C71.9285 78.16 72.1328 78.4877 72.233 78.6496C71.9709 78.7768 71.7088 78.904 71.4467 79.0312C71.5893 79.1777 71.8707 79.4706 72.0133 79.6171C71.3542 79.5015 70.2826 79.7019 70.1361 78.7999C70.1477 77.6975 70.4522 76.6028 70.2787 75.5003C69.9549 73.5345 70.1399 71.5416 70.0821 69.5603C70.0359 57.6108 70.1284 45.6575 70.0436 33.7119Z" fill="#936A37"/>
<path d="M1.87389 34.0704C1.83148 33.3534 1.95098 32.6095 2.62169 32.2125C2.64482 33.0297 2.65638 33.8468 2.66795 34.664C2.4675 34.5176 2.07047 34.2207 1.87389 34.0704Z" fill="#AD907A"/>
<path d="M0.505507 35.8281C0.817734 36.4718 1.04516 37.1464 1.26488 37.8248C1.18393 37.8865 1.02589 38.0137 0.944938 38.0754C0.806171 37.8865 0.528635 37.5049 0.386012 37.3122C0.308919 38.2797 0.274227 39.2472 0.247244 40.2186C0.104622 39.3551 0.0506565 38.4763 0.00825526 37.6051C-0.0495647 36.9614 0.204843 36.3793 0.505507 35.8281Z" fill="#918A8F"/>
<path d="M1.68123 37.6321C1.97804 37.0307 2.29413 36.4371 2.6449 35.8666C3.28863 36.8226 3.74733 37.9327 4.67245 38.669C5.30076 39.1894 5.84427 39.81 6.16806 40.5732C5.37015 40.9355 4.50285 40.9432 3.64711 40.897C3.55846 41.0743 3.385 41.4289 3.29634 41.6024C3.1383 41.5677 2.81451 41.4906 2.65646 41.452C2.70272 41.2979 2.79909 40.9856 2.8492 40.8314C2.68345 40.6927 2.3558 40.419 2.19005 40.2841C2.33267 39.9295 2.47144 39.5748 2.61021 39.2202C2.26714 39.5555 1.92793 39.8909 1.58487 40.2301C1.25722 40.0027 0.929575 39.7791 0.601929 39.5594C0.686731 39.0583 0.767679 38.5533 0.944994 38.0754C1.02594 38.0137 1.18398 37.8865 1.26493 37.8248C1.36901 37.7747 1.57716 37.6783 1.68123 37.6321Z" fill="#1D1D20"/>
<path d="M68.6251 37.1464C68.8063 37.1811 69.1725 37.2544 69.3536 37.289C69.3344 49.9709 69.4192 62.6566 69.3112 75.3423C69.0954 75.1688 68.8757 75.0031 68.6598 74.8335C68.5904 73.0796 68.5172 71.3257 68.5403 69.568C68.5827 58.7595 68.4902 47.951 68.6251 37.1464Z" fill="#5F201A"/>
<path d="M0.247209 40.2186C1.65416 41.2247 1.21858 43.5066 2.69107 44.5474C2.8414 44.4587 3.14592 44.2853 3.29625 44.1966C3.60462 44.3624 4.22522 44.69 4.53359 44.8558C3.06497 45.4378 1.02585 45.3877 0.455361 43.6184C0.397541 43.8574 0.289611 44.3354 0.231791 44.5744L0.116151 44.4472C0.104587 44.2583 0.077604 43.8767 0.06604 43.6878C0.100732 42.5314 0.231791 41.375 0.247209 40.2186Z" fill="#C4859A"/>
<path d="M2.76052 43.7417C1.90479 42.9476 1.63496 41.7681 1.58099 40.6503C1.85853 41.0357 2.21701 41.3017 2.65644 41.452C2.81449 41.4906 3.13828 41.5677 3.29632 41.6024C4.82276 41.772 6.3839 41.6371 7.67907 40.7389C8.15705 41.0319 8.63117 41.3364 9.10144 41.6409C7.56343 42.6817 6.17961 44.0077 4.53366 44.8557C4.22529 44.69 3.60469 44.3623 3.29632 44.1966C3.10359 43.549 3.51603 42.4041 2.71812 42.1305C2.72583 42.5313 2.74896 43.337 2.76052 43.7417Z" fill="#F176A1"/>
<path d="M2.8683 48.4598C3.95146 46.7638 5.21578 45.1525 6.87329 43.9807C7.01977 44.2467 7.31658 44.7748 7.46691 45.0369C6.51095 46.2627 5.1888 47.4537 5.10785 49.1074C4.81875 54.0529 5.78627 59.0332 5.07702 63.9556C4.8997 64.6533 4.66842 65.4088 4.93054 66.118C5.6822 67.4941 7.4168 67.6946 8.82375 67.7909C14.2434 68.0145 19.6361 67.2821 25.048 67.1626C36.7045 67.5365 48.0565 70.5046 59.2543 73.519C62.3766 74.3786 65.5258 75.1264 68.7329 75.5966C68.7252 75.9898 68.7098 76.78 68.7021 77.1771C68.5286 77.1539 68.1817 77.1115 68.0082 77.0884C65.7571 76.1132 63.2747 76.0862 60.9311 75.4579C49.1242 72.2392 37.2519 68.8201 24.9902 67.922C18.4527 67.7408 11.9422 68.6313 5.40852 68.7045C5.40852 68.8163 5.40466 69.0476 5.40466 69.1632C4.98836 69.1786 4.57591 69.194 4.16346 69.2095L3.7857 69.009L4.44871 68.9897C4.72624 68.8047 5.00378 68.6158 5.27746 68.4231C4.17117 68.531 3.1998 68.0376 2.32864 67.4209C2.30937 65.2893 3.13041 63.2386 2.87215 61.0877C3.02248 56.8823 1.90078 52.6113 2.8683 48.4598Z" fill="#98D3DF"/>
<path d="M0.11615 44.4472L0.23179 44.5744C1.19931 45.7655 2.71805 45.9389 4.14042 45.6884C3.62389 46.3745 3.10737 47.0606 2.68721 47.8084C1.70813 49.2616 1.96639 51.0926 1.90471 52.7501C1.39204 52.6923 0.883228 52.6884 0.374412 52.7308C0.162406 53.548 1.3535 53.2165 1.81991 53.4208C2.26705 56.3118 2.15912 59.2491 2.22465 62.1671C1.52696 62.1671 0.636529 61.7469 0.123859 62.4138H0.120005C0.139278 61.8471 0.166261 61.2843 0.185534 60.7216C0.220226 58.775 0.17397 56.8245 0.193243 54.8779C0.127714 52.9737 0.212517 51.0656 0.193243 49.1614C0.189389 47.5887 0.235644 46.016 0.11615 44.4472Z" fill="#83599A"/>
<path d="M1.90482 52.7501C1.96649 51.0925 1.70823 49.2616 2.68731 47.8084C2.73357 47.9741 2.82223 48.2979 2.86848 48.4598C1.90096 52.6113 3.02267 56.8823 2.87234 61.0877C3.1306 63.2386 2.30956 65.2893 2.32883 67.4209C3.19998 68.0376 4.17136 68.531 5.27765 68.4231C5.00397 68.6158 4.72643 68.8047 4.44889 68.9898L3.78589 69.009C2.722 68.5503 1.61572 67.7331 1.65041 66.4457C1.92794 65.2392 2.27872 64.0365 2.22475 62.7876C1.5155 62.7221 0.794674 62.6758 0.123962 62.4137C0.636633 61.7468 1.52706 62.167 2.22475 62.167C2.15922 59.249 2.26715 56.3118 1.82001 53.4208C1.3536 53.2165 0.162509 53.548 0.374516 52.7308C0.883331 52.6884 1.39215 52.6922 1.90482 52.7501Z" fill="#19071A"/>
<path d="M60.2413 73.2029C63.0128 73.9044 65.7804 74.7216 68.6598 74.8334C68.8757 75.003 69.0954 75.1688 69.3113 75.3422C69.2111 76.9188 69.2457 78.4992 69.4038 80.0719C70.4869 80.1374 71.7359 80.519 72.7188 79.9061C73.0233 78.0867 72.7959 76.2249 72.8768 74.3863C73.085 74.4055 73.2931 74.4248 73.5013 74.4441C76.0608 74.4711 78.7244 74.2167 81.0603 73.0872C81.0603 73.2838 81.0564 73.677 81.0564 73.8736C80.3202 74.0895 79.5878 74.3284 78.8439 74.5289C77.0591 74.7949 75.2706 75.057 73.4666 75.0878C73.4627 75.7084 73.4627 76.3329 73.4666 76.9573C75.5558 76.3791 77.7067 75.8857 79.6456 74.8835C80.193 74.7448 80.7442 74.6175 81.3031 74.5058C80.5823 75.7084 79.0713 75.7662 77.884 76.2172C76.4347 76.7106 74.9661 77.1424 73.4974 77.5702L73.4782 78.0482C73.4627 78.8307 73.4358 79.6132 73.3702 80.3918C72.9385 80.5345 72.5068 80.6771 72.0751 80.8158C70.9572 81.0895 69.8471 80.7388 68.7793 80.4342C68.7408 79.5862 68.7138 78.7382 68.6945 77.894L68.3399 77.8054C67.9159 77.6704 67.4957 77.5278 67.0756 77.3968L66.6631 77.2619C67.1103 77.204 67.5613 77.1462 68.0084 77.0884C68.1819 77.1115 68.5288 77.1539 68.7022 77.177C68.7099 76.78 68.7254 75.9898 68.7331 75.5966C65.526 75.1264 62.3767 74.3786 59.2545 73.519C59.5012 73.438 59.9946 73.28 60.2413 73.2029Z" fill="#19071A"/>
<path d="M78.7667 57.8305C79.8576 57.1752 80.4975 58.6554 80.4705 59.542C80.4897 63.4005 80.5013 67.2629 80.4358 71.1214C80.4666 72.0619 79.9 73.2068 78.8284 73.1875C77.3482 73.1644 75.8873 73.6192 74.4109 73.3764C74.4264 72.3665 74.5343 71.3565 74.4495 70.3505C74.2413 67.259 74.4495 64.1637 74.3416 61.0723C74.3685 60.259 74.2066 59.1642 75.0431 58.6786C76.2034 58.0965 77.5756 58.3548 78.7667 57.8305Z" fill="#FC6F9A"/>
<path d="M4.93063 66.1181C4.66852 65.4088 4.89979 64.6533 5.07711 63.9556C5.1542 64.21 5.31224 64.7265 5.38934 64.981C5.43174 65.3703 5.47414 65.7596 5.51269 66.1528C7.33594 67.525 9.76052 67.2398 11.9076 67.2282C17.4506 67.1588 22.9782 66.3648 28.5289 66.7464C39.3258 67.5636 49.822 70.4122 60.2412 73.2029C59.9945 73.28 59.5011 73.4381 59.2544 73.519C48.0566 70.5047 36.7046 67.5366 25.0481 67.1627C19.6362 67.2822 14.2435 68.0146 8.82384 67.791C7.41689 67.6946 5.68229 67.4942 4.93063 66.1181Z" fill="#170017"/>
<path d="M5.40864 68.7045C11.9423 68.6313 18.4528 67.7409 24.9903 67.922C37.252 68.8202 49.1244 72.2393 60.9312 75.4579C63.2748 76.0862 65.7572 76.1132 68.0084 77.0884C67.5612 77.1462 67.1102 77.2041 66.6631 77.2619C64.9401 76.7415 63.1168 76.6953 61.3861 76.1941C59.2236 75.6583 57.0881 75.0262 54.9295 74.4788C53.1795 73.97 51.4102 73.5537 49.6563 73.0642C45.4701 71.9771 41.257 70.9826 37.013 70.1539C35.3015 69.8802 33.6016 69.5757 31.8902 69.2982C30.7145 69.1016 29.5311 68.9628 28.3439 68.851C28.3362 69.9843 28.3323 71.1214 28.3285 72.2585C28.3246 73.3687 28.3246 74.4827 28.3323 75.5967C28.0779 75.7971 27.8235 75.9937 27.5652 76.1826C27.4149 76.2096 27.122 76.2635 26.9755 76.2867C25.53 76.3329 23.9958 76.5064 22.666 75.8125C22.6621 75.535 22.6583 74.9761 22.6544 74.6947C22.7585 74.687 22.9589 74.6754 23.063 74.6677C23.2866 74.9607 23.4832 75.2729 23.6489 75.6082C24.998 75.7239 26.3664 75.7624 27.6924 75.4579C27.6192 73.2646 27.7194 71.0713 27.6231 68.878C26.2084 68.6814 24.7783 68.5658 23.3482 68.6043C23.1786 70.4391 23.6489 72.4975 23.0707 74.1782H22.8626C22.5773 73.0487 22.7508 71.8384 22.6814 70.6781C22.6775 69.9534 22.6891 69.2288 22.7045 68.5079C21.9374 68.5195 21.1665 68.5311 20.3994 68.5503C18.4528 68.6043 16.5101 68.7739 14.5635 68.9011C11.5877 68.9782 8.62343 69.4639 5.63992 69.2712L5.40479 69.1632C5.40479 69.0476 5.40864 68.8163 5.40864 68.7045Z" fill="#143235"/>
<path d="M23.3482 68.6043C24.7782 68.5658 26.2083 68.6814 27.623 68.878C27.7193 71.0713 27.6191 73.2646 27.6924 75.4579C26.3664 75.7624 24.998 75.7239 23.6488 75.6083C23.4831 75.2729 23.2865 74.9607 23.0629 74.6677C22.9588 74.6754 22.7584 74.687 22.6543 74.6947C22.6466 73.8698 22.6543 73.0449 22.662 72.22C22.6659 71.7035 22.6774 71.1908 22.6813 70.6781C22.7507 71.8384 22.5772 73.0488 22.8625 74.1782H23.0706C23.6488 72.4975 23.1786 70.4392 23.3482 68.6043Z" fill="#92693D"/>
<path d="M73.4665 75.0879C75.2705 75.057 77.0591 74.7949 78.8438 74.5289C79.0442 74.6176 79.4451 74.7949 79.6455 74.8836C77.7066 75.8858 75.5557 76.3792 73.4665 76.9574C73.4627 76.3329 73.4627 75.7085 73.4665 75.0879Z" fill="#A1BDCB"/>
</svg>
