<svg width="66" height="78" viewBox="0 0 66 78" fill="none" xmlns="http://www.w3.org/2000/svg">
<path d="M28.3379 0.889913C31.886 0.640436 35.6466 1.05161 38.6126 3.18141C43.3157 6.2352 45.5287 11.9362 45.6812 17.3647C45.8844 23.098 44.4892 29.1548 40.7702 33.6454C38.6357 36.3804 34.815 35.826 31.8537 36.884C28.8507 37.4892 26.0279 38.695 23.0665 39.4342L23.3899 38.9768C23.5655 38.7828 23.741 38.5841 23.9166 38.3901C22.0917 36.8701 20.7057 34.902 19.7679 32.726C18.1832 29.0531 17.0328 25.08 17.2038 21.0468C17.4255 17.2815 17.675 13.3545 19.6015 10.0097C20.5024 8.51283 21.2786 6.93281 22.3227 5.53296C24.0644 3.6896 26.4991 2.79795 28.6151 1.49051C28.5596 1.37963 28.458 1.15787 28.4025 1.04699L28.3379 0.889913Z" fill="white"/>
<path d="M26.0434 0.871285C30.3815 -0.736458 35.4219 -0.0665657 39.2795 2.44669C41.8251 3.87425 44.9713 4.92298 46.2972 7.77349C47.1797 9.35352 46.4867 11.1276 46.2511 12.7723C47.7756 20.5246 46.4174 29.4087 40.8365 35.3084C48.3115 34.8002 56.2671 36.662 62.0744 41.5731C64.717 43.6844 66.2739 47.3665 65.1836 50.6836C64.5368 52.855 62.4671 54.1578 61.7325 56.2876C58.5771 62.5846 51.6241 65.8879 44.9528 66.992C46.0293 69.2974 47.9373 71.9908 46.5513 74.5549C45.1885 76.2597 42.9524 76.9018 40.915 77.41C34.096 78.9438 26.9073 76.6108 21.4973 72.402C19.5015 70.8035 17.6027 68.6367 17.5196 65.9479C17.3255 63.5086 18.3696 61.2356 19.3491 59.0734C16.0504 55.7563 14.3872 51.1225 14.1609 46.5025C8.9126 43.2824 6.4132 37.1518 5.07342 31.3953C3.96001 26.1286 3.02678 20.8295 2.09817 15.5304C0.00995255 13.5623 -0.576781 10.3098 0.596686 7.70881C1.77015 5.85621 4.06627 5.33416 6.02051 4.7197C10.7329 3.52776 15.5191 2.64997 20.3193 1.91539C22.2319 1.57814 24.2231 1.62896 26.0434 0.871285ZM28.5428 0.982164L28.6075 1.13924L28.5289 0.968304C25.489 1.91077 22.4306 3.27828 20.4163 5.84697C15.8056 11.0952 14.4565 18.5056 15.302 25.2831C16.0088 30.6561 18.3604 36.14 22.8649 39.3924L23.5948 39.069L23.2714 39.5264C26.2328 38.7872 29.0556 37.5814 32.0586 36.9762C35.0199 35.9182 38.8406 36.4726 40.9751 33.7376C44.6941 29.247 46.0893 23.1903 45.8861 17.4569C45.7336 12.0285 43.5207 6.32745 38.8175 3.27366C35.8515 1.14386 32.0909 0.732687 28.5428 0.982164ZM11.2965 4.45637C7.94241 5.20942 4.35271 5.69913 1.50682 7.77811L1.53916 7.84741C0.753765 9.33966 0.758384 11.1414 1.26196 12.7168C1.75167 14.1305 3.13766 14.9113 4.41277 15.5119C7.52199 16.8656 10.9639 17.9374 14.378 17.2536C14.7522 15.6274 15.168 14.0058 15.5561 12.3842C17.0391 8.59584 19.289 5.11702 22.4583 2.52061C18.7208 3.07038 14.9971 3.69408 11.2965 4.45637ZM42.6891 5.3665C43.9272 7.15442 44.9297 9.07632 45.9277 11.0075C46.1448 8.64204 44.7819 6.41061 42.6891 5.3665ZM3.10532 15.8769C3.98773 21.0974 4.95792 26.3041 6.04823 31.4877C7.3372 37.1102 10.0168 42.8851 15.0849 46.0359C15.2281 50.7252 16.9698 55.3405 20.2592 58.7269C20.3054 58.8563 20.4024 59.1104 20.4486 59.2398C18.8871 61.6791 17.7783 64.8022 18.8409 67.6481C20.0652 70.4385 22.6385 72.3142 25.2072 73.7787C29.7717 76.4445 35.2417 77.6041 40.4715 76.6339C42.5089 76.024 45.1238 75.5205 46.094 73.3953C46.2973 71.0945 44.8697 69.071 43.9272 67.0798C43.6962 67.1353 43.2342 67.2461 43.0078 67.3062C40.2035 67.2415 37.353 67.4633 34.618 66.7241C34.0405 66.6317 33.6062 66.2528 33.2551 65.8139L33.8188 65.4905C38.0414 66.9458 42.6567 66.6132 46.944 65.6245C52.6959 64.3771 58.2213 61.0323 61.0811 55.7471C60.0416 56.2368 59.0206 56.8328 57.8749 57.0176C57.8471 57.4842 57.8148 57.9508 57.7824 58.422C57.5514 58.0848 57.3343 57.7521 57.0987 57.4241C55.1583 58.2187 53.084 58.5976 51.0142 58.8794C43.0818 59.8265 34.5949 58.9395 27.6419 54.7538C24.0753 52.587 20.7582 49.1036 20.6103 44.7008C20.4671 42.9175 21.4049 41.319 22.7863 40.261C20.2361 38.8473 18.402 36.4588 17.0714 33.9132C14.5536 29.1223 13.7404 23.5414 14.3503 18.1915C11.68 18.5703 8.99114 18.1776 6.45016 17.3276C5.31828 16.8887 4.20487 16.3943 3.10532 15.8769ZM38.1477 36.6482C34.4055 37.2765 30.7188 38.2005 27.0967 39.3139C24.93 40.0069 22.583 41.0002 21.5897 43.2131L21.9501 43.5827L21.368 43.324C21.2294 48.0918 24.5835 52.0788 28.552 54.2872C35.7453 58.3573 44.44 59.1012 52.4834 57.7336C56.8769 56.976 61.7002 55.3451 64.024 51.2241C64.4028 49.8613 64.9018 48.4198 64.4537 47.0061C63.6636 43.7675 60.924 41.4945 58.1289 39.9561C52.1184 36.6112 44.9159 35.3777 38.1477 36.6482Z" fill="#32303C"/>
<path d="M20.4163 5.84701C22.4306 3.27832 25.489 1.91082 28.5289 0.968346L28.6074 1.13928C28.6629 1.25016 28.7645 1.47192 28.82 1.5828C26.704 2.89025 24.2693 3.7819 22.5276 5.62526C21.4835 7.0251 20.7073 8.60513 19.8064 10.102C17.8799 13.4468 17.6304 17.3738 17.4087 21.1391C17.2377 25.1723 18.3881 29.1454 19.9727 32.8183C20.9106 34.9943 22.2966 36.9624 24.1215 38.4824C23.9459 38.6764 23.7703 38.8751 23.5948 39.0691L22.8648 39.3925C18.3604 36.14 16.0088 30.6562 15.302 25.2832C14.4565 18.5057 15.8055 11.0953 20.4163 5.84701Z" fill="#EAE9F8"/>
<path d="M11.2965 4.45641C14.997 3.69411 18.7207 3.07042 22.4583 2.52065C19.289 5.11706 17.0391 8.59588 15.556 12.3842C11.4813 13.5808 7.06458 12.6152 3.46101 10.5178C2.48158 9.92643 2.07041 8.79916 1.53911 7.84745L1.50677 7.77815C4.35266 5.69917 7.94237 5.20946 11.2965 4.45641Z" fill="#FDFEFF"/>
<path d="M42.689 5.36654C44.7818 6.41065 46.1447 8.64208 45.9276 11.0075C44.9296 9.07636 43.9271 7.15446 42.689 5.36654Z" fill="#ECEEFB"/>
<path d="M35.0291 39.7667C38.5588 38.7919 42.2686 38.3807 45.9183 38.7827C46.8007 38.8566 47.5399 39.3833 48.2976 39.7944C49.8638 39.776 52.0028 40.1455 52.0213 42.1367C45.6642 38.9906 37.6024 39.1384 31.5641 42.9545C31.9337 41.3144 33.3151 40.0762 35.0707 40.3673C35.0614 40.2148 35.0384 39.9146 35.0291 39.7667Z" fill="#ECEEFB"/>
<path d="M1.26195 12.7169C0.75838 11.1415 0.753761 9.33967 1.53915 7.84743C2.07045 8.79914 2.48162 9.92641 3.46105 10.5178C7.06462 12.6152 11.4813 13.5808 15.5561 12.3842C15.168 14.0058 14.7522 15.6274 14.378 17.2536C10.9639 17.9374 7.52199 16.8656 4.41276 15.5119C3.13765 14.9113 1.75167 14.1306 1.26195 12.7169Z" fill="#EAE9F7"/>
<path d="M3.10529 15.8769C4.20483 16.3943 5.31824 16.8887 6.45013 17.3276C6.37159 19.6283 7.12002 21.832 7.33716 24.105C7.63284 27.011 8.42747 29.8292 8.96338 32.6935C9.43462 35.3823 10.9777 37.7062 12.2297 40.0855C13.1167 41.7117 15.0109 42.1737 16.4569 43.1161C17.0437 44.1649 16.8173 45.4354 16.9605 46.5857C17.0622 49.7042 18.6745 52.4715 20.1852 55.1049C20.4578 55.0864 20.7258 55.068 20.9937 55.0541C21.2109 55.6593 21.2525 56.3985 21.8115 56.8143C25.4843 59.5632 29.4898 61.9702 33.9296 63.236C36.66 63.8043 39.4643 64.0538 42.2501 64.0076C45.8075 63.6795 49.1015 61.9424 51.8227 59.6925C51.6194 59.4892 51.2175 59.0827 51.0142 58.8794C53.0839 58.5976 55.1583 58.2188 57.0987 57.4241C57.3343 57.7521 57.5514 58.0848 57.7824 58.422C57.8147 57.9508 57.8471 57.4842 57.8748 57.0176C59.0206 56.8328 60.0416 56.2368 61.0811 55.7471C58.2213 61.0323 52.6958 64.3772 46.944 65.6245C42.6567 66.6132 38.0414 66.9459 33.8187 65.4906L33.2551 65.814C33.0195 65.9479 32.7885 66.0819 32.5575 66.2159C27.9745 65.121 23.5532 62.8387 20.4486 59.2398C20.4024 59.1104 20.3054 58.8563 20.2592 58.727C16.9698 55.3405 15.228 50.7252 15.0848 46.036C10.0167 42.8851 7.33716 37.1102 6.04819 31.4877C4.95789 26.3041 3.9877 21.0975 3.10529 15.8769Z" fill="#FCFCFF"/>
<path d="M6.45015 17.3276C8.99112 18.1777 11.6799 18.5704 14.3503 18.1915C13.7404 23.5414 14.5535 29.1224 17.0714 33.9132C18.402 36.4588 20.2361 38.8474 22.7863 40.2611C21.4049 41.319 20.4671 42.9175 20.6103 44.7008C20.7581 49.1036 24.0753 52.5871 27.6419 54.7538C34.5949 58.9395 43.0817 59.8266 51.0142 58.8795C51.2175 59.0827 51.6194 59.4893 51.8227 59.6926C49.1015 61.9425 45.8075 63.6796 42.2502 64.0076C39.4643 64.0538 36.66 63.8043 33.9296 63.2361C29.4898 61.9702 25.4843 59.5632 21.8115 56.8143C21.2525 56.3985 21.2109 55.6594 20.9938 55.0541C20.7258 55.068 20.4578 55.0865 20.1853 55.105C18.6745 52.4716 17.0622 49.7042 16.9605 46.5858C16.8173 45.4354 17.0437 44.1649 16.457 43.1162C15.0109 42.1737 13.1167 41.7117 12.2297 40.0855C10.9777 37.7062 9.43464 35.3824 8.9634 32.6936C8.42749 29.8292 7.63285 27.011 7.33718 24.1051C7.12004 21.8321 6.37161 19.6284 6.45015 17.3276Z" fill="#E9E8F9"/>
<path d="M38.1476 36.6482C44.9159 35.3777 52.1184 36.6112 58.1289 39.9561C60.924 41.4945 63.6636 43.7675 64.4536 47.0061C64.9018 48.4198 64.4028 49.8613 64.024 51.2241C63.8161 51.0994 63.4003 50.8453 63.1924 50.7206C62.0975 51.8617 61.1088 53.4048 59.4271 53.682C55.1398 54.629 50.8617 56.0612 46.4127 55.7425C43.3127 55.5161 40.1896 55.4468 37.1174 54.9709C33.4861 54.0007 29.9287 52.5824 26.8287 50.4249C25.2626 49.5563 24.0383 48.1519 23.3961 46.4795C22.9387 45.5046 22.8232 44.3035 21.9501 43.5827L21.5897 43.2131C22.583 41.0002 24.9299 40.0069 27.0967 39.3139C30.7187 38.2005 34.4055 37.2765 38.1476 36.6482ZM35.0292 39.7667C35.0384 39.9145 35.0615 40.2148 35.0707 40.3673C33.3152 40.0762 31.9338 41.3143 31.5642 42.9544C30.7418 43.726 30.0627 44.9225 30.5247 46.0637C31.3286 47.7961 33.195 48.6139 34.8397 49.3531C40.6701 51.8016 47.4799 52.1805 53.4304 49.9306C54.8534 49.4547 56.1423 48.138 56.0592 46.5626C55.6064 44.5067 53.7908 43.0884 52.0213 42.1367C52.0029 40.1455 49.8638 39.7759 48.2977 39.7944C47.54 39.3832 46.8008 38.8565 45.9184 38.7826C42.2686 38.3807 38.5588 38.7919 35.0292 39.7667Z" fill="#FDFEFD"/>
<path d="M31.5642 42.9545C37.6024 39.1384 45.6642 38.9906 52.0213 42.1367C53.7907 43.0885 55.6064 44.5068 56.0591 46.5627C56.1423 48.1381 54.8533 49.4547 53.4304 49.9306C47.4799 52.1805 40.6701 51.8017 34.8397 49.3531C33.195 48.6139 31.3285 47.7962 30.5247 46.0637C30.0627 44.9226 30.7418 43.726 31.5642 42.9545ZM37.8704 41.3698C35.7313 41.8503 33.523 42.5387 31.8506 44.0171C30.4092 45.3384 32.4835 48.0734 34.0959 47.1401C40.0371 44.7655 47.2073 45.5555 52.3724 49.3716C53.4581 49.0251 54.5946 48.4384 55.0843 47.3434C55.2737 45.2922 53.3241 43.957 51.7626 43.0515C47.5215 40.8709 42.5042 40.3165 37.8704 41.3698ZM34.35 48.0688C39.5336 50.5728 45.5811 51.0394 51.1666 49.7781C49.5635 48.3737 47.5122 47.6761 45.4748 47.2048C41.7927 46.4333 37.8149 46.4887 34.35 48.0688Z" fill="#283757"/>
<path d="M37.8705 41.3699C42.5043 40.3165 47.5216 40.8709 51.7627 43.0515C53.3243 43.957 55.2739 45.2922 55.0845 47.3434C54.5948 48.4384 53.4582 49.0251 52.3726 49.3716C47.2075 45.5555 40.0373 44.7655 34.096 47.1402C32.4837 48.0734 30.4093 45.3384 31.8507 44.0171C33.5232 42.5387 35.7315 41.8503 37.8705 41.3699Z" fill="#D4D3EE"/>
<path d="M21.368 43.3241L21.9501 43.5828C22.8233 44.3035 22.9388 45.5047 23.3961 46.4795C24.0383 48.1519 25.2626 49.5564 26.8288 50.4249C29.9287 52.5825 33.4861 54.0008 37.1174 54.971C40.1897 55.4468 43.3127 55.5161 46.4127 55.7425C50.8617 56.0613 55.1398 54.6291 59.4271 53.682C61.1088 53.4048 62.0975 51.8617 63.1924 50.7206C63.4003 50.8453 63.8161 51.0994 64.024 51.2242C61.7002 55.3452 56.8769 56.976 52.4834 57.7337C44.44 59.1012 35.7453 58.3574 28.552 54.2872C24.5835 52.0789 21.2294 48.0919 21.368 43.3241Z" fill="#E9E8F8"/>
<path d="M34.35 48.0688C37.8149 46.4887 41.7927 46.4333 45.4748 47.2048C47.5122 47.6761 49.5635 48.3737 51.1666 49.7782C45.5811 51.0394 39.5336 50.5728 34.35 48.0688Z" fill="#ACE1F9"/>
<path d="M18.8409 67.6481C17.7783 64.8022 18.8871 61.6791 20.4486 59.2398C23.5532 62.8387 27.9745 65.121 32.5575 66.2159C32.7885 66.0819 33.0195 65.948 33.2551 65.814C33.6063 66.2529 34.0405 66.6317 34.618 66.7241C37.353 67.4633 40.2035 67.2415 43.0079 67.3062C41.146 67.8098 39.2056 67.9299 37.2837 67.9022C39.0809 70.5032 39.6168 73.654 40.4715 76.6339C35.2417 77.6041 29.7717 76.4445 25.2072 73.7788C22.6385 72.3143 20.0652 70.4386 18.8409 67.6481Z" fill="#E9E8FA"/>
<path d="M43.0079 67.3062C43.2343 67.2462 43.6962 67.1353 43.9272 67.0799C44.8697 69.0711 46.2973 71.0946 46.094 73.3953C45.1238 75.5205 42.5089 76.0241 40.4715 76.6339C39.6168 73.6541 39.0809 70.5033 37.2838 67.9022C39.2057 67.9299 41.146 67.8098 43.0079 67.3062Z" fill="#FFFFFD"/>
</svg>
