<svg width="69" height="63" viewBox="0 0 69 63" fill="none" xmlns="http://www.w3.org/2000/svg">
<path d="M27.2568 0.760872C27.5733 0.408171 27.8864 -0.0961579 28.4501 0.0159152C33.1934 0.0126189 37.9367 0.012619 42.6801 0.0192115C43.1778 -0.00715864 43.6261 0.236765 44.0909 0.375208C44.0744 5.55364 44.1107 10.7354 44.0744 15.9105C44.0151 16.0786 43.8997 16.4083 43.8437 16.5731C51.2537 16.5269 58.667 16.5665 66.077 16.5533C67.023 16.6225 68.2393 16.9488 68.4898 18.0069C68.859 18.6926 68.4536 19.3848 68.1734 20.0111C67.1516 20.7165 65.9023 20.4989 64.7387 20.5187C43.8535 20.5154 22.9717 20.5253 2.08983 20.5154C0.929547 20.6407 0.339516 19.4936 0 18.5805C0.24722 17.9344 0.622994 17.3609 1.11084 16.8763C1.75361 16.6884 2.40628 16.5005 3.08201 16.5467C11.2469 16.5731 19.4084 16.5269 27.57 16.5698C27.3524 16.2632 27.2535 15.9237 27.2766 15.5512C27.2733 10.62 27.3195 5.68879 27.2568 0.760872ZM28.6676 1.33113C28.6643 5.99864 28.6643 10.6662 28.6643 15.3337C33.3253 15.3403 37.9862 15.3337 42.6438 15.337C42.6372 10.6695 42.6636 5.99864 42.6306 1.33113C37.9763 1.33442 33.322 1.33442 28.6676 1.33113Z" fill="black"/>
<path d="M46.6455 26.4652C47.084 25.6081 48.0926 25.3444 48.8936 24.9489C49.7407 25.2324 50.5615 25.6279 51.0988 26.3729C51.7614 26.2245 52.4305 26.096 53.1128 26.0696C54.194 26.9662 54.5698 28.321 54.9192 29.6164C54.9455 30.3086 54.9521 31.0041 54.9488 31.6963C55.4598 31.8612 55.974 31.9996 56.5014 32.1051C56.8475 32.8072 57.243 33.4862 57.5397 34.2147C57.9155 35.6618 57.7012 37.1714 57.7606 38.6482C57.8067 41.2291 57.3222 43.8365 55.9773 46.0747C54.9554 47.6964 54.0292 49.45 53.5776 51.319C53.4359 51.5926 53.2941 51.8629 53.1524 52.1365C52.9777 53.6363 52.3184 55.0207 52.0877 56.5073C51.8965 58.2148 51.5834 59.9091 51.6031 61.633C51.2933 62.345 50.7 61.9594 50.1956 61.7385C50.1758 56.5008 51.8075 51.4311 53.9731 46.7174C54.7544 45.2934 55.6971 43.9123 55.9938 42.2873C56.3728 40.0985 56.2377 37.8703 56.2542 35.665C56.3201 34.5575 55.7301 33.5785 54.9818 32.8204C54.8961 35.3354 55.3477 37.8604 55.0411 40.3655C55.1104 41.0775 53.9435 40.8797 54.072 40.2567C54.0127 38.9481 54.1215 37.6395 54.0193 36.3342C53.9567 34.2213 53.4095 32.1545 53.4424 30.0383C53.3073 29.145 53.2513 28.0276 52.4799 27.4376C51.9756 27.4475 51.7317 27.9419 51.4119 28.2484C52.1602 32.0062 52.358 35.8892 52.0119 39.703C51.8075 39.5975 51.3988 39.3865 51.1944 39.2811C50.8648 37.422 51.2208 35.5167 50.9966 33.6477C50.7593 31.8117 50.6802 29.9559 50.3374 28.1331C50.1857 27.3024 49.5067 26.7552 48.92 26.2179C47.7992 26.9036 47.4663 28.2946 47.8421 29.5076C48.7255 32.5369 49.1079 35.698 49.0123 38.8492C48.6233 38.8097 47.7663 38.9976 47.8619 38.3482C47.8322 35.4112 47.7762 32.3622 46.6258 29.6131C45.8248 31.1821 45.9995 32.9753 46.0357 34.6762C46.0819 36.9967 46.7312 39.2843 46.4972 41.6148C45.0699 42.34 44.3744 43.8497 43.5207 45.1154C42.7032 46.3647 42.6043 47.8876 42.6571 49.338C42.3505 49.3116 41.9022 49.5456 41.7011 49.2127C41.1243 48.237 41.2034 46.9778 40.4683 46.078C39.7399 45.1946 38.9059 44.1859 37.6434 44.232C37.271 45.2374 36.9216 46.3153 37.3369 47.3701C38.1675 49.7896 39.1762 52.2552 40.9859 54.1208C41.6748 54.7933 42.578 55.413 42.7032 56.448C42.8351 58.1983 42.7296 59.9552 42.7263 61.7089L42.7164 62.111C42.2055 62.0517 41.711 61.9099 41.2331 61.7319C41.1968 59.9849 41.2726 58.2346 41.2034 56.4909C40.9496 55.6206 39.931 55.3932 39.4926 54.6581C38.9224 53.7583 38.1544 52.9606 37.8577 51.9123C37.3105 50.5675 36.5227 49.3314 35.9459 47.9997C35.8569 47.1492 35.6459 46.3153 35.6525 45.4583C36.0151 44.7034 36.226 43.8695 36.7469 43.197C38.784 42.2642 40.8639 43.8596 41.7308 45.6396C41.9681 44.5023 42.8614 43.7178 43.4548 42.7751C43.9591 42.0598 44.3942 41.2423 45.1721 40.7874C44.9908 39.1096 44.9842 37.3758 44.5656 35.7211C44.5524 34.274 44.5096 32.8237 44.5722 31.3733C44.8952 30.246 45.0963 28.8813 46.3357 28.3902C46.3654 27.7408 46.2896 27.0453 46.6455 26.4652Z" fill="black"/>
<path d="M19.0096 31.67C19.4974 30.1504 20.7896 29.0593 22.2102 28.4297C23.1035 28.7297 23.7793 29.4087 24.0693 30.3086C24.9758 30.0647 25.4538 30.7207 25.7109 31.4887C25.935 32.2435 25.9944 33.028 25.935 33.8126C25.7801 34.3235 25.6614 34.8443 25.5131 35.3552C25.3054 37.3956 24.9 39.4492 24.0496 41.3214L24.2374 41.5753C23.8551 42.1884 24.0001 42.9135 23.9408 43.5959C23.8749 44.5979 23.532 45.5769 23.5683 46.5823C23.8056 47.9898 24.0627 49.4072 23.9474 50.8411C25.2461 49.4105 26.6437 48.0722 28.0183 46.7174C28.4666 46.1867 29.1753 46.2098 29.8048 46.19C30.3619 46.7702 30.9289 47.3404 31.5024 47.9008C31.5057 48.3557 31.5057 48.8139 31.5057 49.272C30.2861 51.6981 28.694 53.9132 27.3293 56.2601C27.2239 56.6161 27.1151 56.9754 27.0063 57.3347C26.3668 58.4752 26.1592 59.7871 25.8559 61.043C25.5428 61.6166 24.8242 61.877 24.366 61.2803C24.8044 59.3883 25.4109 57.5424 26.0801 55.7195C26.9964 53.9363 28.0315 52.1991 29.2906 50.6334C29.8279 49.9676 30.0125 49.1237 30.1411 48.2996C29.7686 48.0887 29.4488 47.413 28.9511 47.6767C27.2535 49.071 26.0801 51.0883 24.1517 52.1991C23.153 52.7628 22.497 51.7838 22.5432 50.8707C22.497 48.6655 21.8971 46.4702 22.3685 44.2782C22.3751 42.0895 23.1266 40.0326 23.6738 37.9494C24.0067 35.8529 24.6462 33.7631 24.3792 31.6172C23.8518 31.9831 23.4266 32.4776 23.242 33.1006C22.2267 35.9123 21.607 38.8657 21.3104 41.839C21.0269 41.7302 20.2951 42.0895 20.3544 41.5884C20.3643 38.312 21.4323 35.1409 22.4838 32.0688C22.675 31.3799 22.5794 30.658 22.5695 29.9559C22.0916 30.1504 21.5279 30.2526 21.2082 30.7009C18.8316 34.0598 18.0635 38.2526 18.0734 42.3004C18.1987 42.9465 17.5889 43.2399 17.167 43.5728C16.7055 40.2568 17.223 36.8122 18.4096 33.6972C18.2976 33.4368 18.0767 32.9127 17.9679 32.6523C16.4418 34.0927 16.2671 36.2551 15.7034 38.1537C15.0969 40.3293 15.1595 42.6037 14.8035 44.8155C14.4838 44.7891 14.1608 44.7628 13.841 44.7364C13.7718 42.6927 13.3499 40.682 12.6873 38.7504C11.0062 42.7751 11.9556 47.2415 12.2324 51.4377C12.4006 54.7999 13.1818 58.0896 13.4026 61.4485C12.9774 61.3199 12.1929 61.6858 12.1039 61.0397C11.6062 59.6586 11.6391 58.1687 11.4183 56.7348C10.7722 54.0417 10.9897 51.2399 10.492 48.5304C10.4854 46.7273 10.0899 44.9473 10.2778 43.141C10.6964 41.3544 10.5942 39.3338 11.6984 37.7648C12.0149 37.6033 12.3313 37.4384 12.6511 37.2769C12.9741 37.422 13.3004 37.567 13.6268 37.712C13.7718 38.0351 13.9168 38.3581 14.0685 38.6778C14.3223 37.3626 14.8464 36.1298 15.1661 34.8344C15.5122 33.9246 15.921 33.0445 16.3923 32.1941C16.6857 32.0194 16.9758 31.8381 17.2658 31.6502C17.846 31.6469 18.4294 31.6568 19.0096 31.67Z" fill="black"/>
<path d="M28.6676 1.33118C33.3219 1.33447 37.9763 1.33447 42.6306 1.33118C42.6636 5.99869 42.6372 10.6695 42.6438 15.337C37.9862 15.3337 33.3252 15.3403 28.6643 15.3337C28.6643 10.6662 28.6643 5.99869 28.6676 1.33118Z" fill="#E62324"/>
<path d="M47.842 29.5076C47.4662 28.2946 47.7991 26.9036 48.9199 26.218C49.5066 26.7552 50.1856 27.3024 50.3373 28.1331C50.6801 29.9559 50.7592 31.8117 50.9965 33.6477C51.2207 35.5167 50.8647 37.422 51.1943 39.2811C51.3987 39.3865 51.8074 39.5975 52.0118 39.703C52.3579 35.8892 52.1601 32.0062 51.4118 28.2485C51.7316 27.9419 51.9755 27.4475 52.4798 27.4376C53.2512 28.0276 53.3072 29.145 53.4423 30.0383C53.4094 32.1545 53.9566 34.2213 54.0192 36.3342C54.1214 37.6395 54.0126 38.9481 54.0719 40.2568C53.9434 40.8798 55.1103 41.0775 55.041 40.3655C55.3476 37.8604 54.896 35.3354 54.9817 32.8204C55.73 33.5785 56.32 34.5575 56.2541 35.6651C56.2376 37.8703 56.3727 40.0985 55.9937 42.2873C55.697 43.9123 54.7543 45.2935 53.973 46.7174C51.8074 51.4311 50.1757 56.5008 50.1955 61.7385C47.7068 61.6792 45.2149 61.7286 42.7262 61.7089C42.7295 59.9553 42.835 58.1983 42.7031 56.448C42.5778 55.413 41.6747 54.7933 40.9857 54.1209C39.1761 52.2552 38.1674 49.7896 37.3368 47.3701C36.9215 46.3153 37.2709 45.2374 37.6433 44.2321C38.9058 44.1859 39.7398 45.1946 40.4682 46.078C41.2033 46.9779 41.1242 48.237 41.701 49.2127C41.9021 49.5456 42.3504 49.3116 42.657 49.338C42.6042 47.8876 42.7031 46.3647 43.5206 45.1155C44.3743 43.8497 45.0698 42.34 46.4971 41.6148C46.7311 39.2844 46.0818 36.9968 46.0356 34.6762C45.9994 32.9753 45.8247 31.1821 46.6257 29.6131C47.7761 32.3622 47.8321 35.4112 47.8618 38.3482C47.7662 38.9976 48.6232 38.8097 49.0122 38.8493C49.1077 35.698 48.7254 32.5369 47.842 29.5076Z" fill="#FFAF80"/>
<path d="M21.2081 30.7009C21.5279 30.2526 22.0915 30.1504 22.5695 29.9559C22.5794 30.658 22.675 31.3799 22.4838 32.0688C21.4323 35.141 20.3643 38.312 20.3544 41.5885C20.2951 42.0895 21.0268 41.7302 21.3103 41.839C21.607 38.8657 22.2267 35.9123 23.2419 33.1006C23.4265 32.4776 23.8517 31.9831 24.3791 31.6172C24.6461 33.7631 24.0067 35.853 23.6737 37.9494C23.1266 40.0326 22.375 42.0895 22.3684 44.2782C21.897 46.4702 22.497 48.6655 22.5431 50.8707C22.497 51.7838 23.1529 52.7628 24.1517 52.1991C26.08 51.0883 27.2535 49.071 28.9511 47.6767C29.4488 47.413 29.7685 48.0887 30.141 48.2997C30.0125 49.1237 29.8279 49.9676 29.2906 50.6334C28.0314 52.1991 26.9964 53.9363 26.08 55.7196C25.4109 57.5424 24.8044 59.3883 24.3659 61.2804L24.3132 61.488C20.6774 61.399 17.0383 61.4715 13.4026 61.4485C13.1817 58.0896 12.4005 54.7999 12.2324 51.4377C11.9555 47.2416 11.0062 42.7751 12.6873 38.7504C13.3498 40.682 13.7717 42.6927 13.841 44.7364C14.1607 44.7628 14.4837 44.7891 14.8035 44.8155C15.1595 42.6037 15.0968 40.3293 15.7034 38.1537C16.267 36.2551 16.4417 34.0927 17.9679 32.6523C18.0767 32.9127 18.2975 33.4368 18.4096 33.6972C17.2229 36.8122 16.7054 40.2568 17.1669 43.5728C17.5888 43.2399 18.1986 42.9465 18.0734 42.3005C18.0635 38.2526 18.8315 34.0598 21.2081 30.7009Z" fill="#FFAF80"/>
</svg>
